<svg width="1440" height="2326" viewBox="0 0 1440 2326" fill="none" xmlns="http://www.w3.org/2000/svg">
<g clip-path="url(#clip0_242_1159)">
<rect width="1440" height="2326" fill="black"/>
<path d="M1391.92 248.929L1388.97 255.977C1389.36 255.241 1389.76 254.52 1390.16 253.784C1391.32 251.223 1392.48 248.656 1393.63 246.074C1393.06 247.029 1392.49 247.974 1391.92 248.929ZM1371.34 291.893C1370.6 293.734 1369.86 295.596 1369.13 297.427L1369.49 296.726L1372.44 289.931L1371.34 291.893ZM1381.58 266.225C1379.98 270.287 1378.36 274.273 1376.75 278.328C1377.81 276.416 1378.85 274.469 1379.91 272.55C1381.57 268.654 1383.21 264.682 1384.86 260.744C1383.76 262.566 1382.68 264.408 1381.58 266.225ZM1351.02 336.162C1350.42 337.71 1349.81 339.203 1349.21 340.744L1349.22 340.707C1349.95 338.966 1350.68 337.189 1351.4 335.439L1351.02 336.162ZM1360.84 310.523C1359.44 314.187 1358.05 317.877 1356.64 321.52C1357.45 319.993 1358.26 318.48 1359.06 316.949C1360.73 312.875 1362.42 308.894 1364.08 304.791C1363 306.696 1361.93 308.624 1360.84 310.523ZM1371.21 283.203C1369.27 288.385 1367.32 293.47 1365.38 298.609C1366.72 296.236 1368.06 293.858 1369.4 291.474C1371.43 286.418 1373.45 281.317 1375.48 276.239C1374.06 278.565 1372.63 280.883 1371.21 283.203ZM-123.492 1762.3L-121.91 1761.24C-120.956 1760.23 -119.999 1759.23 -119.043 1758.22L-120.455 1759.25C-121.468 1760.26 -122.479 1761.28 -123.492 1762.3ZM1330.29 382.888L1329.68 384.5C1329.97 383.78 1330.27 383.079 1330.56 382.359L1330.29 382.888ZM1340.59 355.569C1339.33 358.999 1338.06 362.372 1336.79 365.76C1337.41 364.53 1338.03 363.315 1338.65 362.08C1340.07 358.532 1341.47 354.944 1342.88 351.395C1342.12 352.798 1341.35 354.17 1340.59 355.569ZM1350.58 328.26C1348.76 333.231 1346.95 338.221 1345.13 343.171C1346.45 340.708 1347.76 338.209 1349.08 335.735C1350.96 330.925 1352.82 326.047 1354.68 321.165C1353.31 323.533 1351.95 325.901 1350.58 328.26ZM1360.7 300.159C1358.58 306.152 1356.46 312.099 1354.33 318C1355.85 315.355 1357.39 312.742 1358.91 310.086C1361.2 304.053 1363.5 298.069 1365.8 292.026C1364.11 294.752 1362.4 297.445 1360.7 300.159ZM-134.703 1773.58C-133.747 1772.99 -132.786 1772.42 -131.827 1771.84L-127.646 1767.37C-128.537 1767.97 -129.431 1768.56 -130.32 1769.16C-131.782 1770.63 -133.245 1772.1 -134.703 1773.58ZM-143.11 1778.76L-141.245 1777.6L-138.318 1774.62L-139.881 1775.69C-140.958 1776.71 -142.037 1777.73 -143.11 1778.76ZM-150.864 1783.58L-150.605 1783.42L-149.656 1782.5L-150.864 1783.58ZM1320.12 402.562C1318.94 405.772 1317.76 409.015 1316.58 412.241L1318.73 407.783C1319.93 404.691 1321.11 401.514 1322.3 398.38C1321.58 399.78 1320.85 401.164 1320.12 402.562ZM1330.14 374.621C1328.48 379.366 1326.82 384.127 1325.15 388.777C1326.22 386.704 1327.27 384.57 1328.34 382.488C1330.22 377.519 1332.1 372.592 1333.98 367.618C1332.7 369.946 1331.43 372.302 1330.14 374.621ZM1340.25 345.852L1334.02 363.594C1335.56 360.777 1337.11 357.981 1338.65 355.152C1340.74 349.507 1342.82 343.752 1344.91 338.024C1343.36 340.654 1341.8 343.235 1340.25 345.852ZM1350.2 316.86C1347.94 323.56 1345.69 330.277 1343.42 336.83C1345.17 333.86 1346.89 330.836 1348.63 327.848C1351.07 321.122 1353.52 314.49 1355.95 307.715C1354.03 310.76 1352.12 313.83 1350.2 316.86ZM-145.524 1784.61C-144.273 1783.92 -143.026 1783.22 -141.773 1782.54C-140.083 1780.71 -138.396 1778.88 -136.703 1777.06C-137.902 1777.79 -139.097 1778.54 -140.296 1779.28C-142.037 1781.06 -143.783 1782.83 -145.524 1784.61ZM-154.058 1789.33C-153.085 1788.79 -152.11 1788.25 -151.134 1787.71C-149.72 1786.25 -148.306 1784.81 -146.889 1783.36L-149.691 1785.11C-151.148 1786.52 -152.604 1787.92 -154.058 1789.33ZM-162.38 1794.05L-160.462 1792.97C-159.456 1791.98 -158.451 1791 -157.443 1790.02C-157.997 1790.37 -158.551 1790.72 -159.105 1791.08C-160.196 1792.07 -161.289 1793.06 -162.38 1794.05ZM-170.15 1798.53L-169.73 1798.28L-168.503 1797.15L-168.607 1797.21L-170.15 1798.53ZM1299.79 450.726C1298.77 453.629 1297.75 456.565 1296.72 459.437C1297.13 458.561 1297.54 457.665 1297.95 456.786C1299.2 453.479 1300.45 450.218 1301.7 446.902L1299.79 450.726ZM1309.8 422.297C1308.19 426.912 1306.57 431.473 1304.95 436.08C1305.98 434.004 1307.01 431.973 1308.04 429.889C1309.74 425.284 1311.44 420.588 1313.14 415.929C1312.02 418.04 1310.92 420.195 1309.8 422.297ZM1319.81 393.045C1317.9 398.728 1315.99 404.436 1314.06 410.008C1315.44 407.399 1316.8 404.775 1318.17 402.149C1320.27 396.353 1322.38 390.65 1324.47 384.798C1322.92 387.564 1321.36 390.295 1319.81 393.045ZM1329.9 363.256C1327.63 370.018 1325.35 376.685 1323.07 383.411C1324.78 380.354 1326.49 377.289 1328.19 374.213C1330.51 367.677 1332.82 361.059 1335.14 354.454C1333.38 357.38 1331.65 360.345 1329.9 363.256ZM1339.8 333.007C1337.43 340.342 1335.06 347.721 1332.67 354.896C1334.55 351.752 1336.43 348.594 1338.3 345.433C1340.8 338.241 1343.3 331.018 1345.79 323.726C1343.8 326.829 1341.8 329.917 1339.8 333.007ZM-156.065 1795.48C-154.639 1794.78 -153.21 1794.09 -151.783 1793.4C-149.844 1791.28 -147.899 1789.18 -145.955 1787.07C-147.379 1787.86 -148.805 1788.64 -150.226 1789.43C-152.174 1791.44 -154.12 1793.46 -156.065 1795.48ZM-164.787 1799.81C-163.523 1799.18 -162.26 1798.55 -160.997 1797.92C-159.28 1796.13 -157.561 1794.36 -155.842 1792.58C-157.092 1793.29 -158.339 1794 -159.586 1794.71C-161.323 1796.4 -163.054 1798.11 -164.787 1799.81ZM-173.28 1804.11C-172.248 1803.58 -171.218 1803.04 -170.184 1802.51C-168.752 1801.1 -167.314 1799.7 -165.882 1798.29C-166.884 1798.87 -167.886 1799.46 -168.889 1800.04L-173.28 1804.11ZM-181.461 1808.33C-180.795 1807.98 -180.126 1807.64 -179.462 1807.3C-178.405 1806.31 -177.344 1805.34 -176.286 1804.35L-178.129 1805.44C-179.238 1806.4 -180.351 1807.36 -181.461 1808.33ZM-189.259 1812.46L-188.64 1812.13C-188.176 1811.72 -187.713 1811.31 -187.248 1810.9L-187.554 1811.08C-188.122 1811.55 -188.692 1812 -189.259 1812.46ZM1279.8 499.579C1278.8 502.478 1277.78 505.231 1276.78 508.102C1277.04 507.533 1277.3 506.986 1277.56 506.416C1278.68 503.382 1279.79 500.294 1280.91 497.249C1280.54 498.021 1280.17 498.811 1279.8 499.579ZM1289.5 471.106C1288.04 475.395 1286.58 479.717 1285.12 483.967C1286.06 481.998 1287 480.045 1287.94 478.068C1289.54 473.645 1291.15 469.29 1292.74 464.814C1291.67 466.936 1290.58 468.992 1289.5 471.106ZM1299.74 440.956C1297.77 446.84 1295.8 452.544 1293.83 458.377C1295.17 455.715 1296.5 452.992 1297.85 450.315C1299.83 444.731 1301.8 439.083 1303.78 433.464C1302.44 435.971 1301.09 438.465 1299.74 440.956ZM1309.42 411.359C1307.31 417.837 1305.2 424.335 1303.09 430.716C1304.68 427.748 1306.28 424.839 1307.87 421.851C1310.12 415.373 1312.37 408.834 1314.61 402.244C1312.88 405.28 1311.16 408.341 1309.42 411.359ZM1319.6 380.111C1317.2 387.601 1314.78 394.929 1312.37 402.342C1314.21 399.117 1316.04 395.857 1317.87 392.61C1320.32 385.418 1322.76 378.191 1325.2 370.95C1323.34 374.016 1321.47 377.063 1319.6 380.111ZM1329.38 348.989C1326.9 356.921 1324.43 364.877 1321.94 372.675C1323.94 369.387 1325.96 366.134 1327.95 362.829C1330.51 355.174 1333.05 347.356 1335.59 339.538C1333.53 342.702 1331.45 345.84 1329.38 348.989ZM-166.513 1806.35C-164.9 1805.66 -163.29 1804.95 -161.675 1804.27C-159.582 1801.96 -157.492 1799.65 -155.392 1797.35C-156.978 1798.13 -158.559 1798.91 -160.143 1799.7C-162.271 1801.91 -164.393 1804.13 -166.513 1806.35ZM-175.233 1810.13C-173.772 1809.49 -172.306 1808.85 -170.842 1808.22C-168.926 1806.2 -167.016 1804.18 -165.096 1802.17C-166.517 1802.89 -167.944 1803.59 -169.362 1804.31C-171.325 1806.24 -173.281 1808.19 -175.233 1810.13ZM-183.84 1813.97C-182.555 1813.39 -181.27 1812.83 -179.985 1812.25C-178.279 1810.55 -176.573 1808.84 -174.865 1807.14C-176.137 1807.8 -177.41 1808.45 -178.679 1809.11C-180.403 1810.72 -182.118 1812.36 -183.84 1813.97ZM-192.283 1817.85C-191.222 1817.36 -190.163 1816.86 -189.101 1816.38L-184.785 1812.31C-185.817 1812.85 -186.85 1813.41 -187.881 1813.95C-189.349 1815.25 -190.817 1816.55 -192.283 1817.85ZM-200.423 1821.66C-199.682 1821.31 -198.942 1820.94 -198.199 1820.59C-197.132 1819.64 -196.062 1818.7 -194.992 1817.76C-195.689 1818.13 -196.383 1818.52 -197.077 1818.9C-198.192 1819.82 -199.31 1820.74 -200.423 1821.66ZM-208.065 1825.33L-207.306 1824.96C-206.795 1824.54 -206.287 1824.1 -205.776 1823.68L-206.283 1823.95L-208.065 1825.33ZM1259.34 550.549C1258.56 552.837 1257.77 555.146 1256.98 557.441C1257.34 556.621 1257.7 555.813 1258.06 554.991C1258.9 552.687 1259.73 550.334 1260.56 547.996C1260.16 548.86 1259.75 549.69 1259.34 550.549ZM1269.54 520.485C1268.16 524.649 1266.79 528.781 1265.41 532.871C1266.15 531.265 1266.89 529.641 1267.63 528.031C1269.16 523.725 1270.69 519.386 1272.21 515.088C1271.32 516.897 1270.43 518.681 1269.54 520.485ZM1279.29 490.875C1277.46 496.418 1275.64 501.989 1273.81 507.504C1275.16 504.755 1276.5 501.978 1277.83 499.21C1279.68 493.892 1281.52 488.429 1283.36 482.992C1282 485.616 1280.65 488.266 1279.29 490.875ZM1289.32 460.076C1287.25 466.548 1285.17 472.929 1283.1 479.308C1284.58 476.443 1286.06 473.601 1287.54 470.718L1294.11 451.402C1292.51 454.313 1290.91 457.183 1289.32 460.076ZM1299.16 428.956C1296.86 436.265 1294.56 443.575 1292.25 450.807C1294.1 447.419 1295.94 443.958 1297.79 440.546C1300.09 433.663 1302.37 426.574 1304.66 419.532C1302.83 422.681 1301 425.828 1299.16 428.956ZM1309.15 397.021C1306.7 404.984 1304.24 412.848 1301.78 420.697C1303.67 417.438 1305.58 414.215 1307.47 410.933C1310.04 403.063 1312.62 395.245 1315.19 387.326C1313.18 390.574 1311.16 393.792 1309.15 397.021ZM1318.96 364.769C1316.39 373.273 1313.81 381.767 1311.23 390.161C1313.38 386.699 1315.51 383.174 1317.65 379.687C1320.24 371.612 1322.82 363.284 1325.4 355.013C1323.25 358.265 1321.12 361.537 1318.96 364.769ZM-159.113 1810.88C-72.7391 1781.04 16.4984 1763.6 107.434 1745.85C441.069 1680.73 797.596 1611.01 1118.72 903.991M-176.808 1817.17C-175.099 1816.54 -173.383 1815.93 -171.671 1815.32C-169.429 1812.83 -167.183 1810.33 -164.934 1807.85C-166.634 1808.58 -168.335 1809.31 -170.034 1810.05C-172.293 1812.42 -174.555 1814.78 -176.808 1817.17ZM-185.588 1820.47C-183.969 1819.85 -182.35 1819.24 -180.729 1818.64C-178.621 1816.4 -176.51 1814.17 -174.394 1811.95C-175.998 1812.65 -177.6 1813.38 -179.205 1814.1C-181.333 1816.22 -183.466 1818.33 -185.588 1820.47ZM-194.224 1823.8C-192.727 1823.21 -191.235 1822.61 -189.738 1822.04C-187.811 1820.09 -185.882 1818.15 -183.951 1816.21C-185.42 1816.88 -186.886 1817.56 -188.353 1818.23C-190.312 1820.08 -192.269 1821.93 -194.224 1823.8ZM-202.699 1827.15C-201.388 1826.62 -200.076 1826.1 -198.765 1825.58C-197.069 1823.95 -195.38 1822.31 -193.68 1820.7C-194.954 1821.29 -196.227 1821.87 -197.496 1822.47C-199.232 1824.02 -200.965 1825.59 -202.699 1827.15ZM-211.04 1830.57C-209.959 1830.12 -208.876 1829.68 -207.793 1829.24L-203.467 1825.33C-204.522 1825.84 -205.578 1826.34 -206.631 1826.85L-211.04 1830.57ZM-219.168 1834.01L-216.855 1833.02C-215.77 1832.09 -214.68 1831.18 -213.592 1830.27L-215.769 1831.35C-216.901 1832.24 -218.038 1833.11 -219.168 1834.01ZM-226.628 1837.23L-225.738 1836.83L-224.2 1835.6L-224.93 1835.98C-225.498 1836.39 -226.062 1836.81 -226.628 1837.23ZM1239.44 601.367C1238.78 603.343 1238.12 605.347 1237.46 607.305L1237.67 606.825C1238.52 604.416 1239.38 602.041 1240.23 599.63L1239.44 601.367ZM1249.4 571.407C1247.98 575.664 1246.56 579.92 1245.15 584.195C1245.99 582.326 1246.82 580.388 1247.66 578.512C1249.07 574.463 1250.47 570.316 1251.88 566.214C1251.05 567.946 1250.23 569.683 1249.4 571.407ZM1259.1 541.546C1257.49 546.632 1255.87 551.752 1254.25 556.734C1255.29 554.536 1256.34 552.392 1257.37 550.184C1259.28 544.59 1261.2 539.094 1263.1 533.469C1261.77 536.142 1260.44 538.888 1259.1 541.546ZM1269.14 510.125L1263.01 529.306C1264.54 526.249 1266.06 523.17 1267.58 520.094C1269.6 514.049 1271.61 507.872 1273.62 501.725C1272.13 504.552 1270.63 507.313 1269.14 510.125ZM1278.97 478.659C1276.77 485.819 1274.58 492.976 1272.37 499.996C1274.03 496.859 1275.67 493.673 1277.32 490.513C1279.7 483.237 1282.1 476.109 1284.47 468.771C1282.64 472.07 1280.81 475.383 1278.97 478.659ZM1288.87 446.384C1286.46 454.254 1284.06 462.091 1281.65 469.915C1283.55 466.503 1285.46 463.106 1287.36 459.668C1289.77 452.148 1292.18 444.466 1294.59 436.811C1292.69 440.027 1290.78 443.189 1288.87 446.384ZM1298.71 413.63C1296.2 422.098 1293.7 430.53 1291.18 438.845C1293.2 435.442 1295.19 431.981 1297.2 428.554C1299.84 420.186 1302.47 411.912 1305.1 403.455C1302.97 406.848 1300.85 410.259 1298.71 413.63ZM1308.59 380.107C1305.95 389.101 1303.32 398.043 1300.67 406.962C1302.85 403.518 1305.02 400.067 1307.19 396.599C1309.85 387.99 1312.5 379.189 1315.15 370.414C1312.97 373.66 1310.78 376.881 1308.59 380.107ZM-187.012 1828.06C-185.207 1827.51 -183.403 1826.95 -181.595 1826.41C-179.249 1823.78 -176.895 1821.15 -174.541 1818.53C-176.35 1819.19 -178.161 1819.86 -179.966 1820.53C-182.316 1823.04 -184.666 1825.55 -187.012 1828.06ZM-195.728 1830.77C-194.006 1830.22 -192.283 1829.67 -190.558 1829.14C-188.335 1826.75 -186.107 1824.38 -183.878 1822C-185.588 1822.65 -187.299 1823.28 -189.004 1823.94C-191.247 1826.21 -193.491 1828.48 -195.728 1830.77ZM-204.367 1833.54C-202.757 1833.01 -201.142 1832.5 -199.529 1831.98C-197.438 1829.85 -195.341 1827.72 -193.243 1825.6C-194.852 1826.23 -196.463 1826.85 -198.07 1827.49C-200.169 1829.51 -202.273 1831.51 -204.367 1833.54ZM-212.947 1836.43C-211.457 1835.92 -209.966 1835.42 -208.472 1834.92C-206.546 1833.05 -204.61 1831.19 -202.676 1829.34C-204.165 1829.94 -205.654 1830.55 -207.143 1831.16C-209.08 1832.91 -211.017 1834.67 -212.947 1836.43ZM-221.371 1839.38C-220.027 1838.9 -218.688 1838.41 -217.342 1837.94C-215.64 1836.38 -213.942 1834.8 -212.235 1833.25C-213.574 1833.81 -214.908 1834.39 -216.245 1834.96C-217.958 1836.42 -219.66 1837.91 -221.371 1839.38ZM-229.609 1842.34C-228.489 1841.93 -227.372 1841.52 -226.253 1841.11C-224.815 1839.87 -223.374 1838.63 -221.935 1837.39C-223.013 1837.86 -224.091 1838.32 -225.166 1838.79C-226.647 1839.97 -228.13 1841.15 -229.609 1842.34ZM-237.58 1845.32C-236.791 1845.03 -236.001 1844.73 -235.212 1844.44C-234.133 1843.56 -233.056 1842.69 -231.974 1841.82C-232.727 1842.16 -233.476 1842.49 -234.224 1842.83C-235.344 1843.66 -236.462 1844.49 -237.58 1845.32ZM-245.046 1848.23L-244.062 1847.85L-242.435 1846.61L-243.26 1847L-245.046 1848.23ZM1219.87 652.496L1219.74 652.896L1219.9 652.424L1219.87 652.496ZM1229.19 623.654C1227.99 627.373 1226.79 631.13 1225.58 634.827C1226.22 633.379 1226.86 631.98 1227.49 630.528C1228.95 626.259 1230.42 622.132 1231.88 617.819C1230.98 619.75 1230.09 621.731 1229.19 623.654ZM1239.34 592.25C1237.65 597.544 1235.95 602.683 1234.26 607.963C1235.34 605.632 1236.41 603.313 1237.48 600.971C1239.15 595.971 1240.83 590.897 1242.5 585.867C1241.45 588.025 1240.39 590.102 1239.34 592.25ZM1249.01 561.212C1247.08 567.459 1245.15 573.734 1243.22 579.878C1244.62 576.97 1246.02 573.987 1247.42 571.063C1249.47 564.827 1251.52 558.649 1253.57 552.333C1252.05 555.31 1250.53 558.255 1249.01 561.212ZM1258.93 529.241C1256.73 536.377 1254.52 543.417 1252.32 550.545C1253.92 547.399 1255.54 544.335 1257.14 541.164C1259.4 534.12 1261.67 526.985 1263.94 519.865C1262.27 522.98 1260.61 526.147 1258.93 529.241ZM1268.69 496.753C1266.41 504.447 1264.13 512.184 1261.84 519.717C1263.62 516.405 1265.39 513.077 1267.17 509.742C1269.57 502.149 1271.97 494.575 1274.36 486.878C1272.48 490.202 1270.57 493.453 1268.69 496.753ZM1278.58 463.532C1276.07 471.991 1273.56 480.372 1271.05 488.812C1273.04 485.311 1275.02 481.785 1277 478.256C1279.54 470.075 1282.07 461.794 1284.6 453.506C1282.59 456.845 1280.59 460.215 1278.58 463.532ZM1288.34 429.773C1285.82 438.638 1283.3 447.541 1280.76 456.211C1282.81 452.805 1284.86 449.396 1286.91 445.966C1289.55 437.265 1292.19 428.552 1294.83 419.725C1292.68 423.095 1290.51 426.424 1288.34 429.773ZM1298.21 395.305C1295.51 404.765 1292.82 414.118 1290.13 423.543C1292.33 420.102 1294.55 416.674 1296.75 413.211C1299.47 404.079 1302.18 394.833 1304.89 385.574C1302.67 388.828 1300.44 392.066 1298.21 395.305ZM-197.145 1838.97C-195.273 1838.52 -193.4 1838.08 -191.526 1837.64C-189.104 1834.89 -186.689 1832.14 -184.261 1829.4C-186.128 1829.96 -187.996 1830.52 -189.858 1831.1C-192.292 1833.71 -194.718 1836.34 -197.145 1838.97ZM-205.807 1841.11C-204.008 1840.65 -202.203 1840.22 -200.403 1839.77C-198.078 1837.25 -195.762 1834.72 -193.435 1832.21C-195.245 1832.78 -197.054 1833.37 -198.865 1833.95C-201.183 1836.32 -203.496 1838.72 -205.807 1841.11ZM-214.446 1843.37C-212.715 1842.91 -210.985 1842.45 -209.25 1842C-207.042 1839.71 -204.835 1837.43 -202.621 1835.15C-204.358 1835.72 -206.089 1836.31 -207.823 1836.89C-210.033 1839.04 -212.241 1841.21 -214.446 1843.37ZM-223.026 1845.72C-221.38 1845.26 -219.736 1844.78 -218.088 1844.33C-216.021 1842.3 -213.95 1840.28 -211.882 1838.26C-213.5 1838.81 -215.119 1839.36 -216.735 1839.92C-218.832 1841.85 -220.934 1843.77 -223.026 1845.72ZM-231.46 1848.12C-229.961 1847.68 -228.459 1847.25 -226.958 1846.83C-225.046 1845.04 -223.131 1843.28 -221.213 1841.51C-222.708 1842.04 -224.203 1842.56 -225.697 1843.1C-227.62 1844.77 -229.542 1846.44 -231.46 1848.12ZM-239.778 1850.62C-238.439 1850.21 -237.096 1849.82 -235.757 1849.41C-234.068 1847.93 -232.383 1846.42 -230.691 1844.95C-232.02 1845.44 -233.349 1845.94 -234.676 1846.43C-236.379 1847.82 -238.08 1849.22 -239.778 1850.62ZM-248.008 1853.22C-246.864 1852.85 -245.721 1852.48 -244.575 1852.12C-243.12 1850.92 -241.659 1849.73 -240.202 1848.53C-241.324 1848.97 -242.445 1849.42 -243.567 1849.86C-245.047 1850.98 -246.529 1852.09 -248.008 1853.22ZM-255.823 1855.77C-254.984 1855.49 -254.146 1855.19 -253.308 1854.92C-252.24 1854.09 -251.178 1853.25 -250.108 1852.43C-250.918 1852.75 -251.725 1853.1 -252.533 1853.43C-253.631 1854.2 -254.724 1854.99 -255.823 1855.77ZM-263.19 1858.28L-262.149 1857.93C-261.573 1857.51 -260.994 1857.11 -260.416 1856.69C-260.705 1856.82 -260.993 1856.93 -261.283 1857.05L-263.19 1858.28ZM1199.53 706.435L1197.8 711.71L1197.96 711.324C1198.61 709.449 1199.25 707.495 1199.89 705.598L1199.53 706.435ZM1209.45 675.799C1208.42 679.077 1207.39 682.391 1206.36 685.602L1207.58 682.769C1208.79 679.166 1210.01 675.542 1211.22 671.965C1210.63 673.263 1210.03 674.506 1209.45 675.799ZM1219.22 644.714C1217.63 649.776 1216.03 654.875 1214.44 659.928C1215.59 657.356 1216.74 654.732 1217.89 652.146C1219.44 647.434 1220.99 642.578 1222.54 637.759C1221.44 640.098 1220.33 642.388 1219.22 644.714ZM1229.18 612.791C1227.25 619.105 1225.31 625.275 1223.37 631.516C1224.65 628.789 1225.93 626.051 1227.21 623.308C1229.24 617.034 1231.27 610.737 1233.3 604.464C1231.93 607.241 1230.56 610.033 1229.18 612.791ZM1238.75 581.077C1236.68 587.944 1234.62 594.83 1232.55 601.62C1234.15 598.375 1235.76 595.169 1237.36 591.898C1239.49 585.188 1241.61 578.347 1243.73 571.497C1242.07 574.692 1240.41 577.902 1238.75 581.077ZM1248.81 547.646C1246.46 555.573 1244.1 563.279 1241.75 571.144C1243.52 567.739 1245.27 564.268 1247.04 560.836C1249.39 553.262 1251.75 545.673 1254.1 538.064C1252.34 541.282 1250.57 544.451 1248.81 547.646ZM1258.34 514.743C1255.97 522.975 1253.6 531.227 1251.22 539.321C1253.13 535.837 1255.04 532.394 1256.95 528.882C1259.42 520.783 1261.88 512.549 1264.35 504.291C1262.34 507.765 1260.35 511.295 1258.34 514.743ZM1268.36 480.162C1265.77 489.212 1263.17 498.028 1260.58 507.024C1262.63 503.486 1264.67 499.917 1266.71 496.35C1269.31 487.675 1271.9 478.984 1274.49 470.241C1272.45 473.573 1270.4 476.854 1268.36 480.162ZM1277.94 445.804C1275.37 455.105 1272.79 464.443 1270.22 473.554C1272.35 470.083 1274.48 466.629 1276.61 463.131C1279.27 454.048 1281.93 444.835 1284.59 435.583C1282.38 438.996 1280.16 442.413 1277.94 445.804ZM1287.82 410.306C1285.08 420.22 1282.33 429.969 1279.59 439.862C1281.86 436.383 1284.11 432.853 1286.38 429.354C1289.13 419.753 1291.89 410.134 1294.64 400.446C1292.37 403.733 1290.1 407.037 1287.82 410.306ZM-207.259 1849.96C-205.328 1849.62 -203.398 1849.29 -201.468 1848.97C-198.961 1846.09 -196.45 1843.23 -193.934 1840.37C-195.871 1840.84 -197.808 1841.32 -199.746 1841.79C-202.254 1844.51 -204.761 1847.23 -207.259 1849.96ZM-215.876 1851.55C-213.993 1851.2 -212.114 1850.83 -210.23 1850.49C-207.827 1847.85 -205.416 1845.22 -203.003 1842.6C-204.878 1843.07 -206.754 1843.53 -208.624 1844.02C-211.043 1846.52 -213.463 1849.03 -215.876 1851.55ZM-224.431 1853.23C-222.619 1852.86 -220.809 1852.5 -218.993 1852.14C-216.696 1849.73 -214.396 1847.33 -212.089 1844.93C-213.895 1845.41 -215.701 1845.87 -217.504 1846.36C-219.816 1848.64 -222.121 1850.94 -224.431 1853.23ZM-232.925 1854.99C-231.203 1854.62 -229.475 1854.28 -227.752 1853.92C-225.573 1851.74 -223.396 1849.56 -221.211 1847.39C-222.939 1847.87 -224.666 1848.36 -226.392 1848.85C-228.572 1850.89 -230.749 1852.94 -232.925 1854.99ZM-241.443 1856.91C-239.799 1856.53 -238.15 1856.17 -236.505 1855.8C-234.439 1853.85 -232.365 1851.91 -230.296 1849.96C-231.945 1850.44 -233.589 1850.95 -235.237 1851.45C-237.308 1853.27 -239.378 1855.08 -241.443 1856.91ZM-249.777 1858.91C-248.256 1858.53 -246.738 1858.15 -245.214 1857.79C-243.323 1856.1 -241.425 1854.41 -239.528 1852.74C-241.055 1853.21 -242.581 1853.69 -244.106 1854.17C-245.999 1855.73 -247.888 1857.33 -249.777 1858.91ZM-258.007 1860.98C-256.64 1860.62 -255.272 1860.26 -253.903 1859.92C-252.228 1858.51 -250.551 1857.09 -248.874 1855.69C-250.199 1856.12 -251.525 1856.53 -252.849 1856.97C-254.568 1858.3 -256.29 1859.63 -258.007 1860.98ZM-266.051 1863.11C-264.928 1862.8 -263.802 1862.52 -262.68 1862.22C-261.24 1861.08 -259.794 1859.96 -258.349 1858.84C-259.479 1859.22 -260.612 1859.6 -261.742 1859.99C-263.18 1861.03 -264.616 1862.07 -266.051 1863.11ZM-273.86 1865.34L-271.329 1864.61C-270.256 1863.82 -269.18 1863.03 -268.104 1862.24L-270.549 1863.13L-273.86 1865.34ZM-281.238 1867.52L-280.039 1867.15L-278.363 1866.01L-279.433 1866.43L-281.238 1867.52ZM1189.77 728.573C1188.73 731.892 1187.7 735.192 1186.66 738.459L1187.99 735.278C1189.1 731.917 1190.21 728.476 1191.33 725.083C1190.81 726.257 1190.28 727.404 1189.77 728.573ZM1199.44 697.455C1197.85 702.572 1196.25 707.728 1194.66 712.843C1195.62 710.652 1196.57 708.363 1197.53 706.159C1199.24 700.892 1200.96 695.742 1202.68 690.46C1201.6 692.795 1200.52 695.132 1199.44 697.455ZM1209.1 665.905C1207.35 671.72 1205.61 677.538 1203.86 683.246C1205.07 680.61 1206.28 678.042 1207.49 675.391C1209.36 669.511 1211.23 663.495 1213.11 657.517C1211.77 660.295 1210.44 663.147 1209.1 665.905ZM1218.99 633.028C1216.91 639.948 1214.83 646.842 1212.76 653.742C1214.26 650.62 1215.75 647.481 1217.25 644.337C1219.39 637.494 1221.53 630.757 1223.68 623.898C1222.12 626.987 1220.55 629.964 1218.99 633.028ZM1228.68 600.004C1226.47 607.669 1224.25 615.369 1222.02 622.885C1223.76 619.447 1225.48 615.896 1227.21 612.429C1229.45 605.11 1231.69 597.609 1233.93 590.142C1232.18 593.442 1230.43 596.729 1228.68 600.004ZM1238.51 566.229C1236.12 574.561 1233.71 582.697 1231.31 590.957C1233.14 587.52 1234.97 584.14 1236.78 580.676C1239.28 572.385 1241.77 564.18 1244.27 555.867C1242.35 559.316 1240.43 562.806 1238.51 566.229ZM1248.18 531.91C1245.7 540.739 1243.23 549.582 1240.76 558.267C1242.79 554.626 1244.81 550.923 1246.84 547.253C1249.31 538.871 1251.78 530.251 1254.25 521.681C1252.23 525.113 1250.2 528.502 1248.18 531.91ZM1257.94 496.956C1255.36 506.321 1252.77 515.555 1250.18 524.802C1252.24 521.307 1254.31 517.862 1256.37 514.339C1259.06 505.057 1261.74 495.848 1264.43 486.528C1262.26 490.003 1260.11 493.506 1257.94 496.956ZM1267.65 461.333C1264.99 471.153 1262.33 480.945 1259.66 490.633C1261.91 487.029 1264.15 483.375 1266.39 479.744C1269.05 470.396 1271.69 460.792 1274.34 451.23C1272.11 454.606 1269.89 457.979 1267.65 461.333ZM1277.36 425.098C1274.65 435.319 1271.94 445.497 1269.22 455.555C1271.47 452.161 1273.73 448.78 1275.97 445.366C1278.77 435.305 1281.57 425.333 1284.36 415.225C1282.04 418.534 1279.7 421.811 1277.36 425.098ZM-217.293 1861.04C-215.319 1860.81 -213.347 1860.59 -211.37 1860.38C-208.824 1857.43 -206.269 1854.49 -203.715 1851.56C-205.687 1851.89 -207.659 1852.22 -209.628 1852.58C-212.185 1855.39 -214.74 1858.21 -217.293 1861.04ZM-225.847 1862.04C-223.923 1861.8 -221.998 1861.57 -220.074 1861.35C-217.602 1858.61 -215.122 1855.88 -212.642 1853.15C-214.571 1853.5 -216.502 1853.87 -218.43 1854.24C-220.905 1856.83 -223.38 1859.43 -225.847 1862.04ZM-234.351 1863.15C-232.49 1862.89 -230.629 1862.66 -228.765 1862.42C-226.373 1859.88 -223.968 1857.36 -221.563 1854.85C-223.45 1855.22 -225.335 1855.62 -227.221 1856.01C-229.599 1858.38 -231.979 1860.76 -234.351 1863.15ZM-242.82 1864.4C-241.013 1864.12 -239.203 1863.85 -237.394 1863.59C-235.114 1861.29 -232.828 1858.99 -230.541 1856.7C-232.368 1857.09 -234.191 1857.49 -236.014 1857.9C-238.287 1860.05 -240.552 1862.23 -242.82 1864.4ZM-251.259 1865.75C-249.507 1865.46 -247.759 1865.15 -246.005 1864.87C-243.86 1862.82 -241.721 1860.75 -239.574 1858.7C-241.299 1859.09 -243.025 1859.48 -244.746 1859.89C-246.92 1861.84 -249.09 1863.79 -251.259 1865.75ZM-259.608 1867.2C-257.969 1866.9 -256.331 1866.62 -254.693 1866.33C-252.658 1864.48 -250.619 1862.66 -248.58 1860.83C-250.218 1861.22 -251.855 1861.61 -253.488 1862.02C-255.53 1863.74 -257.572 1865.46 -259.608 1867.2ZM-267.821 1868.75C-266.313 1868.45 -264.804 1868.18 -263.295 1867.9C-261.433 1866.3 -259.572 1864.7 -257.703 1863.11C-259.23 1863.51 -260.753 1863.91 -262.277 1864.32C-264.127 1865.79 -265.973 1867.27 -267.821 1868.75ZM-276.057 1870.46C-274.674 1870.16 -273.292 1869.87 -271.909 1869.59C-270.223 1868.23 -268.532 1866.89 -266.847 1865.54C-268.226 1865.93 -269.603 1866.34 -270.98 1866.73C-272.672 1867.97 -274.368 1869.2 -276.057 1870.46ZM-283.966 1872.21C-282.797 1871.94 -281.634 1871.66 -280.464 1871.4C-279.07 1870.35 -277.679 1869.28 -276.283 1868.25C-277.429 1868.58 -278.572 1868.93 -279.719 1869.28C-281.137 1870.24 -282.551 1871.23 -283.966 1872.21ZM-291.672 1874.01C-290.813 1873.8 -289.95 1873.61 -289.087 1873.4C-288.016 1872.65 -286.939 1871.92 -285.865 1871.17C-286.688 1871.43 -287.512 1871.67 -288.335 1871.94C-289.447 1872.63 -290.562 1873.31 -291.672 1874.01ZM-298.869 1875.85L-297.654 1875.54L-295.992 1874.47L-297.105 1874.83C-297.692 1875.17 -298.28 1875.51 -298.869 1875.85ZM1170.01 782.442C1169.01 785.682 1168.02 788.965 1167.02 792.154C1167.53 790.898 1168.05 789.596 1168.56 788.337C1169.62 785.088 1170.68 781.742 1171.75 778.443L1170.01 782.442ZM1179.62 751.238L1175.22 765.546C1176.09 763.516 1176.96 761.556 1177.83 759.514C1179.46 754.442 1181.09 749.403 1182.72 744.315C1181.68 746.607 1180.66 748.958 1179.62 751.238ZM1189.29 719.206C1187.61 724.874 1185.93 730.575 1184.24 736.147C1185.46 733.423 1186.68 730.71 1187.9 727.969C1189.65 722.399 1191.4 716.712 1193.15 711.064C1191.87 713.801 1190.58 716.49 1189.29 719.206ZM1199.21 685.932C1197.15 692.93 1195.08 699.788 1193.01 706.745C1194.53 703.494 1196.04 700.159 1197.56 696.884C1199.64 690.14 1201.73 683.487 1203.81 676.668C1202.28 679.784 1200.74 682.839 1199.21 685.932ZM1208.76 652.953C1206.6 660.456 1204.45 667.979 1202.29 675.374C1203.92 672.031 1205.57 668.739 1207.21 665.371C1209.48 657.876 1211.75 650.295 1214.01 642.721C1212.26 646.129 1210.52 649.573 1208.76 652.953ZM1218.56 618.815C1216.22 627.054 1213.88 635.154 1211.55 643.302C1213.39 639.718 1215.24 636.145 1217.08 632.529C1219.43 624.602 1221.78 616.604 1224.14 608.549C1222.28 611.995 1220.42 615.399 1218.56 618.815ZM1228.23 584.226C1225.77 593.076 1223.3 601.907 1220.84 610.656C1222.82 606.988 1224.79 603.211 1226.76 599.511C1229.28 590.897 1231.79 582.27 1234.3 573.598C1232.28 577.159 1230.26 580.694 1228.23 584.226ZM1237.9 549.132C1235.38 558.378 1232.86 567.57 1230.34 576.677C1232.42 573.026 1234.51 569.433 1236.58 565.752C1239.14 556.812 1241.69 547.651 1244.25 538.53C1242.13 542.07 1240.02 545.621 1237.9 549.132ZM1247.65 513.13C1245 522.962 1242.35 532.701 1239.71 542.45C1241.9 538.809 1244.06 535.099 1246.24 531.428C1248.94 521.831 1251.64 512.336 1254.33 502.637C1252.11 506.149 1249.88 509.644 1247.65 513.13ZM1257.27 476.757C1254.62 486.891 1251.97 497.044 1249.32 506.987C1251.54 503.479 1253.78 500.005 1256 496.472C1258.72 486.638 1261.42 476.638 1264.13 466.637C1261.86 470.034 1259.56 473.381 1257.27 476.757ZM1267.01 439.604C1264.24 450.276 1261.47 460.737 1258.7 471.317C1261.04 467.848 1263.37 464.355 1265.71 460.862C1268.49 450.55 1271.28 440.201 1274.06 429.75C1271.72 433.044 1269.36 436.33 1267.01 439.604ZM-227.283 1872.19C-225.286 1872.09 -223.29 1872.02 -221.291 1871.95C-218.695 1868.92 -216.106 1865.87 -213.505 1862.84C-215.52 1863.06 -217.532 1863.29 -219.545 1863.52C-222.13 1866.4 -224.705 1869.29 -227.283 1872.19ZM-235.765 1872.63C-233.806 1872.52 -231.847 1872.42 -229.886 1872.32C-227.365 1869.49 -224.85 1866.65 -222.322 1863.84C-224.303 1864.07 -226.277 1864.33 -228.252 1864.59C-230.761 1867.26 -233.261 1869.95 -235.765 1872.63ZM-244.241 1873.2C-242.313 1873.06 -240.385 1872.92 -238.454 1872.79C-236.02 1870.17 -233.58 1867.57 -231.139 1864.96C-233.064 1865.22 -234.988 1865.48 -236.91 1865.75C-239.355 1868.23 -241.802 1870.71 -244.241 1873.2ZM-252.655 1873.88C-250.786 1873.72 -248.915 1873.55 -247.044 1873.4C-244.691 1870.99 -242.326 1868.6 -239.964 1866.21C-241.833 1866.48 -243.701 1866.74 -245.568 1867.04C-247.931 1869.31 -250.295 1871.59 -252.655 1873.88ZM-260.993 1874.66C-259.193 1874.47 -257.39 1874.31 -255.587 1874.15C-253.333 1871.95 -251.078 1869.75 -248.816 1867.57C-250.644 1867.87 -252.473 1868.18 -254.298 1868.49C-256.535 1870.53 -258.763 1872.6 -260.993 1874.66ZM-269.337 1875.58C-267.602 1875.38 -265.862 1875.2 -264.126 1875.01C-261.983 1873.02 -259.838 1871.04 -257.688 1869.07C-259.436 1869.38 -261.177 1869.73 -262.922 1870.06C-265.062 1871.9 -267.204 1873.72 -269.337 1875.58ZM-277.575 1876.64C-275.937 1876.42 -274.3 1876.19 -272.662 1875.99C-270.647 1874.23 -268.626 1872.49 -266.607 1870.75C-268.266 1871.07 -269.923 1871.42 -271.578 1871.75C-273.582 1873.37 -275.578 1875 -277.575 1876.64ZM-285.765 1877.8C-284.22 1877.57 -282.679 1877.32 -281.131 1877.11C-279.306 1875.6 -277.481 1874.1 -275.651 1872.61C-277.153 1872.93 -278.657 1873.23 -280.159 1873.56C-282.027 1874.98 -283.898 1876.38 -285.765 1877.8ZM-293.753 1879.05C-292.407 1878.82 -291.056 1878.62 -289.709 1878.41C-288.05 1877.13 -286.387 1875.88 -284.725 1874.62C-286.099 1874.94 -287.469 1875.25 -288.84 1875.58C-290.482 1876.72 -292.117 1877.89 -293.753 1879.05ZM-301.663 1880.45C-300.497 1880.23 -299.329 1880.04 -298.162 1879.83C-296.766 1878.83 -295.368 1877.83 -293.971 1876.84C-295.127 1877.13 -296.283 1877.42 -297.439 1877.72C-298.846 1878.63 -300.256 1879.53 -301.663 1880.45ZM-309.266 1881.92C-308.396 1881.75 -307.525 1881.57 -306.656 1881.4C-305.595 1880.7 -304.536 1879.99 -303.476 1879.3C-304.36 1879.54 -305.244 1879.8 -306.129 1880.04C-307.177 1880.65 -308.221 1881.3 -309.266 1881.92ZM-316.369 1883.39C-315.926 1883.29 -315.485 1883.18 -315.039 1883.09C-314.471 1882.74 -313.901 1882.4 -313.332 1882.06C-313.748 1882.18 -314.16 1882.32 -314.575 1882.44C-315.172 1882.75 -315.773 1883.07 -316.369 1883.39ZM1150.21 837.319C1149.27 840.37 1148.34 843.465 1147.4 846.49C1147.84 845.415 1148.27 844.391 1148.71 843.314C1149.76 840.066 1150.8 836.719 1151.85 833.427C1151.3 834.717 1150.76 836.036 1150.21 837.319ZM1159.91 805.6C1158.55 810.101 1157.19 814.485 1155.83 818.963C1156.67 816.94 1157.53 814.945 1158.38 812.913C1159.84 808.301 1161.3 803.763 1162.76 799.132C1161.81 801.279 1160.86 803.462 1159.91 805.6ZM1169.62 772.988C1167.93 778.711 1166.24 784.466 1164.54 790.129C1165.76 787.352 1166.97 784.522 1168.19 781.725C1169.9 776.217 1171.61 770.61 1173.33 765.045C1172.09 767.724 1170.86 770.326 1169.62 772.988ZM1179.41 739.77C1177.4 746.697 1175.38 753.495 1173.37 760.345C1174.83 757.143 1176.3 753.863 1177.76 750.635C1179.81 743.912 1181.86 737.214 1183.91 730.404C1182.41 733.537 1180.91 736.664 1179.41 739.77ZM1188.9 706.708C1186.81 714.029 1184.71 721.358 1182.61 728.623C1184.22 725.267 1185.83 721.978 1187.43 718.594C1189.64 711.189 1191.86 703.73 1194.08 696.279C1192.35 699.735 1190.64 703.283 1188.9 706.708ZM1198.68 672.139C1196.41 680.268 1194.14 688.36 1191.87 696.361C1193.7 692.723 1195.51 689.039 1197.33 685.367C1199.6 677.649 1201.86 669.787 1204.12 661.928C1202.31 665.377 1200.49 668.719 1198.68 672.139ZM1208.39 637.266C1205.95 646.072 1203.51 654.806 1201.07 663.556C1203 659.876 1204.93 656.154 1206.86 652.438C1209.36 643.754 1211.87 635.178 1214.37 626.418C1212.38 630.044 1210.38 633.671 1208.39 637.266ZM1217.96 602.007C1215.51 611.134 1213.06 620.294 1210.61 629.255C1212.62 625.601 1214.64 621.974 1216.65 618.289C1219.17 609.385 1221.68 600.329 1224.2 591.282C1222.12 594.873 1220.04 598.446 1217.96 602.007ZM1227.71 565.762C1225.09 575.628 1222.46 585.302 1219.84 595.063C1222 591.334 1224.15 587.501 1226.31 583.738C1228.94 574.253 1231.57 564.772 1234.2 555.163C1232.04 558.709 1229.88 562.243 1227.71 565.762ZM1237.28 529.22C1234.65 539.335 1232.02 549.425 1229.38 559.393C1231.58 555.804 1233.78 552.245 1235.97 548.625C1238.67 538.734 1241.36 528.788 1244.06 518.781C1241.81 522.282 1239.54 525.744 1237.28 529.22ZM1246.91 491.997C1244.2 502.569 1241.5 513.046 1238.79 523.47C1241.11 519.885 1243.41 516.253 1245.72 512.641C1248.45 502.432 1251.18 492.082 1253.91 481.698C1251.57 485.127 1249.25 488.592 1246.91 491.997ZM1256.56 454.018C1253.8 464.981 1251.03 475.826 1248.26 486.665C1250.63 483.214 1252.98 479.736 1255.34 476.26C1258.16 465.513 1260.98 454.874 1263.8 444.027C1261.39 447.363 1258.98 450.702 1256.56 454.018ZM-237.28 1883.45C-235.256 1883.5 -233.233 1883.55 -231.208 1883.61C-228.572 1880.49 -225.93 1877.39 -223.286 1874.29C-225.325 1874.37 -227.364 1874.46 -229.4 1874.56C-232.031 1877.51 -234.659 1880.47 -237.28 1883.45ZM-245.682 1883.34C-243.684 1883.35 -241.686 1883.35 -239.686 1883.39C-237.129 1880.48 -234.567 1877.58 -232.001 1874.7C-234 1874.8 -236.002 1874.9 -238 1875.02C-240.563 1877.79 -243.126 1880.56 -245.682 1883.34ZM-254.05 1883.33C-252.094 1883.32 -250.138 1883.31 -248.179 1883.32C-245.694 1880.61 -243.208 1877.91 -240.716 1875.22C-242.688 1875.35 -244.658 1875.48 -246.624 1875.63C-249.104 1878.18 -251.576 1880.77 -254.05 1883.33ZM-262.398 1883.43C-260.488 1883.39 -258.572 1883.38 -256.659 1883.36C-254.248 1880.85 -251.833 1878.34 -249.417 1875.85C-251.344 1876.01 -253.268 1876.19 -255.191 1876.37C-257.596 1878.71 -260 1881.06 -262.398 1883.43ZM-270.708 1883.69C-268.856 1883.63 -267 1883.57 -265.143 1883.52C-262.809 1881.2 -260.463 1878.92 -258.122 1876.63C-260.007 1876.82 -261.891 1877.02 -263.773 1877.23C-266.09 1879.37 -268.399 1881.53 -270.708 1883.69ZM-278.981 1884.08C-277.166 1883.98 -275.357 1883.87 -273.539 1883.8C-271.33 1881.71 -269.121 1879.63 -266.906 1877.57C-268.716 1877.77 -270.524 1877.98 -272.33 1878.2C-274.549 1880.15 -276.766 1882.11 -278.981 1884.08ZM-287.201 1884.58C-285.467 1884.46 -283.732 1884.34 -281.995 1884.24C-279.887 1882.36 -277.775 1880.5 -275.661 1878.64C-277.39 1878.86 -279.118 1879.08 -280.845 1879.32C-282.966 1881.06 -285.088 1882.81 -287.201 1884.58ZM-295.304 1885.19C-293.677 1885.05 -292.047 1884.94 -290.418 1884.82C-288.442 1883.16 -286.467 1881.5 -284.485 1879.86C-286.139 1880.1 -287.789 1880.36 -289.443 1880.62C-291.399 1882.13 -293.35 1883.66 -295.304 1885.19ZM-303.413 1885.98C-301.891 1885.82 -300.369 1885.68 -298.846 1885.54C-297.01 1884.09 -295.166 1882.66 -293.325 1881.23C-294.87 1881.49 -296.412 1881.78 -297.953 1882.05C-299.776 1883.35 -301.595 1884.66 -303.413 1885.98ZM-311.352 1886.89C-309.966 1886.72 -308.585 1886.54 -307.198 1886.38C-305.587 1885.2 -303.976 1884 -302.362 1882.82C-303.734 1883.08 -305.104 1883.35 -306.475 1883.62C-308.102 1884.7 -309.725 1885.79 -311.352 1886.89ZM-319.127 1887.89C-317.957 1887.73 -316.786 1887.56 -315.616 1887.4C-314.235 1886.46 -312.846 1885.55 -311.462 1884.62C-312.616 1884.86 -313.771 1885.07 -314.923 1885.32C-316.325 1886.17 -317.727 1887.03 -319.127 1887.89ZM-326.576 1888.98C-325.71 1888.84 -324.839 1888.73 -323.972 1888.6C-322.941 1887.96 -321.913 1887.3 -320.882 1886.67C-321.736 1886.86 -322.591 1887.04 -323.442 1887.24C-324.489 1887.82 -325.533 1888.4 -326.576 1888.98ZM-333.722 1890.19L-332.403 1889.96C-331.872 1889.66 -331.342 1889.34 -330.811 1889.04L-332.106 1889.37C-332.645 1889.63 -333.181 1889.92 -333.722 1890.19ZM1130.42 893.023C1129.65 895.534 1128.89 898.078 1128.12 900.589C1128.52 899.586 1128.91 898.606 1129.31 897.6C1130.16 894.94 1131.01 892.21 1131.86 889.53C1131.38 890.678 1130.9 891.878 1130.42 893.023ZM1140.41 860.024C1139.11 864.409 1137.81 868.723 1136.51 873.051C1137.31 871.092 1138.12 869.114 1138.93 867.146C1140.32 862.694 1141.72 858.381 1143.11 853.889C1142.21 855.964 1141.31 857.961 1140.41 860.024ZM1150.03 827.422C1148.3 833.267 1146.58 839.144 1144.85 844.982C1146.05 842.2 1147.24 839.291 1148.43 836.492C1150.17 830.842 1151.9 825.128 1153.64 819.457C1152.44 822.125 1151.24 824.77 1150.03 827.422ZM1159.6 794.487C1157.75 800.967 1155.9 807.459 1154.05 813.825C1155.39 810.814 1156.75 807.906 1158.1 804.873C1160.08 798.309 1162.06 791.648 1164.04 784.97C1162.56 788.128 1161.08 791.351 1159.6 794.487ZM1169.31 760.536C1167.21 767.928 1165.11 775.224 1163.01 782.576C1164.6 779.177 1166.19 775.78 1167.77 772.353C1169.92 765.08 1172.08 757.865 1174.23 750.548C1172.59 753.899 1170.95 757.213 1169.31 760.536ZM1178.91 726.107C1176.68 734.197 1174.44 742.31 1172.21 750.27C1173.99 746.618 1175.77 742.846 1177.55 739.162C1179.79 731.435 1182.03 723.563 1184.27 715.713C1182.49 719.211 1180.7 722.642 1178.91 726.107ZM1188.58 691.109C1186.2 699.808 1183.83 708.359 1181.45 716.96C1183.31 713.332 1185.17 709.8 1187.02 706.14C1189.48 697.513 1191.94 688.91 1194.4 680.174C1192.46 683.813 1190.52 687.502 1188.58 691.109ZM1198.17 655.482C1195.72 664.64 1193.26 673.78 1190.81 682.828C1192.8 679.104 1194.79 675.36 1196.79 671.599C1199.28 662.713 1201.76 653.762 1204.25 644.78C1202.23 648.387 1200.19 651.908 1198.17 655.482ZM1207.78 619.246C1205.24 628.949 1202.69 638.602 1200.14 648.156C1202.26 644.386 1204.37 640.545 1206.48 636.741C1209.05 627.392 1211.62 617.912 1214.19 608.403C1212.05 612.028 1209.92 615.652 1207.78 619.246ZM1217.43 582.329C1214.81 592.453 1212.17 602.477 1209.54 612.514C1211.71 608.843 1213.89 605.197 1216.05 601.494C1218.73 591.555 1221.42 581.705 1224.1 571.67C1221.88 575.247 1219.66 578.78 1217.43 582.329ZM1226.96 545.001C1224.31 555.471 1221.67 565.983 1219.02 576.257C1221.29 572.621 1223.54 568.922 1225.79 565.256C1228.48 555.114 1231.17 544.782 1233.85 534.462C1231.55 537.977 1229.26 541.513 1226.96 545.001ZM1236.62 506.764C1233.88 517.729 1231.13 528.511 1228.39 539.363C1230.71 535.824 1233.04 532.277 1235.36 528.712C1238.12 518.07 1240.9 507.442 1243.66 496.667C1241.32 500.049 1238.97 503.402 1236.62 506.764ZM1246.13 468.164C1243.38 479.415 1240.63 490.624 1237.87 501.696C1240.23 498.294 1242.62 494.925 1244.97 491.503C1247.78 480.537 1250.58 469.496 1253.39 458.377C1250.98 461.659 1248.55 464.899 1246.13 468.164ZM-247.244 1894.83C-245.196 1895.01 -243.152 1895.19 -241.102 1895.39C-238.444 1892.21 -235.78 1889.04 -233.111 1885.88C-235.165 1885.82 -237.216 1885.75 -239.264 1885.71C-241.927 1888.74 -244.59 1891.78 -247.244 1894.83ZM-255.569 1894.13C-253.557 1894.29 -251.54 1894.45 -249.527 1894.62C-246.923 1891.63 -244.311 1888.66 -241.697 1885.68C-243.728 1885.66 -245.755 1885.64 -247.784 1885.63C-250.382 1888.46 -252.982 1891.28 -255.569 1894.13ZM-263.832 1893.56C-261.863 1893.68 -259.889 1893.83 -257.917 1893.97C-255.378 1891.17 -252.832 1888.39 -250.282 1885.61C-252.29 1885.61 -254.293 1885.64 -256.299 1885.66C-258.814 1888.28 -261.325 1890.92 -263.832 1893.56ZM-272.117 1893.14C-270.169 1893.23 -268.219 1893.33 -266.269 1893.43C-263.82 1890.84 -261.367 1888.26 -258.908 1885.69C-260.871 1885.72 -262.835 1885.76 -264.8 1885.81C-267.242 1888.24 -269.679 1890.69 -272.117 1893.14ZM-280.396 1892.84C-278.471 1892.9 -276.549 1892.94 -274.622 1893.02C-272.255 1890.63 -269.885 1888.26 -267.515 1885.89C-269.421 1885.95 -271.331 1886 -273.236 1886.08C-275.627 1888.33 -278.016 1890.57 -280.396 1892.84ZM-288.561 1892.67C-286.711 1892.69 -284.859 1892.72 -283.006 1892.77C-280.714 1890.57 -278.415 1888.4 -276.117 1886.23C-277.994 1886.31 -279.87 1886.41 -281.744 1886.52C-284.019 1888.55 -286.289 1890.61 -288.561 1892.67ZM-296.719 1892.61C-294.925 1892.6 -293.127 1892.63 -291.332 1892.65C-289.142 1890.66 -286.955 1888.67 -284.761 1886.7C-286.572 1886.81 -288.376 1886.96 -290.182 1887.1C-292.363 1888.93 -294.545 1890.75 -296.719 1892.61ZM-304.83 1892.74C-303.117 1892.7 -301.4 1892.67 -299.681 1892.66C-297.591 1890.86 -295.492 1889.1 -293.396 1887.33C-295.151 1887.48 -296.908 1887.65 -298.663 1887.81C-300.723 1889.43 -302.776 1891.09 -304.83 1892.74ZM-312.924 1893C-311.265 1892.93 -309.605 1892.84 -307.942 1892.8C-306.016 1891.24 -304.089 1889.68 -302.159 1888.15C-303.784 1888.31 -305.413 1888.47 -307.039 1888.65C-309.002 1890.1 -310.966 1891.53 -312.924 1893ZM-320.833 1893.37C-319.317 1893.28 -317.805 1893.2 -316.289 1893.13C-314.499 1891.78 -312.706 1890.45 -310.91 1889.12C-312.445 1889.31 -313.984 1889.48 -315.518 1889.68C-317.292 1890.89 -319.059 1892.14 -320.833 1893.37ZM-328.699 1893.88C-327.327 1893.78 -325.951 1893.71 -324.576 1893.62C-322.978 1892.49 -321.375 1891.39 -319.773 1890.27C-321.146 1890.47 -322.52 1890.67 -323.892 1890.88C-325.495 1891.88 -327.1 1892.86 -328.699 1893.88ZM-336.357 1894.57C-335.191 1894.46 -334.024 1894.35 -332.856 1894.25C-331.506 1893.38 -330.162 1892.49 -328.812 1891.63C-329.993 1891.82 -331.171 1892.04 -332.35 1892.24C-333.688 1893.01 -335.023 1893.79 -336.357 1894.57ZM-343.84 1895.36C-342.936 1895.25 -342.035 1895.13 -341.13 1895.04C-340.082 1894.42 -339.033 1893.82 -337.984 1893.21C-338.901 1893.38 -339.814 1893.57 -340.726 1893.75C-341.764 1894.29 -342.803 1894.81 -343.84 1895.36ZM-350.61 1896.16C-350.181 1896.1 -349.753 1896.06 -349.323 1896.01L-347.715 1895.14C-348.123 1895.23 -348.534 1895.3 -348.94 1895.39L-350.61 1896.16ZM1111.15 947.845L1108.83 955.472L1109.84 952.882C1110.65 950.335 1111.45 947.748 1112.26 945.199C1111.89 946.094 1111.52 946.952 1111.15 947.845ZM1120.84 915.379C1119.56 919.726 1118.28 924.116 1117 928.405C1117.83 926.361 1118.66 924.241 1119.48 922.188C1120.81 917.93 1122.12 913.623 1123.44 909.302C1122.57 911.342 1121.7 913.351 1120.84 915.379ZM1130.52 882.483C1128.85 888.214 1127.18 893.797 1125.52 899.488C1126.56 897.005 1127.62 894.635 1128.66 892.137C1130.45 886.27 1132.24 880.433 1134.02 874.541C1132.85 877.182 1131.69 879.858 1130.52 882.483ZM1139.88 849.777C1138.1 856.037 1136.31 862.328 1134.53 868.522C1135.89 865.426 1137.25 862.365 1138.61 859.245C1140.47 853.005 1142.34 846.639 1144.2 840.312C1142.76 843.449 1141.32 846.664 1139.88 849.777ZM1149.69 815.176C1147.62 822.567 1145.56 829.854 1143.49 837.15C1145.06 833.719 1146.63 830.209 1148.2 826.746C1150.28 819.628 1152.37 812.566 1154.46 805.366C1152.87 808.68 1151.27 811.885 1149.69 815.176ZM1159.26 780.643C1157.02 788.726 1154.79 796.803 1152.56 804.822C1154.28 801.204 1156.01 797.54 1157.73 793.888C1160.01 785.994 1162.27 778.03 1164.54 770.068C1162.78 773.606 1161.02 777.135 1159.26 780.643ZM1168.74 745.807C1166.48 754.227 1164.22 762.642 1161.95 770.916C1163.78 767.246 1165.62 763.636 1167.44 759.932C1169.8 751.607 1172.15 743.15 1174.49 734.678C1172.57 738.367 1170.67 742.151 1168.74 745.807ZM1178.5 709.508C1176.04 718.766 1173.57 727.861 1171.1 737.035C1173.08 733.241 1175.05 729.373 1177.03 725.543C1179.5 716.602 1181.99 707.75 1184.46 698.728C1182.48 702.366 1180.49 705.903 1178.5 709.508ZM1187.96 673.362C1185.48 682.924 1182.99 692.504 1180.51 701.905C1182.56 698.145 1184.62 694.392 1186.67 690.596C1189.21 681.268 1191.75 671.767 1194.29 662.281C1192.18 665.977 1190.08 669.702 1187.96 673.362ZM1197.59 636.21C1195 646.304 1192.42 656.265 1189.83 666.227C1191.97 662.484 1194.12 658.738 1196.26 654.96C1198.87 645.184 1201.49 635.392 1204.1 625.481C1201.94 629.091 1199.76 632.631 1197.59 636.21ZM1207.12 598.665C1204.48 609.155 1201.83 619.596 1199.18 629.952C1201.41 626.248 1203.63 622.492 1205.86 618.754C1208.55 608.526 1211.23 598.243 1213.92 587.895C1211.66 591.488 1209.4 595.1 1207.12 598.665ZM1216.67 560.391C1213.99 571.231 1211.31 582.049 1208.63 592.713C1210.93 589.095 1213.22 585.474 1215.51 581.823C1218.21 571.364 1220.91 560.727 1223.61 550.082C1221.3 553.548 1218.98 556.95 1216.67 560.391ZM1226.26 521.508C1223.5 532.787 1220.74 543.893 1217.98 555.057C1220.33 551.547 1222.68 548.046 1225.02 544.506C1227.82 533.457 1230.63 522.508 1233.43 511.334C1231.04 514.735 1228.65 518.131 1226.26 521.508ZM1235.7 482.197C1232.95 493.74 1230.19 505.31 1227.44 516.628C1229.87 513.201 1232.26 509.718 1234.68 506.268C1237.46 495.095 1240.25 483.724 1243.04 472.344C1240.59 475.633 1238.15 478.927 1235.7 482.197ZM-257.154 1906.3C-255.105 1906.63 -253.053 1906.97 -251.002 1907.32C-248.318 1904.07 -245.636 1900.81 -242.946 1897.58C-245.023 1897.38 -247.096 1897.21 -249.171 1897.03C-251.838 1900.1 -254.492 1903.21 -257.154 1906.3ZM-265.394 1905.05C-263.371 1905.34 -261.342 1905.66 -259.315 1905.98C-256.691 1902.92 -254.071 1899.86 -251.44 1896.82C-253.486 1896.65 -255.531 1896.51 -257.573 1896.36C-260.182 1899.25 -262.791 1902.14 -265.394 1905.05ZM-273.64 1903.95C-271.63 1904.2 -269.621 1904.47 -267.611 1904.75C-265.052 1901.88 -262.486 1899.04 -259.918 1896.2C-261.933 1896.06 -263.947 1895.92 -265.958 1895.81C-268.522 1898.51 -271.085 1901.22 -273.64 1903.95ZM-281.812 1902.97C-279.839 1903.19 -277.869 1903.4 -275.894 1903.65C-273.4 1900.98 -270.9 1898.33 -268.398 1895.68C-270.386 1895.58 -272.374 1895.47 -274.356 1895.39C-276.847 1897.9 -279.329 1900.43 -281.812 1902.97ZM-289.983 1902.1C-288.042 1902.29 -286.102 1902.5 -284.158 1902.71C-281.739 1900.23 -279.323 1897.75 -276.898 1895.3C-278.851 1895.23 -280.806 1895.17 -282.757 1895.12C-285.168 1897.44 -287.578 1899.76 -289.983 1902.1ZM-298.097 1901.37C-296.213 1901.53 -294.327 1901.71 -292.438 1901.88C-290.085 1899.59 -287.726 1897.32 -285.363 1895.05C-287.287 1895.01 -289.207 1895.01 -291.126 1894.99C-293.452 1897.11 -295.778 1899.23 -298.097 1901.37ZM-306.21 1900.82C-304.36 1900.94 -302.506 1901.06 -300.653 1901.19C-298.403 1899.11 -296.154 1897.03 -293.898 1894.97C-295.763 1894.97 -297.627 1894.97 -299.491 1894.99C-301.734 1896.92 -303.972 1898.87 -306.21 1900.82ZM-314.284 1900.4C-312.483 1900.48 -310.688 1900.54 -308.884 1900.64C-306.736 1898.76 -304.579 1896.9 -302.425 1895.04C-304.217 1895.07 -306.014 1895.08 -307.803 1895.13C-309.966 1896.87 -312.128 1898.63 -314.284 1900.4ZM-322.273 1900.11C-320.555 1900.15 -318.835 1900.21 -317.117 1900.28C-315.079 1898.59 -313.041 1896.91 -310.997 1895.25C-312.726 1895.31 -314.448 1895.37 -316.171 1895.46C-318.208 1897 -320.241 1898.55 -322.273 1900.11ZM-330.192 1899.97C-328.585 1899.98 -326.973 1900.02 -325.361 1900.05C-323.429 1898.56 -321.49 1897.09 -319.553 1895.62C-321.209 1895.71 -322.864 1895.83 -324.521 1895.94C-326.414 1897.27 -328.303 1898.61 -330.192 1899.97ZM-338.092 1900.01C-336.568 1899.99 -335.043 1899.98 -333.516 1899.98C-331.762 1898.71 -330.012 1897.43 -328.254 1896.18C-329.779 1896.29 -331.3 1896.44 -332.821 1896.57C-334.58 1897.72 -336.337 1898.85 -338.092 1900.01ZM-345.825 1900.19C-344.454 1900.15 -343.082 1900.08 -341.707 1900.05C-340.138 1899 -338.563 1897.98 -336.988 1896.95C-338.381 1897.08 -339.776 1897.22 -341.169 1897.37C-342.725 1898.29 -344.274 1899.25 -345.825 1900.19ZM-353.42 1900.5C-352.24 1900.43 -351.057 1900.38 -349.875 1900.33C-348.557 1899.53 -347.24 1898.73 -345.922 1897.92C-347.076 1898.06 -348.23 1898.18 -349.382 1898.33C-350.728 1899.06 -352.077 1899.76 -353.42 1900.5ZM-360.666 1900.95C-359.8 1900.89 -358.933 1900.84 -358.066 1900.79C-357.095 1900.24 -356.126 1899.68 -355.152 1899.14C-356.018 1899.27 -356.883 1899.39 -357.745 1899.52C-358.72 1899.99 -359.692 1900.48 -360.666 1900.95ZM-367.687 1901.54L-366.276 1901.41C-365.753 1901.15 -365.228 1900.9 -364.702 1900.64L-366.097 1900.88C-366.626 1901.11 -367.157 1901.32 -367.687 1901.54ZM1091.98 1003.14C1091.14 1005.97 1090.3 1008.68 1089.46 1011.48L1090.11 1009.78L1092.89 1000.91L1091.98 1003.14ZM1101.33 971.336C1100.05 975.682 1098.77 980.074 1097.49 984.415C1098.23 982.546 1098.98 980.72 1099.73 978.843C1101.08 974.43 1102.43 969.915 1103.79 965.455C1102.97 967.412 1102.15 969.39 1101.33 971.336ZM1110.82 938.747C1109.34 943.91 1107.87 949.053 1106.39 954.132C1107.41 951.688 1108.42 949.301 1109.44 946.841C1111.1 941.338 1112.75 935.927 1114.41 930.362C1113.21 933.127 1112.02 936.002 1110.82 938.747ZM1120.5 904.791C1118.69 911.17 1116.87 917.532 1115.05 923.895C1116.39 920.791 1117.73 917.652 1119.07 914.525C1120.87 908.436 1122.67 902.281 1124.47 896.171C1123.15 899.097 1121.82 901.885 1120.5 904.791ZM1130.07 870.547C1128.05 877.861 1126.04 885.21 1124.02 892.393C1125.59 888.901 1127.15 885.25 1128.72 881.73C1130.73 874.779 1132.75 867.694 1134.76 860.614C1133.2 863.952 1131.64 867.238 1130.07 870.547ZM1139.69 835.747C1137.51 843.755 1135.32 851.581 1133.13 859.511C1134.77 856.004 1136.42 852.613 1138.06 849.075C1140.35 841.026 1142.64 833.077 1144.94 824.957C1143.19 828.544 1141.44 832.192 1139.69 835.747ZM1149.15 800.586C1146.89 809.025 1144.63 817.47 1142.37 825.798C1144.19 822.061 1146.01 818.319 1147.84 814.548C1150.12 806.37 1152.41 798.055 1154.7 789.756C1152.85 793.392 1151 796.986 1149.15 800.586ZM1158.77 764.412C1156.35 773.605 1153.94 782.719 1151.52 791.777C1153.48 787.927 1155.43 783.932 1157.39 780.043C1159.81 771.225 1162.23 762.374 1164.66 753.427C1162.7 757.123 1160.73 760.752 1158.77 764.412ZM1168.28 728.012C1165.8 737.53 1163.33 746.997 1160.85 756.431C1162.85 752.672 1164.87 749.01 1166.86 745.217C1169.42 735.758 1171.97 726.259 1174.52 716.71C1172.44 720.465 1170.37 724.291 1168.28 728.012ZM1177.81 690.74C1175.29 700.701 1172.77 710.696 1170.25 720.476C1172.37 716.669 1174.48 712.819 1176.6 708.974C1179.14 699.42 1181.67 689.662 1184.2 679.929C1182.08 683.581 1179.94 687.121 1177.81 690.74ZM1187.39 652.919C1184.76 663.43 1182.12 673.747 1179.49 684.139C1181.68 680.39 1183.87 676.623 1186.05 672.835C1188.73 662.559 1191.41 652.35 1194.09 641.95C1191.86 645.608 1189.63 649.293 1187.39 652.919ZM1196.85 614.588C1194.21 625.375 1191.56 636.164 1188.91 646.781C1191.17 643.099 1193.43 639.408 1195.68 635.694C1198.35 625.266 1201.02 614.679 1203.69 604.087C1201.42 607.625 1199.13 611.078 1196.85 614.588ZM1206.34 575.714C1203.64 586.885 1200.94 597.978 1198.24 608.987C1200.56 605.39 1202.88 601.783 1205.19 598.156C1207.94 587.261 1210.68 576.272 1213.42 565.21C1211.06 568.705 1208.71 572.245 1206.34 575.714ZM1215.86 536.038C1213.11 547.596 1210.35 559.072 1207.59 570.488C1209.98 566.974 1212.36 563.416 1214.74 559.876C1217.53 548.607 1220.32 537.31 1223.11 525.909C1220.7 529.291 1218.28 532.675 1215.86 536.038ZM1225.29 495.934C1222.54 507.749 1219.78 519.592 1217.03 531.193C1219.46 527.801 1221.89 524.413 1224.32 520.998C1227.1 509.558 1229.89 497.856 1232.68 486.186C1230.22 489.443 1227.76 492.694 1225.29 495.934ZM1213.94 535.511C1216.73 523.764 1219.53 511.808 1222.32 499.859C993.324 799.652 722.474 1023.48 451.939 1247.06C287.657 1382.82 123.496 1518.5 -31.091 1671.03C106.761 1543.98 251.938 1431.22 397.964 1317.8C682.819 1096.55 970.889 872.778 1213.94 535.511ZM1204.42 575.172C1207.21 563.665 1209.99 552.031 1212.77 540.357C970.096 875.795 682.895 1098.85 398.902 1319.43C244.929 1439.02 91.9084 1557.89 -52.5545 1693.54C77.8188 1579.72 214.898 1480.36 353.295 1380.06C648.573 1166.07 949.828 947.763 1204.42 575.172ZM1118.72 903.991C1120.88 896.334 1123.05 888.627 1125.21 880.848C810.665 1539.68 458.474 1630.77 127.674 1716.21C32.2934 1740.85 -61.2991 1765.04 -151.691 1802.29M-267.067 1917.9C-265.015 1918.37 -262.959 1918.86 -260.903 1919.35C-258.198 1916.04 -255.482 1912.74 -252.765 1909.45C-254.845 1909.11 -256.923 1908.77 -258.999 1908.45C-261.693 1911.59 -264.384 1914.74 -267.067 1917.9ZM-275.226 1916.12C-273.184 1916.55 -271.145 1916.98 -269.101 1917.44C-266.459 1914.32 -263.812 1911.22 -261.159 1908.12C-263.215 1907.81 -265.271 1907.49 -267.324 1907.2C-269.964 1910.16 -272.595 1913.14 -275.226 1916.12ZM-283.368 1914.45C-281.347 1914.85 -279.327 1915.25 -277.302 1915.67C-274.721 1912.75 -272.142 1909.81 -269.554 1906.9C-271.581 1906.63 -273.608 1906.35 -275.63 1906.1C-278.212 1908.87 -280.793 1911.65 -283.368 1914.45ZM-291.473 1912.9C-289.489 1913.26 -287.502 1913.65 -285.512 1914.03C-282.979 1911.28 -280.438 1908.54 -277.897 1905.81C-279.91 1905.57 -281.92 1905.36 -283.931 1905.14C-286.45 1907.71 -288.964 1910.3 -291.473 1912.9ZM-299.545 1911.5C-297.593 1911.82 -295.638 1912.17 -293.68 1912.52C-291.216 1909.96 -288.748 1907.41 -286.274 1904.87C-288.269 1904.67 -290.26 1904.48 -292.252 1904.3C-294.687 1906.68 -297.115 1909.1 -299.545 1911.5ZM-307.648 1910.25C-305.708 1910.54 -303.77 1910.83 -301.825 1911.14C-299.448 1908.78 -297.073 1906.41 -294.69 1904.07C-296.621 1903.91 -298.555 1903.74 -300.482 1903.59C-302.874 1905.8 -305.265 1908.01 -307.648 1910.25ZM-315.644 1909.15C-313.758 1909.4 -311.877 1909.63 -309.991 1909.9C-307.683 1907.72 -305.367 1905.57 -303.051 1903.42C-304.955 1903.29 -306.859 1903.14 -308.762 1903.03C-311.059 1905.06 -313.352 1907.11 -315.644 1909.15ZM-323.667 1908.17C-321.821 1908.38 -319.973 1908.61 -318.122 1908.83C-315.905 1906.85 -313.693 1904.86 -311.47 1902.9C-313.319 1902.81 -315.166 1902.73 -317.011 1902.66C-319.233 1904.49 -321.456 1906.31 -323.667 1908.17ZM-331.568 1907.36C-329.807 1907.53 -328.04 1907.72 -326.277 1907.91C-324.137 1906.1 -321.989 1904.31 -319.841 1902.53C-321.666 1902.48 -323.486 1902.46 -325.309 1902.43C-327.399 1904.05 -329.481 1905.72 -331.568 1907.36ZM-339.527 1906.73C-337.804 1906.85 -336.083 1906.98 -334.358 1907.13C-332.351 1905.53 -330.343 1903.94 -328.331 1902.37C-330.051 1902.35 -331.769 1902.34 -333.488 1902.34C-335.501 1903.8 -337.516 1905.25 -339.527 1906.73ZM-347.341 1906.25C-345.71 1906.33 -344.082 1906.4 -342.449 1906.51C-340.575 1905.11 -338.701 1903.73 -336.824 1902.37C-338.449 1902.38 -340.075 1902.38 -341.7 1902.41C-343.582 1903.67 -345.461 1904.96 -347.341 1906.25ZM-355.091 1905.9C-353.59 1905.95 -352.085 1906.02 -350.581 1906.09C-348.846 1904.89 -347.103 1903.72 -345.362 1902.53C-346.884 1902.58 -348.408 1902.63 -349.928 1902.69C-351.652 1903.75 -353.372 1904.82 -355.091 1905.9ZM-362.728 1905.74C-361.371 1905.75 -360.008 1905.8 -358.65 1905.83C-357.117 1904.85 -355.588 1903.85 -354.05 1902.89C-355.417 1902.97 -356.779 1903.06 -358.143 1903.15C-359.672 1904.01 -361.202 1904.86 -362.728 1905.74ZM-370.215 1905.76C-369.065 1905.74 -367.912 1905.73 -366.759 1905.73C-365.428 1904.95 -364.093 1904.2 -362.757 1903.44C-363.981 1903.54 -365.199 1903.67 -366.419 1903.78C-367.688 1904.42 -368.95 1905.1 -370.215 1905.76ZM-377.483 1905.9C-376.565 1905.87 -375.648 1905.82 -374.731 1905.79C-373.755 1905.28 -372.778 1904.78 -371.806 1904.27C-372.692 1904.36 -373.58 1904.46 -374.469 1904.56C-375.472 1905.01 -376.48 1905.44 -377.483 1905.9ZM-384.119 1906.15C-383.689 1906.13 -383.257 1906.12 -382.829 1906.1C-382.337 1905.87 -381.845 1905.63 -381.353 1905.4C-381.775 1905.45 -382.198 1905.5 -382.619 1905.55L-384.119 1906.15ZM1242.33 445.723C1239.82 448.867 1237.32 452.02 1234.8 455.15C1231.98 467.404 1229.16 479.385 1226.34 491.462C1228.81 488.201 1231.3 484.946 1233.76 481.662C1236.62 469.707 1239.47 457.839 1242.33 445.723ZM1252.71 432.669C1250.23 435.81 1247.74 438.942 1245.25 442.071C1242.43 454.043 1239.61 465.806 1236.79 477.634C1239.27 474.321 1241.73 470.975 1244.2 467.645C1247.03 456.035 1249.87 444.425 1252.71 432.669ZM1263.1 419.427C1260.64 422.586 1258.16 425.729 1255.69 428.872C1252.89 440.479 1250.09 452.006 1247.29 463.463C1249.74 460.148 1252.19 456.834 1254.63 453.499C1257.45 442.248 1260.28 430.835 1263.1 419.427ZM1273.5 405.989C1271.04 409.186 1268.59 412.396 1266.12 415.579C1263.35 426.782 1260.58 438.064 1257.81 449.113C1260.23 445.779 1262.66 442.442 1265.07 439.087C1267.89 428.198 1270.69 417.04 1273.5 405.989ZM1283.92 392.409C1281.48 395.607 1279.04 398.793 1276.59 401.978C1273.81 412.923 1271.04 423.914 1268.26 434.695C1270.66 431.349 1273.04 427.959 1275.43 424.596C1278.26 413.941 1281.09 403.231 1283.92 392.409ZM1294.23 378.77C1291.86 381.919 1289.48 385.055 1287.1 388.193C1284.31 398.888 1281.52 409.402 1278.72 419.941C1281.1 416.578 1283.49 413.226 1285.86 409.844C1288.65 399.644 1291.44 389.136 1294.23 378.77ZM1304.63 364.802C1302.25 368.027 1299.86 371.266 1297.46 374.477C1294.76 384.552 1292.06 394.879 1289.35 404.806C1291.65 401.494 1293.95 398.172 1296.25 394.842C1299.05 384.937 1301.84 374.863 1304.63 364.802ZM1315.02 350.716C1312.67 353.929 1310.31 357.131 1307.95 360.33C1305.24 370.127 1302.53 380.055 1299.81 389.701C1302.1 386.368 1304.36 382.999 1306.64 379.645C1309.44 370.067 1312.23 360.443 1315.02 350.716ZM1325.41 336.425C1323.1 339.634 1320.77 342.825 1318.44 346.019C1315.74 355.448 1313.04 364.893 1310.34 374.18C1312.56 370.89 1314.79 367.624 1317 364.318C1319.81 355.042 1322.62 345.84 1325.41 336.425ZM1335.81 321.878C1333.52 325.105 1331.23 328.336 1328.93 331.547C1326.25 340.593 1323.56 349.546 1320.87 358.458C1323.07 355.155 1325.26 351.84 1327.44 348.517C1330.23 339.622 1333.03 330.9 1335.81 321.878ZM1346.05 307.399C1343.85 310.537 1341.65 313.673 1339.43 316.798C1336.77 325.466 1334.1 333.95 1331.42 342.494C1333.58 339.192 1335.72 335.848 1337.87 332.531C1340.6 324.155 1343.33 315.878 1346.05 307.399ZM1356.24 292.808C1354.16 295.818 1352.05 298.801 1349.96 301.797C1347.34 309.988 1344.71 317.917 1342.08 326C1344.14 322.798 1346.21 319.622 1348.26 316.404C1350.92 308.573 1353.58 300.736 1356.24 292.808ZM1366.44 277.9C1364.42 280.869 1362.39 283.839 1360.36 286.796C1357.84 294.357 1355.31 301.73 1352.78 309.216C1354.78 306.049 1356.78 302.876 1358.77 299.692C1361.34 292.488 1363.89 285.191 1366.44 277.9ZM1376.56 262.93C1374.63 265.813 1372.7 268.707 1370.76 271.58C1368.36 278.474 1365.95 285.276 1363.54 292.104C1365.46 288.999 1367.37 285.847 1369.29 282.727C1371.73 276.205 1374.14 269.53 1376.56 262.93ZM1386.56 247.967C1384.78 250.65 1382.99 253.308 1381.21 255.981C1378.98 262.085 1376.75 268.17 1374.51 274.215C1376.23 271.398 1377.95 268.589 1379.66 265.758C1381.97 259.886 1384.26 253.9 1386.56 247.967ZM1396.53 232.719C1394.91 235.205 1393.29 237.684 1391.66 240.163C1389.67 245.331 1387.69 250.54 1385.7 255.665C1387.14 253.251 1388.59 250.844 1390.02 248.42C1392.2 243.197 1394.37 237.99 1396.53 232.719ZM1406.08 217.916C1404.76 219.986 1403.44 222.064 1402.11 224.128C1400.48 228.143 1398.86 232.23 1397.22 236.216C1398.29 234.389 1399.35 232.547 1400.42 230.714C1402.31 226.444 1404.2 222.217 1406.08 217.916ZM1414.74 204.361C1414.05 205.467 1413.34 206.562 1412.64 207.664C1411.54 210.212 1410.44 212.807 1409.34 215.339C1409.84 214.476 1410.32 213.6 1410.82 212.735L1414.74 204.361ZM-242.305 1911.28C-245.113 1914.8 -247.915 1918.33 -250.711 1921.87C-184.533 1938.8 -116.803 1966.85 -47.7812 1995.45C86.5142 2051.1 225.714 2108.79 367.639 2090.04C575.701 2062.56 789.997 1870.57 1004.25 1267.07C789.795 1838.65 573.706 2017.35 363.408 2044.34C227.985 2061.72 95.0909 2016.14 -33.4257 1972.06C-104.507 1947.69 -174.246 1923.78 -242.305 1911.28ZM-232.274 1898.71C-235.06 1902.18 -237.831 1905.67 -240.608 1909.15C-172.684 1921.75 -103.108 1945.59 -32.1987 1969.91C96.1264 2013.93 228.829 2059.44 363.819 2042.11C580.208 2014.35 802.819 1824.85 1023.64 1208.64C801.647 1794.44 576.119 1970.23 356.487 1997.53C229.176 2013.35 103.957 1979.23 -17.4434 1946.16C-90.575 1926.23 -162.319 1906.69 -232.274 1898.71ZM-222.21 1886.28C-224.981 1889.69 -227.747 1893.1 -230.506 1896.52C-160.739 1904.62 -89.2114 1924.11 -16.3107 1943.97C104.931 1977 229.981 2011.08 356.914 1995.3C582.928 1967.21 815.282 1780.85 1043.76 1148.79C812.835 1752.48 576.068 1924.45 345.489 1952.1C227.739 1966.22 111.706 1942.68 -1.11217 1919.78C-76.4086 1904.51 -150.263 1889.54 -222.21 1886.28ZM-212.142 1873.94C-214.896 1877.3 -217.647 1880.66 -220.391 1884.04C-148.681 1887.44 -75.0926 1902.36 -0.0814396 1917.58C112.605 1940.44 228.501 1963.95 345.919 1949.88C581.975 1921.57 824.599 1741.26 1060.94 1097.67L1061.87 1094.68C821.027 1715.19 571.572 1880.52 328.837 1908.47C222.673 1920.69 117.855 1906.62 15.6094 1892.9C-61.9802 1882.48 -138.082 1872.28 -212.142 1873.94ZM-202.096 1861.73C-204.818 1865.02 -207.53 1868.33 -210.246 1871.64C-136.479 1870.15 -60.7114 1880.31 16.5246 1890.67C118.656 1904.39 223.355 1918.44 329.281 1906.24C574.8 1877.97 827.273 1708.37 1070.88 1065.86C1071.8 1062.91 1072.71 1060.06 1073.63 1057.09C822.286 1685.98 559.21 1839.2 303.767 1867.29C212.117 1877.37 121.5 1871.34 32.7628 1865.44C-47.2753 1860.11 -125.781 1854.9 -202.096 1861.73ZM-192.011 1849.64C-194.705 1852.86 -197.399 1856.08 -200.083 1859.31C-124.132 1852.71 -46.0378 1857.9 33.5707 1863.2C122.226 1869.1 212.757 1875.12 304.224 1865.06C561.671 1836.75 826.945 1680.82 1080.24 1035.31C1081.57 1030.94 1082.9 1026.53 1084.23 1022.15C747.797 1837.01 386.112 1837.23 50.4283 1837.32C-32.2238 1837.35 -113.294 1837.39 -192.011 1849.64ZM-181.925 1837.63C-184.586 1840.78 -187.243 1843.94 -189.896 1847.11C-111.614 1835.14 -31.0345 1835.1 51.1052 1835.08C388.543 1834.99 752.316 1834.69 1090.32 1001.99C1091.74 997.225 1093.17 992.324 1094.59 987.473C763.411 1762.55 403.536 1786.3 68.6552 1808.46C-16.8026 1814.11 -100.628 1819.67 -181.925 1837.63ZM-171.87 1825.76C-174.473 1828.82 -177.071 1831.89 -179.668 1834.96C-98.8928 1817.36 -15.6501 1811.84 69.1994 1806.23C405.562 1783.97 767.188 1759.87 1099.62 970.339C1101.47 964.026 1103.32 957.825 1105.17 951.461C779.29 1687.92 421.46 1734.96 87.5304 1778.75C-0.971004 1790.35 -87.7827 1801.76 -171.87 1825.76ZM-161.763 1813.97C-164.319 1816.93 -166.876 1819.9 -169.422 1822.88C-85.9555 1799.33 0.168357 1788.03 87.9432 1776.52C423.035 1732.58 782.248 1685.47 1109.06 937.891C1111.11 930.762 1113.16 923.525 1115.21 916.313C794.908 1613.64 439.694 1683.15 107.167 1748.05C15.3822 1765.97 -74.6651 1783.56 -161.763 1813.97ZM-141.593 1790.7C-143.975 1793.43 -146.352 1796.15 -148.73 1798.89C-59.2049 1762.35 33.4262 1738.42 127.797 1714.04C459.622 1628.34 813.004 1536.87 1128.25 869.832C1130.53 861.625 1132.81 853.402 1135.09 845.136C826.527 1465.97 477.877 1577.72 149.204 1683.04C49.8871 1714.87 -47.5988 1746.12 -141.593 1790.7ZM-131.486 1779.2C-133.779 1781.79 -136.073 1784.38 -138.356 1786.99C-45.3528 1743.27 51.0243 1712.37 149.19 1680.92C478.858 1575.28 828.657 1463.11 1137.85 835.105C1140.22 826.402 1142.6 817.495 1144.97 808.624C842.638 1392.23 498.073 1523.85 171.95 1648.3C68.2815 1687.86 -33.5145 1726.73 -131.486 1779.2ZM-121.416 1767.81C-123.537 1770.2 -125.646 1772.6 -127.762 1774.99C-30.9651 1723.6 69.5093 1685.25 171.799 1646.22C498.829 1521.42 844.436 1389.48 1147.3 799.943C1149.81 790.584 1152.31 781.262 1154.82 771.783C859.04 1318.77 519.208 1468.97 196.152 1611.69C87.6254 1659.63 -19.0007 1706.74 -121.416 1767.81ZM-111.282 1756.5C-113.24 1758.68 -115.2 1760.86 -117.156 1763.05C-16.1165 1703.33 88.9556 1656.89 195.869 1609.66C519.809 1466.55 860.638 1315.89 1156.9 763.81C1159.43 754.185 1161.96 744.455 1164.49 734.704C875.697 1245.45 541.427 1412.88 222.114 1572.81C108.153 1629.89 -3.89648 1686.02 -111.282 1756.5ZM-101.17 1745.27C-102.898 1747.18 -104.628 1749.08 -106.352 1750.99C-0.580079 1682.18 109.641 1626.97 221.708 1570.84C541.893 1410.48 877.144 1242.58 1166.39 727.457C1169.01 717.331 1171.63 707.071 1174.25 696.773C892.902 1171.97 565.087 1355.23 250.249 1531.17C130.11 1598.3 11.8662 1664.39 -101.17 1745.27ZM-91.0755 1734.14C-92.4628 1735.66 -93.8426 1737.19 -95.2286 1738.72C15.8626 1659.96 131.878 1595.12 249.716 1529.27C565.412 1352.86 894.164 1169.08 1175.92 690.178C1178.59 679.663 1181.27 669.185 1183.94 658.559C910.704 1098.59 590.482 1295.67 281.092 1486.11C153.857 1564.42 28.459 1641.62 -91.0755 1734.14ZM-80.8714 1723.01L-83.7566 1726.15C33.3937 1636.36 156.043 1560.85 280.448 1484.27C590.703 1293.3 911.852 1095.59 1185.49 652.389C1188.18 641.622 1190.87 630.611 1193.56 619.644C929.27 1024.79 618.087 1233.63 315.375 1436.72C179.935 1527.59 46.1938 1617.31 -80.8714 1723.01ZM-70.789 1712.06L-71.5813 1712.91C52.4989 1610.83 182.757 1523.42 314.625 1434.95C618.189 1231.29 930.276 1021.84 1194.94 614.044C1197.7 602.835 1200.45 591.6 1203.21 580.24C948.958 950.643 648.587 1168.37 354.142 1381.76C208.97 1486.97 65.2392 1591.13 -70.789 1712.06ZM516.917 1160.42C338.532 1316.19 158.845 1473.09 -9.72855 1647.53C138.292 1503.86 294.552 1374.71 450.921 1245.49C722.306 1021.21 993.998 796.651 1223.37 495.388C1226.22 483.195 1229.08 471.083 1231.93 458.694C1019.69 721.411 769.613 939.78 516.917 1160.42ZM-102.284 1743.74L-99.5876 1740.77L-100.753 1741.68C-101.748 1742.72 -102.75 1743.75 -103.744 1744.79L-102.284 1743.74ZM-112.359 1754.93C-111.001 1753.42 -109.649 1751.89 -108.289 1750.38C-109.102 1750.97 -109.919 1751.55 -110.729 1752.13L-115.045 1756.69L-112.359 1754.93ZM-122.424 1766.17C-120.719 1764.25 -119.006 1762.35 -117.299 1760.44C-118.492 1761.23 -119.678 1762.03 -120.868 1762.83C-122.585 1764.65 -124.291 1766.49 -126.005 1768.32C-124.81 1767.6 -123.619 1766.88 -122.424 1766.17ZM-132.451 1777.51L-126.697 1770.99L-130.842 1773.49C-132.813 1775.6 -134.788 1777.7 -136.755 1779.82C-135.321 1779.05 -133.888 1778.27 -132.451 1777.51ZM-142.516 1788.94C-140.411 1786.54 -138.301 1784.13 -136.19 1781.74C-137.736 1782.57 -139.283 1783.4 -140.826 1784.24C-142.961 1786.56 -145.1 1788.87 -147.232 1791.19C-145.662 1790.44 -144.089 1789.69 -142.516 1788.94ZM-152.563 1800.47C-150.304 1797.87 -148.037 1795.28 -145.775 1792.68C-147.484 1793.5 -149.189 1794.34 -150.896 1795.17C-153.153 1797.63 -155.402 1800.12 -157.654 1802.59C-155.958 1801.89 -154.262 1801.17 -152.563 1800.47ZM-162.581 1812.08C-160.232 1809.35 -157.893 1806.61 -155.539 1803.88C-157.301 1804.62 -159.071 1805.34 -160.831 1806.09C-163.224 1808.72 -165.619 1811.35 -168.003 1814C-166.197 1813.35 -164.391 1812.71 -162.581 1812.08ZM-172.647 1823.81C-170.184 1820.92 -167.714 1818.05 -165.241 1815.18C-167.123 1815.84 -168.996 1816.53 -170.874 1817.21C-173.327 1819.94 -175.777 1822.68 -178.223 1825.42C-176.365 1824.88 -174.505 1824.34 -172.647 1823.81ZM-182.634 1835.6C-180.118 1832.63 -177.601 1829.65 -175.08 1826.68C-177.009 1827.24 -178.934 1827.79 -180.859 1828.36C-183.387 1831.21 -185.905 1834.07 -188.428 1836.93C-186.498 1836.48 -184.567 1836.03 -182.634 1835.6ZM-192.668 1847.54C-190.087 1844.45 -187.505 1841.37 -184.917 1838.3C-186.892 1838.74 -188.865 1839.2 -190.837 1839.66C-193.424 1842.59 -196.01 1845.52 -198.584 1848.47C-196.615 1848.15 -194.641 1847.85 -192.668 1847.54ZM-202.692 1859.55C-200.063 1856.38 -197.423 1853.23 -194.782 1850.07C-196.798 1850.39 -198.817 1850.72 -200.833 1851.06C-203.457 1854.08 -206.081 1857.1 -208.696 1860.13C-206.695 1859.93 -204.695 1859.73 -202.692 1859.55ZM-212.679 1871.68C-210.021 1868.45 -207.361 1865.21 -204.696 1861.98C-206.737 1862.17 -208.774 1862.36 -210.813 1862.56C-213.471 1865.65 -216.126 1868.76 -218.781 1871.86C-216.748 1871.8 -214.715 1871.73 -212.679 1871.68ZM-222.694 1883.94C-219.993 1880.61 -217.287 1877.3 -214.575 1873.99C-216.646 1874.04 -218.71 1874.12 -220.775 1874.2C-223.468 1877.35 -226.158 1880.5 -228.84 1883.67C-226.793 1883.75 -224.742 1883.85 -222.694 1883.94ZM-232.693 1896.28C-229.972 1892.91 -227.242 1889.54 -224.51 1886.18C-226.591 1886.09 -228.668 1886.01 -230.746 1885.94C-233.461 1889.16 -236.173 1892.39 -238.881 1895.62C-236.818 1895.84 -234.757 1896.05 -232.693 1896.28ZM-242.67 1908.77C-239.937 1905.34 -237.208 1901.89 -234.468 1898.48C-236.552 1898.25 -238.633 1898.02 -240.715 1897.81C-243.449 1901.08 -246.169 1904.38 -248.891 1907.68C-246.819 1908.03 -244.746 1908.39 -242.67 1908.77ZM-252.676 1921.38C-249.912 1917.87 -247.138 1914.38 -244.363 1910.89C-246.465 1910.51 -248.56 1910.16 -250.658 1909.81C-253.409 1913.14 -256.158 1916.47 -258.897 1919.82C-256.824 1920.33 -254.751 1920.85 -252.676 1921.38ZM-518.675 2322.04C-439.182 2176.66 -350.073 2045.12 -254.323 1923.48C-256.417 1922.95 -258.514 1922.43 -260.608 1921.93C-356.617 2039.6 -446.053 2168.92 -525.991 2315.12L-527.834 2314.54C-447.922 2168.39 -358.547 2039.11 -262.611 1921.46C-264.688 1920.96 -266.762 1920.46 -268.834 1919.99C-365.045 2033.6 -454.775 2160.62 -535.153 2307.61L-536.998 2307.04C-456.657 2160.11 -367.001 2033.13 -270.885 1919.55C-272.949 1919.09 -275.012 1918.65 -277.073 1918.21C-373.479 2027.67 -463.498 2152.31 -544.313 2300.12L-546.157 2299.55C-465.381 2151.82 -375.452 2027.2 -279.15 1917.76C-281.207 1917.34 -283.261 1916.95 -285.316 1916.55C-381.92 2021.77 -472.213 2144.01 -553.471 2292.62L-555.317 2292.05C-474.112 2143.54 -383.927 2021.33 -287.458 1916.13C-289.473 1915.75 -291.484 1915.38 -293.497 1915.02C-390.311 2015.92 -480.912 2135.67 -562.634 2285.12L-564.476 2284.55C-482.831 2135.23 -392.356 2015.53 -295.703 1914.64C-297.698 1914.29 -299.69 1913.94 -301.682 1913.62C-398.706 2010.11 -489.61 2127.31 -571.796 2277.62L-573.64 2277.05C-491.55 2126.92 -400.808 2009.76 -303.981 1913.27C-305.946 1912.96 -307.91 1912.65 -309.87 1912.37C-407.1 2004.36 -498.301 2118.96 -580.955 2270.13L-582.8 2269.55C-500.26 2118.6 -409.241 2004.04 -312.23 1912.04C-314.172 1911.77 -316.105 1911.53 -318.044 1911.29C-415.481 1998.68 -506.986 2110.6 -590.114 2262.63L-591.958 2262.06C-508.973 2110.29 -417.689 1998.4 -320.517 1910.97C-322.419 1910.75 -324.316 1910.55 -326.214 1910.35C-423.86 1993.05 -515.668 2102.22 -599.278 2255.13L-601.122 2254.56C-517.691 2101.97 -426.148 1992.84 -328.82 1910.08C-330.662 1909.9 -332.506 1909.71 -334.347 1909.55C-432.209 1987.47 -524.333 2093.82 -608.437 2247.63L-610.281 2247.06C-526.41 2093.67 -434.626 1987.34 -337.158 1909.34C-338.925 1909.2 -340.693 1909.04 -342.458 1908.92C-440.544 1981.94 -532.989 2085.4 -617.597 2240.14L-619.441 2239.56C-535.119 2085.35 -443.074 1981.92 -345.455 1908.76C-347.186 1908.66 -348.918 1908.57 -350.647 1908.49C-448.924 1976.52 -541.662 2077.01 -626.758 2232.64L-628.6 2232.07C-543.843 2077.06 -451.574 1976.56 -353.837 1908.34C-355.474 1908.28 -357.105 1908.27 -358.74 1908.23C-457.241 1971.14 -550.309 2068.57 -635.92 2225.14L-637.763 2224.57C-552.591 2068.8 -460.118 1971.35 -362.292 1908.15C-363.819 1908.13 -365.345 1908.13 -366.871 1908.13C-465.58 1965.83 -558.955 2060.13 -645.079 2217.64L-646.923 2217.07C-561.357 2060.58 -468.712 1966.25 -370.835 1908.16C-372.19 1908.17 -373.549 1908.16 -374.905 1908.19C-473.854 1960.56 -567.57 2051.64 -654.238 2210.15L-656.083 2209.57C-570.178 2052.46 -477.433 1961.29 -379.577 1908.37C-380.72 1908.41 -381.864 1908.44 -383.004 1908.49C-482.17 1955.41 -576.206 2043.18 -663.401 2202.65L-665.246 2202.07C-579.058 2044.45 -486.282 1956.52 -388.526 1908.81C-389.42 1908.87 -390.315 1908.93 -391.208 1909C-490.542 1950.37 -584.865 2034.76 -672.561 2195.15L-674.405 2194.58C-588.036 2036.62 -495.348 1952.02 -397.825 1909.53C-398.29 1909.58 -398.756 1909.63 -399.219 1909.68C-498.799 1945.36 -593.461 2026.23 -681.721 2187.65L-683.565 2187.08C-597.85 2030.32 -506.204 1949.09 -409.945 1911.38C-508.769 1941.83 -602.86 2019.18 -690.882 2180.15L-692.724 2179.58C-608.817 2026.13 -519.509 1948.19 -425.908 1914.36C-522.073 1940.88 -613.824 2014.97 -700.044 2172.65L-701.887 2172.08C-619.848 2022.05 -532.915 1947.24 -442.006 1916.94C-535.477 1939.91 -624.854 2010.89 -709.203 2165.16L-711.047 2164.58C-617.987 1994.39 -518.971 1924.82 -415.174 1909.24C-409.718 1907.94 -404.246 1906.83 -398.763 1905.82C-393.266 1904.32 -387.755 1902.93 -382.228 1901.71C-376.747 1900.04 -371.246 1898.51 -365.735 1897.09C-360.086 1895.16 -354.42 1893.33 -348.74 1891.65C-343.156 1889.54 -337.556 1887.56 -331.942 1885.67C-326.147 1883.26 -320.336 1880.98 -314.508 1878.79C-308.794 1876.2 -303.067 1873.7 -297.321 1871.31C-291.411 1868.39 -285.477 1865.6 -279.53 1862.88C-273.527 1859.68 -267.504 1856.56 -261.466 1853.55C-255.586 1850.18 -249.689 1846.88 -243.776 1843.67C-237.688 1839.92 -231.576 1836.28 -225.454 1832.69C-219.212 1828.58 -212.953 1824.56 -206.676 1820.6C-200.41 1816.21 -194.129 1811.88 -187.827 1807.63C-181.583 1802.98 -175.328 1798.39 -169.049 1793.86C-162.708 1788.87 -156.356 1783.92 -149.978 1779.03C-143.564 1773.69 -137.132 1768.39 -130.685 1763.14C-124.18 1757.43 -117.661 1751.75 -111.116 1746.12C-104.745 1740.23 -98.3515 1734.39 -91.9476 1728.57C-85.2646 1722.08 -78.5592 1715.64 -71.839 1709.23C-65.2116 1702.49 -58.5635 1695.78 -51.8961 1689.1C128.421 1497.2 322.883 1327.39 515.827 1158.91C769.359 937.542 1020.25 718.467 1232.86 454.596C1279.96 249.798 1326.95 20.7025 1373.75 -235.422L1375.9 -235.706C1329.35 19.0227 1282.61 246.998 1235.74 450.993C1238.27 447.847 1240.79 444.687 1243.31 441.526C1290.07 242.746 1336.63 20.5352 1382.91 -227.927L1385.06 -228.206C1339.05 18.8329 1292.74 239.912 1246.23 437.873C1248.74 434.705 1251.24 431.52 1253.75 428.339C1300.18 235.604 1346.32 20.3094 1392.07 -220.434L1394.22 -220.7C1348.76 18.5502 1302.89 232.673 1256.72 424.544C1259.21 421.376 1261.71 418.222 1264.18 415.042C1310.29 228.383 1356.02 20.0231 1401.24 -212.942L1403.38 -213.201C1358.46 18.2015 1313.04 225.351 1267.22 411.1C1269.71 407.889 1272.18 404.666 1274.66 401.442C1320.44 220.945 1365.72 19.582 1410.4 -205.45L1412.54 -205.697C1368.19 17.7328 1323.21 217.871 1277.75 397.429C1280.23 394.186 1282.7 390.927 1285.17 387.672C1330.6 213.4 1375.44 19.0245 1419.56 -197.961L1421.7 -198.194C1377.93 17.0863 1333.44 210.191 1288.35 383.455C1290.74 380.3 1293.13 377.157 1295.5 373.988C1340.65 205.832 1385.11 18.634 1428.72 -190.467L1430.86 -190.688C1387.62 16.6582 1343.54 202.476 1298.76 369.59C1301.18 366.348 1303.59 363.097 1306 359.841C1350.81 197.978 1394.83 17.9362 1437.88 -182.976L1440.02 -183.186C1397.36 15.947 1353.73 194.572 1309.31 355.367C1311.72 352.1 1314.1 348.812 1316.49 345.531C1360.98 190.001 1404.56 17.1587 1447.04 -175.49L1449.18 -175.68C1407.11 15.0959 1363.95 186.434 1319.91 340.833C1322.26 337.581 1324.63 334.335 1326.97 331.069C1371.14 181.906 1414.28 16.3066 1456.21 -167.997L1458.34 -168.174C1416.87 14.1564 1374.19 178.145 1330.51 326.104C1332.85 322.843 1335.18 319.58 1337.5 316.305C1381.33 173.581 1424.02 15.3204 1465.37 -160.51L1467.49 -160.666C1426.63 13.1348 1384.43 169.726 1341.12 311.195C1343.44 307.91 1345.73 304.593 1348.04 301.295C1391.54 165.066 1433.77 14.2212 1474.54 -153.022L1476.65 -153.158C1436.41 11.937 1394.73 160.997 1351.81 295.881C1354.02 292.697 1356.23 289.507 1358.43 286.309C1401.64 156.521 1443.48 13.1841 1483.69 -145.536L1485.81 -145.651C1446.22 10.6104 1405.06 152.046 1362.55 280.273C1364.65 277.21 1366.75 274.158 1368.84 271.081C1411.77 147.791 1453.2 12.0204 1492.86 -138.053L1494.97 -138.136C1456.01 9.27725 1415.35 142.968 1373.23 264.543C1375.26 261.527 1377.28 258.5 1379.3 255.472C1421.93 138.774 1462.94 10.6822 1502.02 -130.567L1504.12 -130.629C1465.81 7.81295 1425.66 133.671 1383.94 248.527C1385.89 245.586 1387.81 242.618 1389.75 239.667C1432.09 129.606 1472.68 9.23337 1511.19 -123.09L1513.28 -123.108C1475.68 6.08045 1436.1 123.905 1394.85 231.866C1396.64 229.119 1398.43 226.373 1400.21 223.614C1442.26 120.251 1482.43 7.66374 1520.36 -115.611L1522.44 -115.591C1485.6 4.11556 1446.66 113.745 1405.94 214.665C1407.54 212.159 1409.15 209.662 1410.74 207.147C1452.49 110.58 1492.2 5.89484 1529.52 -108.136L1531.59 -108.072C1495.61 1.82972 1457.42 103.013 1417.33 196.671C1418.68 194.517 1420.03 192.359 1421.38 190.196C1462.79 100.539 1502.01 3.9172 1538.69 -100.665L1540.74 -100.544C1505.81 -0.977426 1468.57 91.3149 1429.36 177.325C1430.14 176.056 1430.91 174.776 1431.69 173.504C1472.87 90.6328 1511.73 2.04879 1547.87 -93.2038L1549.88 -93.0137C1516.73 -5.61431 1481.27 76.1627 1443.85 153.087C1484.13 78.0797 1522.01 -1.27611 1557.05 -85.748L1559.03 -85.4689C1528.99 -13.0497 1496.87 55.6104 1462.94 121.009C1499.73 57.4384 1534.27 -8.84901 1566.23 -78.2999L1568.17 -77.9219C1530.17 4.64476 1488.56 82.7588 1443.84 157.127C1437.06 169.7 1430.23 182.172 1423.32 194.506C1416.44 208.071 1409.47 221.425 1402.46 234.692C1395.65 248.803 1388.8 262.769 1381.88 276.528C1374.98 291.512 1368.05 306.333 1361.05 320.889C1354.27 336.167 1347.44 351.157 1340.58 366.004C1333.97 381.414 1327.33 396.622 1320.64 411.602C1313.86 427.954 1307.05 444.088 1300.2 459.931C1293.3 477.026 1286.36 493.768 1279.4 510.298C1272.96 526.622 1266.5 542.698 1260.01 558.511C1253.7 574.905 1247.37 591.075 1241.01 606.958C1233.64 626.581 1226.24 645.707 1218.82 664.559C1212.47 681.685 1206.12 698.532 1199.74 715.081C1193.55 732.078 1187.35 748.796 1181.14 765.245C1174.07 785.054 1166.97 804.536 1159.87 823.606C1153.35 842.103 1146.83 860.273 1140.29 878.087C1133.77 896.834 1127.25 915.27 1120.72 933.312C1114.14 952.495 1107.55 971.371 1100.95 989.819C1094.6 1008.54 1088.23 1026.98 1081.87 1045.01C1075.68 1063.45 1069.48 1081.6 1063.28 1099.38C1057.13 1117.93 1050.98 1136.1 1044.83 1153.97C817.123 1848.7 588.705 2063.01 367.23 2092.26C224.799 2111.07 85.3983 2053.3 -49.0921 1997.57C-118.242 1968.92 -186.088 1940.82 -252.357 1923.97C-348.17 2045.64 -437.324 2177.2 -516.831 2322.61L-518.675 2322.04Z" fill="#238C8C"/>
</g>
<defs>
<clipPath id="clip0_242_1159">
<rect width="1440" height="2326" fill="white"/>
</clipPath>
</defs>
</svg>
