<svg width="1063" height="1748" viewBox="0 0 1063 1748" fill="none" xmlns="http://www.w3.org/2000/svg">
<path d="M249.265 293.41L251.867 296.528C251.618 296.162 251.378 295.797 251.13 295.43C250.207 294.259 249.28 293.086 248.345 291.912C248.654 292.411 248.956 292.911 249.265 293.41ZM264.452 313.598C265.141 314.396 265.84 315.199 266.524 315.996L266.282 315.655L263.801 312.602L264.452 313.598ZM254.842 302.477C256.366 304.23 257.852 305.97 259.373 307.721C258.734 306.758 258.075 305.792 257.433 304.827C256.001 303.093 254.528 301.345 253.074 299.604C253.66 300.561 254.258 301.52 254.842 302.477ZM280.334 333.99C280.918 334.653 281.473 335.306 282.054 335.967L282.041 335.95C281.398 335.18 280.736 334.404 280.089 333.632L280.334 333.99ZM270.626 323.072C272.014 324.629 273.417 326.192 274.794 327.747C274.273 326.997 273.76 326.247 273.237 325.497C271.723 323.711 270.258 321.942 268.729 320.151C269.358 321.124 270.001 322.098 270.626 323.072ZM260.255 311.482C262.231 313.666 264.156 315.831 266.109 318.008C265.323 316.799 264.534 315.592 263.743 314.382C261.853 312.185 259.94 309.981 258.039 307.781C258.781 309.015 259.517 310.249 260.255 311.482ZM577.055 1366.84L576.964 1365.85C576.73 1365.16 576.499 1364.47 576.267 1363.78L576.39 1364.68C576.61 1365.4 576.835 1366.12 577.055 1366.84ZM297.286 355.185L297.897 355.87C297.628 355.556 297.37 355.244 297.102 354.93L297.286 355.185ZM286.898 343.626C288.211 345.063 289.494 346.488 290.785 347.918C290.357 347.327 289.939 346.737 289.509 346.144C288.18 344.608 286.829 343.067 285.499 341.532C285.972 342.231 286.428 342.926 286.898 343.626ZM276.433 332.215C278.338 334.292 280.253 336.372 282.147 338.445C281.314 337.222 280.461 335.995 279.623 334.77C277.809 332.708 275.96 330.633 274.11 328.557C274.886 329.777 275.662 330.997 276.433 332.215ZM265.624 320.542C267.94 323.013 270.232 325.475 272.501 327.928C271.633 326.568 270.784 325.209 269.91 323.847C267.621 321.287 265.358 318.734 263.064 316.171C263.927 317.628 264.769 319.085 265.624 320.542ZM579.52 1374.8C579.49 1374.22 579.469 1373.63 579.441 1373.05L578.394 1370.01C578.448 1370.57 578.496 1371.13 578.552 1371.69C578.874 1372.73 579.195 1373.76 579.52 1374.8ZM579.799 1379.95L579.734 1378.81L579.072 1376.72L579.174 1377.7C579.383 1378.45 579.587 1379.2 579.799 1379.95ZM580.077 1384.71L580.066 1384.55L579.876 1383.89L580.077 1384.71ZM304.044 364.771C305.273 366.116 306.518 367.466 307.755 368.813L306.183 366.713C305.015 365.391 303.803 364.053 302.614 362.723C303.094 363.406 303.566 364.088 304.044 364.771ZM293.287 353.184C295.124 355.133 296.971 357.084 298.761 359.014C298.047 358.005 297.301 356.989 296.582 355.98C294.695 353.874 292.828 351.777 290.939 349.67C291.718 350.841 292.512 352.015 293.287 353.184ZM282.154 341.351L289.02 348.648C288.074 347.236 287.141 345.826 286.189 344.412C284.034 342.039 281.822 339.645 279.625 337.256C280.479 338.623 281.306 339.986 282.154 341.351ZM270.872 329.537C273.491 332.246 276.119 334.959 278.663 337.64C277.698 336.096 276.701 334.549 275.725 333.004C273.142 330.204 270.607 327.422 267.998 324.611C268.954 326.253 269.925 327.895 270.872 329.537ZM581.969 1382.52C581.966 1381.78 581.958 1381.03 581.959 1380.29C581.526 1379.05 581.09 1377.82 580.662 1376.59C580.699 1377.32 580.746 1378.06 580.784 1378.79C581.18 1380.04 581.571 1381.28 581.969 1382.52ZM581.994 1387.62C581.987 1387.04 581.987 1386.45 581.982 1385.87C581.657 1384.86 581.333 1383.85 581.011 1382.84L581.118 1384.56C581.41 1385.58 581.7 1386.6 581.994 1387.62ZM582.075 1392.62L582.057 1391.46C581.85 1390.76 581.641 1390.05 581.438 1389.34C581.461 1389.68 581.482 1390.03 581.506 1390.37C581.698 1391.12 581.884 1391.87 582.075 1392.62ZM582.181 1397.3L582.174 1397.04L581.952 1396.2L581.957 1396.26L582.181 1397.3ZM321.791 386.141C322.913 387.336 324.053 388.538 325.16 389.728C324.847 389.32 324.524 388.91 324.209 388.504C322.953 387.104 321.72 385.712 320.459 384.31L321.791 386.141ZM310.795 374.438C312.583 376.333 314.343 378.218 316.126 380.112C315.401 379.121 314.7 378.138 313.97 377.146C312.211 375.213 310.405 373.26 308.619 371.315C309.338 372.355 310.081 373.4 310.795 374.438ZM299.405 362.531C301.626 364.83 303.859 367.135 306.025 369.41C305.135 368.127 304.236 366.844 303.336 365.56C301.11 363.147 298.931 360.753 296.676 358.33C297.595 359.732 298.494 361.131 299.405 362.531ZM287.778 350.453C290.422 353.186 293.018 355.899 295.644 358.625C294.628 357.076 293.607 355.527 292.58 353.976C290.057 351.277 287.492 348.561 284.934 345.848C285.877 347.383 286.843 348.919 287.778 350.453ZM275.882 338.344C278.774 341.267 281.688 344.199 284.5 347.089C283.487 345.439 282.466 343.789 281.443 342.139C278.653 339.193 275.846 336.243 273.005 333.277C273.97 334.966 274.925 336.654 275.882 338.344ZM584.412 1390.08C584.451 1389.25 584.496 1388.42 584.539 1387.59C584.034 1386.17 583.536 1384.76 583.036 1383.34C583.038 1384.19 583.041 1385.04 583.047 1385.89C583.5 1387.28 583.957 1388.68 584.412 1390.08ZM584.202 1395.16C584.231 1394.42 584.258 1393.68 584.288 1392.95C583.884 1391.71 583.486 1390.48 583.085 1389.25C583.094 1390 583.108 1390.75 583.12 1391.5C583.478 1392.72 583.842 1393.94 584.202 1395.16ZM584.035 1400.13C584.052 1399.52 584.062 1398.91 584.082 1398.31C583.78 1397.3 583.485 1396.29 583.186 1395.28C583.2 1395.88 583.222 1396.49 583.237 1397.1L584.035 1400.13ZM583.912 1404.93C583.92 1404.54 583.933 1404.15 583.942 1403.76C583.746 1403.03 583.558 1402.3 583.364 1401.57L583.399 1402.68C583.57 1403.43 583.738 1404.18 583.912 1404.93ZM583.847 1409.54L583.852 1409.18C583.778 1408.86 583.7 1408.55 583.627 1408.23L583.634 1408.42C583.707 1408.79 583.775 1409.17 583.847 1409.54ZM339.954 407.532C341.08 408.716 342.133 409.87 343.246 411.047C343.041 410.787 342.847 410.531 342.641 410.271C341.482 408.997 340.295 407.713 339.13 406.438C339.401 406.802 339.684 407.168 339.954 407.532ZM328.855 395.961C330.527 397.703 332.216 399.453 333.869 401.187C333.172 400.263 332.484 399.341 331.782 398.417C330.083 396.576 328.417 394.751 326.692 392.899C327.426 393.923 328.125 394.937 328.855 395.961ZM317.096 383.721C319.4 386.094 321.614 388.428 323.892 390.79C322.97 389.507 322.014 388.216 321.084 386.93C318.928 384.624 316.74 382.305 314.566 379.993C315.415 381.237 316.257 382.478 317.096 383.721ZM305.454 371.878C308.005 374.465 310.566 377.057 313.068 379.624C312.063 378.152 311.09 376.688 310.075 375.213C307.561 372.561 305.018 369.893 302.448 367.217C303.449 368.77 304.464 370.326 305.454 371.878ZM293.154 359.391C296.111 362.367 298.988 365.31 301.907 368.27C300.845 366.619 299.763 364.963 298.688 363.311C295.883 360.39 293.062 357.462 290.233 354.529C291.213 356.151 292.183 357.77 293.154 359.391ZM280.808 347.119C283.958 350.24 287.12 353.366 290.204 356.459C289.154 354.718 288.124 352.978 287.063 351.237C284.066 348.151 280.987 345.028 277.907 341.908C278.883 343.645 279.842 345.382 280.808 347.119ZM586.882 1397.59C586.973 1396.67 587.056 1395.76 587.152 1394.85C586.595 1393.31 586.037 1391.77 585.484 1390.24C585.442 1391.16 585.403 1392.08 585.364 1393C585.865 1394.53 586.373 1396.06 586.882 1397.59ZM586.408 1402.53C586.482 1401.7 586.563 1400.87 586.641 1400.04C586.179 1398.66 585.711 1397.27 585.253 1395.89C585.223 1396.72 585.183 1397.55 585.156 1398.38C585.568 1399.76 585.988 1401.15 586.408 1402.53ZM585.993 1407.44C586.052 1406.7 586.117 1405.97 586.179 1405.24C585.81 1404.03 585.439 1402.82 585.073 1401.61C585.054 1402.36 585.031 1403.11 585.014 1403.85C585.335 1405.05 585.669 1406.24 585.993 1407.44ZM585.637 1412.28C585.679 1411.67 585.72 1411.06 585.766 1410.45L584.947 1407.45C584.938 1408.06 584.932 1408.68 584.924 1409.28C585.159 1410.28 585.398 1411.28 585.637 1412.28ZM585.329 1416.96C585.354 1416.54 585.373 1416.11 585.4 1415.68C585.224 1414.95 585.055 1414.22 584.881 1413.5C584.88 1413.91 584.883 1414.33 584.884 1414.74C585.032 1415.48 585.177 1416.22 585.329 1416.96ZM585.084 1421.39L585.107 1420.95C585.036 1420.6 584.961 1420.26 584.891 1419.92L584.892 1420.22L585.084 1421.39ZM359.01 429.663C359.899 430.597 360.799 431.536 361.692 432.472C361.394 432.101 361.102 431.732 360.803 431.362C359.917 430.403 359.008 429.433 358.106 428.467C358.414 428.868 358.705 429.262 359.01 429.663ZM347.279 417.467C348.914 419.139 350.532 420.804 352.131 422.46C351.555 421.718 350.972 420.973 350.395 420.229C348.732 418.452 347.054 416.666 345.395 414.891C346.029 415.751 346.649 416.607 347.279 417.467ZM335.651 405.587C337.828 407.811 340.018 410.041 342.181 412.258C341.216 410.956 340.237 409.647 339.261 408.341C337.198 406.163 335.063 403.953 332.941 401.748C333.842 403.027 334.757 404.31 335.651 405.587ZM323.524 393.283C326.082 395.851 328.595 398.399 331.108 400.946C330.122 399.551 329.15 398.16 328.156 396.763L320.624 388.917C321.601 390.375 322.557 391.827 323.524 393.283ZM311.197 380.982C314.095 383.865 316.993 386.752 319.853 389.619C318.715 387.922 317.538 386.214 316.388 384.514C313.693 381.737 310.896 378.915 308.122 376.105C309.151 377.731 310.179 379.357 311.197 380.982ZM298.515 368.414C301.687 371.53 304.81 374.625 307.925 377.717C306.861 376.033 305.817 374.352 304.739 372.666C301.643 369.517 298.573 366.379 295.453 363.219C296.483 364.952 297.496 366.681 298.515 368.414ZM285.635 355.847C289.035 359.153 292.429 362.459 295.775 365.741C294.68 363.89 293.548 362.033 292.438 360.18C289.25 356.969 285.936 353.704 282.65 350.451C283.645 352.25 284.653 354.048 285.635 355.847ZM590.993 1395.33C599.334 1348.26 614.371 1302.99 629.703 1256.86C685.957 1087.61 746.006 906.709 491.471 582.574M589.367 1405.01C589.514 1404.07 589.673 1403.13 589.826 1402.2C589.22 1400.54 588.615 1398.89 588.016 1397.24C587.919 1398.2 587.824 1399.16 587.732 1400.13C588.275 1401.75 588.815 1403.38 589.367 1405.01ZM588.646 1409.86C588.776 1408.97 588.909 1408.07 589.044 1407.18C588.523 1405.65 588.01 1404.13 587.499 1402.6C587.416 1403.51 587.344 1404.43 587.267 1405.34C587.724 1406.85 588.178 1408.36 588.646 1409.86ZM587.977 1414.66C588.088 1413.82 588.193 1412.99 588.309 1412.16C587.883 1410.79 587.457 1409.42 587.037 1408.05C586.97 1408.89 586.912 1409.73 586.849 1410.57C587.222 1411.93 587.597 1413.29 587.977 1414.66ZM587.362 1419.38C587.453 1418.65 587.546 1417.92 587.64 1417.18C587.306 1416 586.962 1414.81 586.634 1413.63C586.584 1414.36 586.527 1415.09 586.482 1415.82C586.77 1417.01 587.069 1418.19 587.362 1419.38ZM586.812 1424.06C586.881 1423.45 586.956 1422.85 587.027 1422.24L586.29 1419.28C586.256 1419.89 586.219 1420.5 586.188 1421.11L586.812 1424.06ZM586.33 1428.65L586.462 1427.34C586.303 1426.61 586.154 1425.88 586 1425.15L585.947 1426.42C586.076 1427.16 586.198 1427.91 586.33 1428.65ZM585.917 1432.87L585.961 1432.37L585.774 1431.35L585.764 1431.78C585.812 1432.14 585.868 1432.51 585.917 1432.87ZM378.137 451.507C378.91 452.303 379.698 453.106 380.464 453.898L380.287 453.684C379.357 452.689 378.445 451.701 377.514 450.706L378.137 451.507ZM366.396 439.44C368.064 441.156 369.73 442.872 371.408 444.59C370.733 443.738 370.023 442.87 369.344 442.016C367.773 440.357 366.154 438.676 364.557 437.006C365.171 437.818 365.787 438.63 366.396 439.44ZM354.634 427.521C356.647 429.534 358.677 431.556 360.638 433.546C359.858 432.519 359.105 431.503 358.319 430.475C356.139 428.2 354.008 425.947 351.813 423.666C352.743 424.947 353.711 426.242 354.634 427.521ZM342.212 415.058L349.795 422.666C348.729 421.203 347.653 419.736 346.578 418.269C344.211 415.83 341.78 413.362 339.363 410.9C340.327 412.291 341.256 413.67 342.212 415.058ZM329.714 402.677C332.569 405.476 335.422 408.273 338.207 411.04C337.138 409.497 336.041 407.947 334.96 406.401C332.099 403.487 329.312 400.606 326.42 397.679C327.52 399.346 328.627 401.014 329.714 402.677ZM316.847 390.062C319.986 393.135 323.111 396.198 326.229 399.259C325.092 397.534 323.965 395.809 322.815 394.079C319.846 391.09 316.796 388.065 313.76 385.045C314.803 386.72 315.816 388.389 316.847 390.062ZM303.735 377.356C307.135 380.623 310.517 383.882 313.842 387.116C312.74 385.34 311.605 383.559 310.49 381.78C307.171 378.479 303.899 375.199 300.537 371.878C301.604 373.704 302.682 375.53 303.735 377.356ZM290.266 364.437C293.883 367.897 297.476 371.343 301.056 374.786C299.976 372.927 298.892 371.068 297.799 369.207C294.372 365.832 290.85 362.416 287.341 359.005C288.325 360.816 289.294 362.627 290.266 364.437ZM591.908 1412.42C592.118 1411.45 592.324 1410.48 592.539 1409.52C591.892 1407.79 591.252 1406.05 590.612 1404.31C590.455 1405.31 590.3 1406.31 590.15 1407.3C590.735 1409.01 591.321 1410.71 591.908 1412.42ZM590.922 1417.09C591.111 1416.16 591.3 1415.24 591.496 1414.31C590.936 1412.7 590.383 1411.08 589.829 1409.46C589.69 1410.41 589.544 1411.35 589.412 1412.3C589.914 1413.9 590.415 1415.49 590.922 1417.09ZM589.986 1421.74C590.154 1420.87 590.334 1420.01 590.508 1419.14C590.032 1417.64 589.566 1416.15 589.097 1414.66C588.978 1415.55 588.854 1416.45 588.74 1417.34C589.153 1418.81 589.563 1420.28 589.986 1421.74ZM589.123 1426.4C589.269 1425.59 589.421 1424.78 589.573 1423.97C589.18 1422.62 588.797 1421.27 588.415 1419.92C588.313 1420.75 588.217 1421.59 588.119 1422.42C588.45 1423.75 588.782 1425.07 589.123 1426.4ZM588.325 1431C588.448 1430.26 588.566 1429.53 588.694 1428.79C588.392 1427.62 588.081 1426.45 587.784 1425.28C587.701 1426.03 587.63 1426.79 587.552 1427.54C587.803 1428.7 588.069 1429.85 588.325 1431ZM587.587 1435.52C587.684 1434.9 587.777 1434.29 587.876 1433.67C587.657 1432.7 587.443 1431.73 587.225 1430.76C587.166 1431.37 587.104 1431.98 587.048 1432.59C587.228 1433.57 587.404 1434.54 587.587 1435.52ZM586.926 1439.92C586.989 1439.48 587.057 1439.05 587.122 1438.61C586.985 1437.9 586.85 1437.19 586.718 1436.47C586.682 1436.9 586.643 1437.33 586.61 1437.76C586.713 1438.48 586.819 1439.2 586.926 1439.92ZM586.362 1444.07L586.435 1443.52L586.27 1442.47L586.239 1442.94L586.362 1444.07ZM397.502 473.271L397.659 473.431L397.476 473.238L397.502 473.271ZM386.129 461.78C387.595 463.262 389.08 464.753 390.535 466.231C390.007 465.577 389.505 464.934 388.975 464.281C387.313 462.543 385.72 460.837 384.036 459.089C384.726 459.984 385.442 460.888 386.129 461.78ZM373.744 449.268C375.838 451.367 377.854 453.432 379.94 455.529C379.105 454.454 378.275 453.382 377.433 452.305C375.478 450.286 373.485 448.249 371.514 446.223C372.274 447.243 372.99 448.25 373.744 449.268ZM361.41 437.069C363.897 439.516 366.398 441.971 368.835 444.394C367.809 443.023 366.746 441.636 365.713 440.262C363.262 437.763 360.841 435.275 358.351 432.757C359.38 434.197 360.391 435.632 361.41 437.069ZM348.694 424.522C351.535 427.315 354.33 430.088 357.168 432.881C356.08 431.36 355.036 429.853 353.935 428.327C351.155 425.525 348.331 422.7 345.514 419.88C346.569 421.424 347.651 422.979 348.694 424.522ZM335.687 411.92C338.775 414.89 341.884 417.871 344.895 420.803C343.774 419.159 342.645 417.513 341.512 415.864C338.503 412.866 335.504 409.869 332.444 406.846C333.542 408.542 334.601 410.228 335.687 411.92ZM322.365 399.071C325.76 402.337 329.117 405.586 332.502 408.849C331.346 407.061 330.177 405.269 329.006 403.477C325.751 400.268 322.446 397.038 319.139 393.804C320.212 395.56 321.304 397.318 322.365 399.071ZM308.751 386.148C312.336 389.524 315.941 392.907 319.43 396.239C318.335 394.446 317.24 392.653 316.133 390.856C312.658 387.468 309.175 384.077 305.638 380.66C306.688 382.49 307.714 384.317 308.751 386.148ZM294.825 373.001C298.651 376.602 302.425 380.178 306.234 383.771C305.165 381.898 304.103 380.025 303.021 378.149C299.358 374.619 295.64 371.061 291.915 367.501C292.892 369.333 293.858 371.167 294.825 373.001ZM594.48 1419.79C594.753 1418.82 595.036 1417.85 595.316 1416.88C594.635 1415.09 593.947 1413.29 593.272 1411.49C593.052 1412.49 592.831 1413.48 592.619 1414.48C593.233 1416.25 593.857 1418.02 594.48 1419.79ZM593.234 1424.3C593.486 1423.36 593.752 1422.42 594.011 1421.49C593.413 1419.79 592.807 1418.09 592.215 1416.4C592.013 1417.37 591.82 1418.35 591.624 1419.32C592.154 1420.98 592.695 1422.64 593.234 1424.3ZM592.054 1428.83C592.286 1427.92 592.519 1427.01 592.758 1426.1C592.242 1424.52 591.726 1422.93 591.216 1421.35C591.033 1422.29 590.861 1423.23 590.684 1424.17C591.137 1425.72 591.594 1427.27 592.054 1428.83ZM590.929 1433.35C591.14 1432.48 591.343 1431.6 591.559 1430.73C591.127 1429.28 590.703 1427.82 590.277 1426.37C590.117 1427.25 589.955 1428.13 589.802 1429.01C590.175 1430.46 590.546 1431.9 590.929 1433.35ZM589.869 1437.81C590.051 1437.02 590.241 1436.22 590.429 1435.43C590.076 1434.1 589.732 1432.78 589.389 1431.46C589.251 1432.28 589.108 1433.1 588.976 1433.92C589.27 1435.21 589.568 1436.51 589.869 1437.81ZM588.886 1442.25C589.04 1441.54 589.204 1440.82 589.361 1440.11C589.092 1438.96 588.815 1437.81 588.55 1436.67C588.437 1437.4 588.328 1438.13 588.219 1438.87C588.437 1439.99 588.663 1441.12 588.886 1442.25ZM587.974 1446.68C588.097 1446.06 588.219 1445.44 588.347 1444.83C588.153 1443.86 587.967 1442.89 587.775 1441.92C587.689 1442.55 587.611 1443.17 587.528 1443.8C587.677 1444.76 587.82 1445.71 587.974 1446.68ZM587.149 1450.9C587.235 1450.44 587.312 1449.98 587.399 1449.53C587.283 1448.83 587.158 1448.14 587.046 1447.44C586.989 1447.89 586.944 1448.35 586.889 1448.8C586.971 1449.5 587.065 1450.2 587.149 1450.9ZM586.421 1454.9L586.524 1454.34C586.476 1453.97 586.433 1453.6 586.386 1453.23C586.369 1453.4 586.349 1453.56 586.331 1453.72L586.421 1454.9ZM418.011 496.091L420.085 498.204L419.942 498.034C419.213 497.27 418.445 496.487 417.705 495.717L418.011 496.091ZM405.934 483.881C407.235 485.172 408.553 486.472 409.821 487.747L408.783 486.481C407.375 485.023 405.957 483.56 404.561 482.109C405.029 482.703 405.468 483.287 405.934 483.881ZM393.604 471.62C395.611 473.619 397.636 475.625 399.639 477.621C398.709 476.448 397.753 475.266 396.816 474.089C394.966 472.199 393.045 470.274 391.143 468.357C391.973 469.45 392.78 470.531 393.604 471.62ZM380.922 459.067C383.44 461.533 385.887 463.966 388.37 466.415C387.399 465.145 386.423 463.873 385.444 462.601C382.97 460.101 380.485 457.594 378.012 455.095C378.983 456.419 379.961 457.746 380.922 459.067ZM368.237 446.744C370.985 449.409 373.743 452.078 376.454 454.726C375.319 453.179 374.204 451.64 373.056 450.088C370.4 447.434 367.679 444.75 364.953 442.063C366.049 443.623 367.152 445.187 368.237 446.744ZM354.857 433.768C358.039 436.828 361.113 439.838 364.264 442.884C363.096 441.221 361.894 439.547 360.712 437.88C357.701 434.905 354.682 431.927 351.654 428.943C352.735 430.555 353.79 432.159 354.857 433.768ZM341.593 421.164C344.916 424.311 348.247 427.463 351.501 430.579C350.333 428.832 349.186 427.092 348.002 425.341C344.77 422.181 341.471 418.99 338.161 415.794C339.3 417.583 340.469 419.378 341.593 421.164ZM327.653 407.917C331.31 411.37 334.852 414.767 338.482 418.207C337.324 416.382 336.15 414.553 334.977 412.723C331.501 409.363 328.017 406 324.507 402.625C325.57 404.392 326.604 406.154 327.653 407.917ZM313.704 394.928C317.486 398.435 321.285 401.951 324.974 405.413C323.87 403.567 322.775 401.723 321.656 399.875C318.003 396.38 314.287 392.855 310.552 389.321C311.607 391.19 312.663 393.06 313.704 394.928ZM299.288 381.517C303.319 385.254 307.27 388.952 311.291 392.683C310.22 390.772 309.119 388.857 308.035 386.944C304.159 383.278 300.274 379.606 296.354 375.92C297.332 377.786 298.321 379.651 299.288 381.517ZM597.095 1427.18C597.438 1426.21 597.786 1425.24 598.136 1424.28C597.417 1422.41 596.704 1420.54 595.995 1418.67C595.708 1419.68 595.431 1420.68 595.15 1421.69C595.795 1423.52 596.44 1425.35 597.095 1427.18ZM595.599 1431.53C595.921 1430.58 596.237 1429.62 596.567 1428.67C595.933 1426.91 595.306 1425.15 594.682 1423.39C594.416 1424.36 594.148 1425.34 593.89 1426.32C594.455 1428.05 595.023 1429.79 595.599 1431.53ZM594.16 1435.87C594.459 1434.95 594.758 1434.03 595.064 1433.1C594.512 1431.45 593.962 1429.79 593.419 1428.14C593.174 1429.08 592.922 1430.03 592.685 1430.98C593.17 1432.61 593.666 1434.24 594.16 1435.87ZM592.778 1440.21C593.052 1439.32 593.339 1438.44 593.618 1437.56C593.147 1436.02 592.671 1434.48 592.208 1432.93C591.984 1433.85 591.764 1434.76 591.548 1435.67C591.954 1437.18 592.366 1438.69 592.778 1440.21ZM591.465 1444.59C591.715 1443.74 591.972 1442.89 592.227 1442.05C591.831 1440.61 591.446 1439.18 591.057 1437.74C590.856 1438.62 590.668 1439.5 590.473 1440.38C590.801 1441.78 591.126 1443.18 591.465 1444.59ZM590.236 1448.91C590.455 1448.12 590.67 1447.33 590.896 1446.54C590.58 1445.25 590.271 1443.96 589.966 1442.67C589.79 1443.48 589.62 1444.3 589.451 1445.12C589.706 1446.38 589.973 1447.65 590.236 1448.91ZM589.071 1453.2C589.259 1452.49 589.445 1451.77 589.638 1451.05C589.401 1449.93 589.164 1448.81 588.932 1447.69C588.789 1448.41 588.638 1449.12 588.501 1449.83C588.69 1450.96 588.876 1452.08 589.071 1453.2ZM587.984 1457.42C588.131 1456.83 588.29 1456.24 588.439 1455.65C588.272 1454.71 588.115 1453.77 587.956 1452.82C587.844 1453.44 587.728 1454.05 587.619 1454.67C587.738 1455.58 587.86 1456.5 587.984 1457.42ZM587.003 1461.56L587.32 1460.22C587.222 1459.53 587.125 1458.84 587.03 1458.15L586.812 1459.49L587.003 1461.56ZM586.117 1465.49L586.254 1464.85L586.148 1463.79L586.065 1464.39L586.117 1465.49ZM426.057 506.108C427.376 507.413 428.685 508.714 429.979 510.006L428.803 508.602C427.485 507.25 426.128 505.879 424.794 504.52C425.221 505.052 425.633 505.578 426.057 506.108ZM413.686 493.886C415.719 495.897 417.771 497.919 419.804 499.93C419.005 498.942 418.159 497.932 417.354 496.941C415.28 494.837 413.263 492.761 411.182 490.653C412.019 491.731 412.855 492.81 413.686 493.886ZM401.104 481.562C403.431 483.819 405.761 486.075 408.037 488.304C407.091 487.091 406.179 485.892 405.225 484.676C402.9 482.344 400.508 479.982 398.135 477.628C399.115 478.935 400.133 480.258 401.104 481.562ZM387.945 468.803C390.716 471.487 393.474 474.164 396.235 476.842C395.133 475.374 394.021 473.902 392.907 472.43C390.189 469.736 387.524 467.068 384.8 464.37C385.871 465.857 386.885 467.322 387.945 468.803ZM374.665 456.095C377.756 459.03 380.864 461.973 383.882 464.873C382.689 463.218 381.438 461.541 380.23 459.881C377.313 457.021 374.305 454.118 371.315 451.223C372.439 452.849 373.555 454.474 374.665 456.095ZM361.06 443.139C364.425 446.321 367.693 449.458 371.021 452.625C369.852 450.93 368.712 449.245 367.529 447.545C364.211 444.327 360.935 441.129 357.606 437.906C358.755 439.649 359.925 441.4 361.06 443.139ZM347.153 430.119C350.735 433.462 354.323 436.809 357.835 440.117C356.624 438.273 355.38 436.42 354.154 434.571C350.787 431.339 347.303 428.052 343.844 424.777C344.959 426.562 346.051 428.34 347.153 430.119ZM332.967 416.898C336.776 420.425 340.521 423.923 344.272 427.424C343.139 425.603 342.032 423.79 340.884 421.966C337.141 418.413 333.434 414.876 329.672 411.313C330.77 413.174 331.883 415.039 332.967 416.898ZM318.446 403.532C322.453 407.209 326.447 410.879 330.39 414.525C329.254 412.591 328.088 410.652 326.937 408.715C323.155 405.159 319.248 401.542 315.361 397.935C316.395 399.801 317.426 401.667 318.446 403.532ZM303.634 390.011C307.82 393.811 311.985 397.602 316.091 401.364C315.055 399.483 314.028 397.602 312.98 395.72C308.892 391.921 304.848 388.143 300.738 384.333C301.714 386.226 302.671 388.119 303.634 390.011ZM599.77 1434.55C600.181 1433.59 600.59 1432.63 601.01 1431.67C600.263 1429.77 599.526 1427.86 598.788 1425.95C598.432 1426.94 598.073 1427.93 597.728 1428.92C598.405 1430.8 599.085 1432.67 599.77 1434.55ZM598.009 1438.72C598.398 1437.78 598.795 1436.84 599.192 1435.9C598.525 1434.08 597.868 1432.26 597.21 1430.44C596.876 1431.42 596.544 1432.39 596.217 1433.37C596.81 1435.15 597.405 1436.94 598.009 1438.72ZM596.311 1442.9C596.675 1441.98 597.054 1441.07 597.427 1440.16C596.837 1438.42 596.261 1436.69 595.685 1434.96C595.37 1435.92 595.068 1436.88 594.761 1437.84C595.274 1439.53 595.787 1441.21 596.311 1442.9ZM594.691 1447.1C595.032 1446.2 595.376 1445.3 595.726 1444.41C595.219 1442.78 594.716 1441.16 594.219 1439.54C593.927 1440.47 593.643 1441.41 593.36 1442.35C593.796 1443.93 594.245 1445.51 594.691 1447.1ZM593.127 1451.3C593.446 1450.43 593.756 1449.55 594.083 1448.67C593.659 1447.18 593.229 1445.68 592.811 1444.18C592.548 1445.07 592.28 1445.96 592.024 1446.85C592.388 1448.33 592.755 1449.82 593.127 1451.3ZM591.633 1455.49C591.919 1454.67 592.212 1453.84 592.504 1453.02C592.152 1451.63 591.811 1450.23 591.468 1448.84C591.23 1449.69 590.986 1450.54 590.756 1451.39C591.044 1452.76 591.333 1454.12 591.633 1455.49ZM590.222 1459.65C590.474 1458.88 590.741 1458.12 591 1457.36C590.722 1456.1 590.441 1454.85 590.172 1453.6C589.962 1454.39 589.757 1455.19 589.554 1456C589.771 1457.21 589.998 1458.43 590.222 1459.65ZM588.882 1463.85C589.103 1463.14 589.325 1462.43 589.552 1461.73C589.344 1460.62 589.145 1459.51 588.941 1458.4C588.763 1459.12 588.599 1459.86 588.426 1460.59C588.576 1461.67 588.722 1462.76 588.882 1463.85ZM587.647 1467.91C587.825 1467.31 587.993 1466.71 588.175 1466.1C588.038 1465.2 587.894 1464.3 587.763 1463.4C587.624 1464.01 587.492 1464.62 587.356 1465.23C587.447 1466.12 587.551 1467.02 587.647 1467.91ZM586.491 1471.9C586.615 1471.45 586.748 1471.01 586.874 1470.56C586.797 1469.88 586.729 1469.2 586.653 1468.52C586.562 1468.97 586.461 1469.4 586.372 1469.85C586.414 1470.53 586.445 1471.21 586.491 1471.9ZM585.485 1475.66L585.655 1475.02L585.576 1473.99L585.46 1474.59C585.467 1474.95 585.478 1475.3 585.485 1475.66ZM446.685 528.645C447.976 529.913 449.288 531.191 450.554 532.447C450.087 531.897 449.598 531.335 449.13 530.784C447.852 529.484 446.527 528.161 445.225 526.848L446.685 528.645ZM434.256 516.431L439.956 522.031C439.211 521.123 438.502 520.232 437.752 519.322C435.749 517.305 433.762 515.298 431.751 513.278C432.579 514.326 433.435 515.386 434.256 516.431ZM421.446 503.982C423.719 506.172 426.01 508.368 428.237 510.537C427.252 509.295 426.272 508.058 425.279 506.813C423.07 504.616 420.804 502.389 418.557 500.174C419.532 501.447 420.482 502.711 421.446 503.982ZM408.106 491.107C410.916 493.806 413.66 496.471 416.45 499.159C415.292 497.649 414.09 496.121 412.92 494.604C410.235 491.963 407.594 489.341 404.873 486.682C405.964 488.163 407.025 489.631 408.106 491.107ZM394.81 478.478C397.839 481.344 400.877 484.216 403.854 487.056C402.681 485.469 401.536 483.89 400.351 482.298C397.356 479.381 394.319 476.444 391.284 473.509C392.458 475.165 393.65 476.826 394.81 478.478ZM381.023 465.445C384.358 468.576 387.625 471.675 390.916 474.785C389.683 473.043 388.455 471.303 387.205 469.555C384.024 466.492 380.809 463.411 377.567 460.317C378.731 462.031 379.874 463.737 381.023 465.445ZM366.988 452.355C370.582 455.699 374.166 459.038 377.712 462.358C376.475 460.53 375.181 458.683 373.926 456.851C370.459 453.543 366.984 450.233 363.488 446.913C364.664 448.729 365.827 450.542 366.988 452.355ZM352.709 439.142C356.479 442.61 360.223 446.064 363.925 449.499C362.72 447.632 361.547 445.775 360.327 443.904C356.715 440.493 352.995 437.031 349.295 433.577C350.436 435.433 351.583 437.291 352.709 439.142ZM338.019 425.661C342.036 429.334 346.006 432.986 349.983 436.64C348.812 434.725 347.604 432.802 346.416 430.884C342.525 427.247 338.683 423.635 334.742 419.975C335.842 421.871 336.933 423.766 338.019 425.661ZM323.115 412.149C327.275 415.9 331.445 419.655 335.513 423.36C334.416 421.461 333.338 419.566 332.228 417.663C328.228 413.96 324.147 410.216 320.066 406.471C321.096 408.365 322.098 410.256 323.115 412.149ZM307.869 398.389C312.256 402.328 316.541 406.216 320.884 410.133C319.836 408.191 318.774 406.248 317.712 404.304C313.503 400.446 309.275 396.579 304.998 392.688C305.961 394.587 306.918 396.489 307.869 398.389ZM602.494 1441.92C602.973 1440.98 603.462 1440.05 603.952 1439.12C603.178 1437.16 602.396 1435.22 601.629 1433.27C601.203 1434.24 600.788 1435.22 600.371 1436.21C601.071 1438.11 601.783 1440.01 602.494 1441.92ZM600.483 1445.92C600.941 1444.99 601.408 1444.07 601.876 1443.15C601.181 1441.28 600.479 1439.42 599.793 1437.56C599.387 1438.52 598.994 1439.49 598.598 1440.46C599.22 1442.28 599.853 1444.1 600.483 1445.92ZM598.536 1449.95C598.973 1449.03 599.409 1448.11 599.855 1447.19C599.24 1445.42 598.63 1443.65 598.021 1441.88C597.64 1442.83 597.26 1443.77 596.887 1444.72C597.433 1446.46 597.979 1448.21 598.536 1449.95ZM596.655 1453.98C597.065 1453.08 597.475 1452.18 597.897 1451.28C597.356 1449.6 596.831 1447.92 596.304 1446.24C595.946 1447.16 595.583 1448.09 595.234 1449.01C595.703 1450.67 596.174 1452.32 596.655 1453.98ZM594.843 1457.99C595.225 1457.12 595.621 1456.26 596.013 1455.39C595.551 1453.8 595.091 1452.22 594.64 1450.64C594.303 1451.55 593.971 1452.47 593.644 1453.38C594.034 1454.92 594.442 1456.46 594.843 1457.99ZM593.098 1462.05C593.454 1461.2 593.823 1460.36 594.187 1459.52C593.799 1458.04 593.412 1456.56 593.032 1455.08C592.723 1455.96 592.432 1456.84 592.132 1457.73C592.452 1459.17 592.766 1460.61 593.098 1462.05ZM591.443 1466.09C591.768 1465.28 592.09 1464.48 592.421 1463.68C592.105 1462.31 591.803 1460.95 591.498 1459.59C591.219 1460.43 590.948 1461.28 590.676 1462.12C590.924 1463.44 591.185 1464.77 591.443 1466.09ZM589.855 1470.14C590.148 1469.37 590.435 1468.6 590.736 1467.84C590.495 1466.63 590.251 1465.41 590.017 1464.2C589.776 1464.97 589.528 1465.73 589.294 1466.51C589.481 1467.72 589.661 1468.92 589.855 1470.14ZM588.358 1474.11C588.603 1473.44 588.861 1472.77 589.112 1472.1C588.935 1471.02 588.77 1469.94 588.603 1468.86C588.395 1469.57 588.184 1470.28 587.982 1470.99C588.101 1472.03 588.231 1473.07 588.358 1474.11ZM586.956 1478.09C587.158 1477.5 587.37 1476.91 587.576 1476.33C587.464 1475.44 587.351 1474.55 587.241 1473.66C587.077 1474.26 586.917 1474.86 586.755 1475.47C586.823 1476.34 586.884 1477.21 586.956 1478.09ZM585.669 1481.94C585.813 1481.5 585.955 1481.06 586.102 1480.61C586.044 1479.95 585.984 1479.29 585.929 1478.63C585.813 1479.1 585.704 1479.57 585.589 1480.03C585.609 1480.67 585.644 1481.31 585.669 1481.94ZM584.508 1485.56C584.578 1485.34 584.641 1485.11 584.713 1484.88C584.696 1484.53 584.685 1484.19 584.668 1483.84C584.618 1484.06 584.574 1484.28 584.524 1484.51C584.519 1484.86 584.511 1485.21 584.508 1485.56ZM467.785 551.455C469.001 552.647 470.239 553.85 471.443 555.035C471.042 554.568 470.665 554.112 470.263 553.643C468.982 552.349 467.653 551.032 466.351 549.728C466.825 550.302 467.314 550.882 467.785 551.455ZM455.134 539.068C456.932 540.819 458.675 542.542 460.463 544.286C459.717 543.391 458.985 542.5 458.234 541.602C456.408 539.778 454.617 537.973 452.781 536.144C453.561 537.117 454.358 538.098 455.134 539.068ZM442.055 526.457C444.353 528.665 446.666 530.882 448.935 533.075C447.924 531.823 446.886 530.557 445.865 529.3C443.675 527.136 441.437 524.95 439.22 522.772C440.181 524.007 441.103 525.226 442.055 526.457ZM428.706 513.659C431.497 516.315 434.226 518.94 436.98 521.576C435.83 520.102 434.642 518.612 433.479 517.133C430.796 514.51 428.125 511.894 425.399 509.252C426.507 510.722 427.612 512.193 428.706 513.659ZM415.357 501.033C418.314 503.826 421.275 506.622 424.206 509.402C423.019 507.826 421.865 506.264 420.664 504.683C417.697 501.814 414.706 498.931 411.717 496.051C412.919 497.708 414.17 499.381 415.357 501.033ZM401.358 487.9C404.658 490.973 407.94 494.039 411.179 497.081C409.913 495.336 408.624 493.581 407.341 491.83C404.238 488.859 401.065 485.855 397.893 482.851C399.072 484.542 400.195 486.214 401.358 487.9ZM387.196 474.723C390.776 478.044 394.321 481.349 397.873 484.657C396.617 482.85 395.339 481.034 394.064 479.222C390.559 475.901 387.108 472.606 383.567 469.269C384.782 471.088 385.998 472.908 387.196 474.723ZM372.815 461.511C376.545 464.918 380.291 468.334 383.941 471.701C382.718 469.863 381.51 468.031 380.271 466.187C376.666 462.804 372.986 459.386 369.312 455.968C370.488 457.818 371.655 459.665 372.815 461.511ZM358.007 447.972C362.046 451.642 365.992 455.267 369.98 458.914C368.762 456.987 367.487 455.045 366.25 453.113C362.397 449.533 358.544 445.954 354.63 442.344C355.763 444.221 356.889 446.097 358.007 447.972ZM343.01 434.44C347.165 438.178 351.309 441.91 355.393 445.613C354.25 443.707 353.123 441.806 351.963 439.896C347.931 436.185 343.873 432.461 339.784 428.722C340.872 430.63 341.937 432.534 343.01 434.44ZM327.7 420.713C332.056 424.599 336.366 428.461 340.65 432.31C339.54 430.351 338.404 428.386 337.278 426.424C333.104 422.616 328.861 418.775 324.602 414.926C325.632 416.855 326.683 418.787 327.7 420.713ZM312.035 406.786C316.563 410.796 321.033 414.778 325.501 418.758C324.467 416.811 323.419 414.861 322.371 412.912C317.962 408.928 313.605 404.972 309.147 400.965C310.114 402.905 311.081 404.846 312.035 406.786ZM605.269 1449.32C605.821 1448.41 606.376 1447.49 606.938 1446.58C606.135 1444.59 605.341 1442.6 604.548 1440.61C604.054 1441.57 603.561 1442.53 603.076 1443.49C603.801 1445.43 604.531 1447.38 605.269 1449.32ZM603.013 1453.15C603.545 1452.23 604.067 1451.32 604.608 1450.41C603.886 1448.51 603.17 1446.61 602.46 1444.71C601.986 1445.65 601.507 1446.6 601.044 1447.54C601.695 1449.41 602.351 1451.28 603.013 1453.15ZM600.817 1456.98C601.323 1456.08 601.831 1455.18 602.349 1454.29C601.704 1452.47 601.059 1450.65 600.424 1448.84C599.971 1449.77 599.518 1450.71 599.076 1451.65C599.647 1453.43 600.236 1455.2 600.817 1456.98ZM598.678 1460.83C599.158 1459.95 599.655 1459.07 600.147 1458.18C599.576 1456.45 599.008 1454.72 598.446 1452.98C598.017 1453.91 597.6 1454.84 597.182 1455.76C597.675 1457.45 598.171 1459.14 598.678 1460.83ZM596.623 1464.71C597.076 1463.84 597.536 1462.98 597.999 1462.11C597.502 1460.46 597.022 1458.82 596.54 1457.17C596.133 1458.08 595.738 1459 595.343 1459.91C595.763 1461.51 596.192 1463.11 596.623 1464.71ZM594.639 1468.6C595.069 1467.74 595.491 1466.88 595.931 1466.03C595.512 1464.5 595.093 1462.96 594.687 1461.43C594.311 1462.31 593.935 1463.19 593.568 1464.08C593.92 1465.58 594.278 1467.09 594.639 1468.6ZM592.726 1472.49C593.123 1471.67 593.519 1470.84 593.925 1470.02C593.578 1468.58 593.242 1467.15 592.905 1465.71C592.559 1466.56 592.209 1467.41 591.872 1468.26C592.151 1469.67 592.433 1471.08 592.726 1472.49ZM590.894 1476.36C591.253 1475.58 591.628 1474.8 591.996 1474.03C591.719 1472.7 591.442 1471.38 591.175 1470.06C590.859 1470.88 590.549 1471.7 590.241 1472.53C590.453 1473.8 590.674 1475.08 590.894 1476.36ZM589.146 1480.27C589.469 1479.54 589.801 1478.8 590.131 1478.07C589.919 1476.86 589.72 1475.66 589.515 1474.46C589.234 1475.23 588.968 1476.01 588.694 1476.79C588.84 1477.95 588.989 1479.11 589.146 1480.27ZM587.5 1484.14C587.783 1483.46 588.058 1482.78 588.347 1482.11C588.202 1481.07 588.048 1480.04 587.911 1479C587.674 1479.7 587.444 1480.39 587.212 1481.09C587.304 1482.1 587.401 1483.12 587.5 1484.14ZM585.943 1487.96C586.172 1487.38 586.397 1486.8 586.63 1486.22C586.54 1485.36 586.467 1484.49 586.385 1483.62C586.196 1484.21 585.997 1484.8 585.813 1485.39C585.853 1486.24 585.896 1487.1 585.943 1487.96ZM584.513 1491.64C584.674 1491.21 584.848 1490.78 585.012 1490.35C584.974 1489.72 584.932 1489.09 584.897 1488.45C584.766 1488.89 584.63 1489.33 584.502 1489.77C584.505 1490.4 584.507 1491.02 584.513 1491.64ZM583.218 1495.22L583.455 1494.56C583.449 1494.24 583.437 1493.92 583.432 1493.6L583.249 1494.28C583.235 1494.59 583.231 1494.91 583.218 1495.22ZM489.285 574.464C490.285 575.446 491.303 576.434 492.305 577.414C491.929 576.98 491.564 576.553 491.186 576.119C490.134 575.064 489.049 573.991 487.988 572.932C488.412 573.438 488.862 573.958 489.285 574.464ZM476.094 561.628C477.853 563.322 479.579 564.998 481.311 566.678C480.584 565.818 479.848 564.953 479.117 564.09C477.35 562.336 475.649 560.617 473.863 558.854C474.621 559.785 475.341 560.699 476.094 561.628ZM462.998 549.058C465.344 551.314 467.708 553.576 470.051 555.828C469.033 554.584 467.951 553.31 466.923 552.062C464.672 549.852 462.389 547.628 460.127 545.412C461.091 546.63 462.042 547.844 462.998 549.058ZM449.727 536.431C452.346 538.902 454.971 541.374 457.536 543.817C456.446 542.445 455.409 541.096 454.309 539.719C451.683 537.169 449.011 534.595 446.33 532.016C447.456 533.485 448.613 534.968 449.727 536.431ZM436.009 523.482C438.999 526.295 441.944 529.085 444.914 531.888C443.703 530.309 442.492 528.731 441.265 527.147C438.346 524.34 435.454 521.547 432.512 518.73C433.689 520.318 434.846 521.9 436.009 523.482ZM422.032 510.466C425.321 513.515 428.622 516.57 431.849 519.587C430.567 517.855 429.225 516.098 427.927 514.36C424.814 511.397 421.63 508.4 418.457 505.408C419.665 507.101 420.84 508.779 422.032 510.466ZM407.798 497.279C411.343 500.544 414.817 503.772 418.315 507.014C417.062 505.256 415.86 503.517 414.591 501.753C411.103 498.467 407.627 495.186 404.086 491.872C405.32 493.675 406.58 495.484 407.798 497.279ZM393.245 483.966C396.989 487.383 400.724 490.795 404.415 494.185C403.154 492.338 401.883 490.487 400.603 488.634C396.999 485.269 393.362 481.889 389.711 478.502C390.91 480.33 392.063 482.144 393.245 483.966ZM378.405 470.492C382.386 474.087 386.343 477.669 390.252 481.229C389.002 479.313 387.715 477.385 386.446 475.465C382.641 471.948 378.772 468.399 374.889 464.843C376.067 466.727 377.244 468.612 378.405 470.492ZM363.249 456.829C367.41 460.568 371.523 464.282 375.642 468C374.452 466.087 373.275 464.178 372.068 462.259C368.009 458.543 363.995 454.847 359.89 451.107C361.023 453.018 362.132 454.922 363.249 456.829ZM347.863 443.124C352.186 446.955 356.528 450.798 360.756 454.583C359.609 452.634 358.426 450.677 357.261 448.725C353.108 444.955 348.862 441.138 344.622 437.325C345.703 439.258 346.797 441.193 347.863 443.124ZM332.077 429.126C336.611 433.127 341.057 437.084 345.537 441.056C344.451 439.104 343.362 437.151 342.261 435.196C337.889 431.264 333.523 427.334 329.086 423.37C330.093 425.289 331.083 427.207 332.077 429.126ZM316.08 415.104C320.748 419.183 325.396 423.25 329.977 427.285C328.968 425.349 327.978 423.414 326.957 421.476C322.439 417.446 317.885 413.398 313.293 409.33C314.234 411.255 315.15 413.179 316.08 415.104ZM608.107 1456.74C608.731 1455.84 609.353 1454.95 609.986 1454.06C609.159 1452.05 608.34 1450.03 607.524 1448.02C606.956 1448.94 606.388 1449.87 605.834 1450.8C606.587 1452.78 607.341 1454.76 608.107 1456.74ZM605.594 1460.38C606.194 1459.5 606.802 1458.61 607.411 1457.73C606.66 1455.79 605.92 1453.85 605.181 1451.91C604.635 1452.83 604.098 1453.76 603.561 1454.68C604.233 1456.58 604.906 1458.48 605.594 1460.38ZM603.152 1464.02C603.724 1463.15 604.317 1462.29 604.9 1461.42C604.223 1459.55 603.559 1457.69 602.895 1455.82C602.369 1456.74 601.859 1457.67 601.344 1458.6C601.94 1460.4 602.544 1462.21 603.152 1464.02ZM600.781 1467.72C601.334 1466.85 601.89 1465.98 602.453 1465.11C601.855 1463.34 601.257 1461.57 600.673 1459.8C600.172 1460.71 599.677 1461.62 599.186 1462.53C599.712 1464.26 600.246 1465.99 600.781 1467.72ZM598.468 1471.44C599 1470.57 599.523 1469.7 600.065 1468.84C599.543 1467.15 599.029 1465.47 598.515 1463.79C598.044 1464.68 597.564 1465.57 597.104 1466.46C597.553 1468.12 598.002 1469.78 598.468 1471.44ZM596.242 1475.14C596.739 1474.3 597.241 1473.46 597.748 1472.62C597.296 1471.02 596.856 1469.42 596.419 1467.82C595.969 1468.7 595.524 1469.59 595.084 1470.47C595.462 1472.03 595.854 1473.58 596.242 1475.14ZM594.077 1478.86C594.543 1478.04 595.031 1477.22 595.507 1476.4C595.13 1474.9 594.747 1473.4 594.379 1471.9C593.96 1472.76 593.557 1473.62 593.149 1474.49C593.455 1475.95 593.758 1477.4 594.077 1478.86ZM592.013 1482.61C592.444 1481.82 592.882 1481.03 593.323 1480.23C593.013 1478.83 592.717 1477.42 592.42 1476.02C592.03 1476.86 591.649 1477.71 591.268 1478.55C591.507 1479.9 591.762 1481.26 592.013 1482.61ZM590.015 1486.39C590.418 1485.61 590.812 1484.83 591.226 1484.06C590.986 1482.78 590.744 1481.51 590.514 1480.24C590.167 1481.03 589.816 1481.81 589.477 1482.61C589.654 1483.87 589.826 1485.13 590.015 1486.39ZM588.123 1490.11C588.477 1489.39 588.835 1488.68 589.198 1487.97C589.02 1486.81 588.851 1485.65 588.687 1484.5C588.372 1485.25 588.051 1486 587.745 1486.75C587.862 1487.87 587.998 1488.99 588.123 1490.11ZM586.305 1493.84C586.615 1493.19 586.942 1492.54 587.258 1491.89C587.139 1490.87 587.028 1489.86 586.916 1488.85C586.649 1489.53 586.384 1490.21 586.124 1490.89C586.184 1491.87 586.235 1492.86 586.305 1493.84ZM584.627 1497.53C584.879 1496.96 585.134 1496.4 585.392 1495.84C585.328 1495 585.255 1494.17 585.197 1493.33C584.979 1493.92 584.773 1494.52 584.561 1495.11C584.578 1495.91 584.603 1496.72 584.627 1497.53ZM583.042 1501.15C583.229 1500.71 583.409 1500.27 583.599 1499.83C583.577 1499.2 583.566 1498.57 583.548 1497.93C583.389 1498.39 583.244 1498.86 583.09 1499.33C583.074 1499.93 583.053 1500.54 583.042 1501.15ZM581.652 1504.46C581.737 1504.25 581.83 1504.04 581.916 1503.83L581.923 1502.88C581.858 1503.09 581.785 1503.29 581.72 1503.5L581.652 1504.46ZM510.496 597.017L513.543 599.988L512.567 598.877C511.557 597.871 510.529 596.855 509.518 595.848C509.851 596.241 510.165 596.625 510.496 597.017ZM497.481 584.454C499.229 586.126 500.997 587.812 502.716 589.472C501.955 588.58 501.156 587.67 500.389 586.777C498.695 585.106 496.978 583.424 495.253 581.738C496.003 582.646 496.737 583.548 497.481 584.454ZM484.261 571.782C486.569 573.98 488.806 576.143 491.096 578.331C490.181 577.229 489.321 576.154 488.399 575.049C486.056 572.763 483.729 570.482 481.373 568.19C482.333 569.386 483.31 570.59 484.261 571.782ZM471.046 559.307C473.577 561.691 476.124 564.083 478.624 566.45C477.497 565.052 476.388 563.66 475.25 562.257C472.748 559.842 470.186 557.396 467.643 554.959C468.768 556.405 469.933 557.867 471.046 559.307ZM457.041 546.153C460.04 548.949 462.989 551.72 465.942 554.494C464.711 552.914 463.44 551.317 462.192 549.731C459.329 546.994 456.493 544.27 453.59 541.512C454.762 543.069 455.88 544.602 457.041 546.153ZM443.005 533.125C446.292 536.171 449.576 539.215 452.832 542.246C451.552 540.549 450.248 538.842 448.951 537.137C445.765 534.12 442.544 531.087 439.325 528.054C440.558 529.747 441.787 531.439 443.005 533.125ZM428.803 520.059C432.243 523.204 435.681 526.347 439.051 529.456C437.773 527.698 436.525 525.953 435.229 524.189C431.857 521.028 428.422 517.834 424.979 514.637C426.243 516.441 427.555 518.263 428.803 520.059ZM413.972 506.501C417.761 509.948 421.471 513.356 425.219 516.783C423.92 514.926 422.584 513.055 421.267 511.19C417.633 507.817 414.042 504.465 410.369 501.071C411.593 502.89 412.765 504.688 413.972 506.501ZM399.135 493.119C403.065 496.651 407.003 500.187 410.855 503.679C409.593 501.796 408.333 499.915 407.052 498.025C403.25 494.526 399.363 490.984 395.484 487.447C396.702 489.338 397.936 491.234 399.135 493.119ZM383.861 479.408C388.018 483.12 392.112 486.799 396.206 490.479C394.975 488.56 393.743 486.637 392.493 484.712C388.496 481.066 384.49 477.417 380.428 473.739C381.59 475.634 382.715 477.518 383.861 479.408ZM368.372 465.645C372.704 469.483 377.012 473.309 381.28 477.114C380.09 475.164 378.873 473.206 377.665 471.25C373.47 467.459 369.248 463.654 364.995 459.833C366.123 461.771 367.26 463.71 368.372 465.645ZM352.539 451.691C357.03 455.632 361.51 459.567 365.917 463.464C364.785 461.506 363.651 459.549 362.502 457.586C358.199 453.731 353.811 449.832 349.419 445.93C350.476 447.854 351.496 449.771 352.539 451.691ZM336.425 437.566C341.106 441.652 345.703 445.696 350.329 449.753C349.262 447.799 348.201 445.845 347.118 443.888C342.56 439.837 338.05 435.811 333.431 431.732C334.435 433.677 335.434 435.623 336.425 437.566ZM320.067 423.401C324.876 427.55 329.697 431.707 334.398 435.8C333.391 433.832 332.351 431.862 331.331 429.892C326.709 425.818 321.992 421.696 317.271 417.57C318.205 419.514 319.143 421.458 320.067 423.401ZM611.008 1464.15C611.7 1463.29 612.403 1462.44 613.106 1461.58C612.254 1459.54 611.397 1457.5 610.553 1455.46C609.913 1456.36 609.286 1457.26 608.656 1458.17C609.432 1460.16 610.223 1462.16 611.008 1464.15ZM608.249 1467.62C608.918 1466.76 609.603 1465.91 610.284 1465.06C609.51 1463.09 608.732 1461.13 607.965 1459.16C607.347 1460.06 606.741 1460.96 606.135 1461.86C606.836 1463.78 607.538 1465.7 608.249 1467.62ZM605.559 1471.12C606.207 1470.26 606.859 1469.41 607.521 1468.56C606.82 1466.67 606.13 1464.78 605.442 1462.89C604.848 1463.78 604.255 1464.67 603.673 1465.56C604.296 1467.41 604.92 1469.27 605.559 1471.12ZM602.946 1474.62C603.57 1473.77 604.189 1472.92 604.824 1472.08C604.198 1470.27 603.585 1468.46 602.973 1466.65C602.402 1467.53 601.827 1468.42 601.269 1469.31C601.819 1471.08 602.383 1472.85 602.946 1474.62ZM600.391 1478.15C600.989 1477.31 601.596 1476.47 602.207 1475.63C601.656 1473.9 601.1 1472.18 600.56 1470.45C600.015 1471.33 599.476 1472.21 598.941 1473.09C599.42 1474.78 599.901 1476.46 600.391 1478.15ZM597.915 1481.69C598.481 1480.86 599.064 1480.04 599.642 1479.22C599.159 1477.57 598.69 1475.92 598.222 1474.27C597.699 1475.14 597.195 1476.02 596.685 1476.9C597.088 1478.49 597.497 1480.09 597.915 1481.69ZM595.524 1485.27C596.063 1484.45 596.607 1483.63 597.158 1482.82C596.75 1481.26 596.342 1479.71 595.947 1478.16C595.458 1479.02 594.972 1479.87 594.492 1480.73C594.829 1482.24 595.175 1483.76 595.524 1485.27ZM593.205 1488.87C593.715 1488.06 594.216 1487.25 594.737 1486.45C594.399 1485 594.072 1483.54 593.745 1482.09C593.289 1482.92 592.823 1483.74 592.378 1484.57C592.647 1486 592.922 1487.43 593.205 1488.87ZM590.972 1492.46C591.444 1491.68 591.923 1490.91 592.403 1490.13C592.132 1488.78 591.86 1487.42 591.601 1486.07C591.177 1486.88 590.755 1487.68 590.342 1488.49C590.549 1489.81 590.757 1491.13 590.972 1492.46ZM588.828 1496.05C589.254 1495.32 589.699 1494.59 590.135 1493.86C589.926 1492.6 589.732 1491.34 589.535 1490.09C589.144 1490.87 588.768 1491.66 588.385 1492.44C588.526 1493.64 588.676 1494.85 588.828 1496.05ZM586.78 1499.68C587.17 1498.98 587.563 1498.28 587.963 1497.58C587.816 1496.46 587.659 1495.33 587.523 1494.22C587.177 1494.94 586.849 1495.68 586.513 1496.41C586.601 1497.5 586.684 1498.59 586.78 1499.68ZM584.839 1503.27C585.177 1502.63 585.504 1501.99 585.85 1501.35C585.758 1500.37 585.681 1499.39 585.601 1498.41C585.301 1499.08 584.999 1499.76 584.705 1500.43C584.74 1501.38 584.795 1502.33 584.839 1503.27ZM582.993 1506.83C583.273 1506.28 583.559 1505.72 583.845 1505.17C583.803 1504.36 583.765 1503.56 583.726 1502.75C583.49 1503.31 583.245 1503.87 583.014 1504.44C583.009 1505.24 582.992 1506.03 582.993 1506.83ZM581.313 1510.27C581.51 1509.86 581.716 1509.45 581.916 1509.04C581.91 1508.45 581.892 1507.87 581.891 1507.29C581.724 1507.72 581.556 1508.14 581.392 1508.57C581.361 1509.13 581.34 1509.7 581.313 1510.27ZM579.756 1513.63L580.063 1512.96C580.073 1512.65 580.093 1512.35 580.106 1512.04L579.857 1512.74C579.826 1513.04 579.787 1513.34 579.756 1513.63ZM531.96 619.643C533.094 620.735 534.175 621.8 535.297 622.886L534.653 622.161L531.129 618.666L531.96 619.643ZM519.176 607.397C520.922 609.072 522.69 610.758 524.434 612.432C523.734 611.623 523.056 610.822 522.351 610.011C520.593 608.286 518.784 606.536 517.003 604.799C517.726 605.663 518.459 606.534 519.176 607.397ZM506.05 594.895C508.137 596.862 510.214 598.825 512.261 600.771C511.356 599.694 510.479 598.632 509.566 597.551C507.365 595.414 505.207 593.3 502.976 591.148C503.985 592.39 505.05 593.657 506.05 594.895ZM492.322 581.956C494.903 584.384 497.474 586.809 500.046 589.235C498.91 587.844 497.757 586.445 496.609 585.05C494.164 582.701 491.687 580.336 489.232 577.982C490.288 579.318 491.276 580.624 492.322 581.956ZM478.425 569.001C481.4 571.756 484.393 574.519 487.305 577.241C486.043 575.648 484.703 574.019 483.427 572.42C480.626 569.757 477.76 567.06 474.896 564.364C476.086 565.916 477.25 567.455 478.425 569.001ZM464.276 555.882C467.539 558.889 470.714 561.85 473.94 564.838C472.689 563.209 471.497 561.604 470.232 559.967C466.977 556.902 463.77 553.861 460.481 550.778C461.741 552.477 463.032 554.189 464.276 555.882ZM449.91 542.748C453.361 545.895 456.814 549.045 460.211 552.165C458.899 550.395 457.583 548.623 456.254 546.845C452.936 543.75 449.552 540.62 446.176 537.495C447.434 539.251 448.67 540.999 449.91 542.748ZM435.101 529.287C438.872 532.695 442.605 536.083 446.311 539.457C444.98 537.595 443.577 535.703 442.228 533.831C438.638 530.514 435.033 527.189 431.382 523.839C432.639 525.662 433.863 527.471 435.101 529.287ZM420.156 515.819C424.067 519.335 427.954 522.839 431.824 526.334C430.548 524.476 429.321 522.638 428.028 520.773C424.166 517.236 420.284 513.688 416.379 510.128C417.632 512.022 418.921 513.93 420.156 515.819ZM404.8 502.121C408.911 505.77 413.038 509.427 417.062 513.031C415.794 511.106 414.505 509.172 413.218 507.24C409.305 503.687 405.294 500.084 401.296 496.486C402.489 498.373 403.624 500.24 404.8 502.121ZM389.192 488.265C393.538 492.103 397.789 495.893 402.076 499.701C400.855 497.759 399.624 495.812 398.382 493.863C394.162 490.063 389.973 486.28 385.693 482.45C386.86 484.389 388.042 486.331 389.192 488.265ZM373.309 474.337C377.783 478.249 382.258 482.163 386.649 486.034C385.477 484.078 384.301 482.119 383.111 480.158C378.816 476.324 374.445 472.449 370.07 468.575C371.171 470.5 372.224 472.414 373.309 474.337ZM357.173 460.26C361.816 464.294 366.423 468.307 370.988 472.301C369.874 470.336 368.755 468.369 367.624 466.401C363.123 462.416 358.578 458.409 353.997 454.384C355.053 456.341 356.132 458.305 357.173 460.26ZM340.661 445.967C345.476 450.122 350.252 454.257 354.997 458.378C353.941 456.403 352.859 454.423 351.786 452.448C347.119 448.348 342.438 444.242 337.708 440.111C338.696 442.063 339.685 444.015 340.661 445.967ZM323.921 431.608C328.859 435.826 333.81 440.054 338.646 444.22C337.658 442.256 336.673 440.292 335.673 438.327C330.922 434.186 326.047 429.981 321.186 425.783C322.103 427.725 323.015 429.666 323.921 431.608ZM339.904 446.718C335.009 442.496 330.014 438.224 325.023 433.951C408.619 613.953 444.854 794.134 481.049 974.105C503.028 1083.39 524.997 1192.6 557.55 1301.64C532.82 1206.65 516.851 1111.88 500.793 1016.55C469.466 830.598 437.77 642.537 339.904 446.718ZM356.411 461.003C351.628 456.848 346.783 452.661 341.921 448.463C439.008 643.655 470.586 831.138 501.818 1016.53C518.751 1117.04 535.59 1216.94 562.709 1317.11C542.356 1228.86 530.686 1141.16 518.911 1052.61C493.793 863.693 468.172 670.956 356.411 461.003ZM491.471 582.574C488.369 579.667 485.245 576.747 482.085 573.808C715.259 882.868 666.586 1067.13 620.81 1240.16C607.612 1290.05 594.668 1339.01 588.821 1389.77M613.967 1471.6C614.729 1470.78 615.501 1469.95 616.276 1469.14C615.399 1467.07 614.531 1465 613.666 1462.93C612.956 1463.79 612.249 1464.66 611.552 1465.53C612.35 1467.56 613.156 1469.58 613.967 1471.6ZM610.974 1474.89C611.717 1474.07 612.457 1473.24 613.212 1472.42C612.411 1470.42 611.616 1468.43 610.828 1466.44C610.14 1467.31 609.447 1468.17 608.771 1469.04C609.497 1470.99 610.237 1472.94 610.974 1474.89ZM608.039 1478.21C608.761 1477.38 609.481 1476.56 610.215 1475.73C609.49 1473.82 608.76 1471.9 608.045 1469.99C607.382 1470.85 606.718 1471.71 606.067 1472.57C606.719 1474.45 607.375 1476.33 608.039 1478.21ZM605.175 1481.54C605.867 1480.72 606.571 1479.9 607.277 1479.09C606.623 1477.24 605.978 1475.39 605.335 1473.54C604.691 1474.4 604.063 1475.27 603.43 1476.14C604.005 1477.94 604.584 1479.74 605.175 1481.54ZM602.387 1484.89C603.052 1484.07 603.734 1483.26 604.413 1482.45C603.831 1480.68 603.257 1478.91 602.69 1477.14C602.068 1478.01 601.457 1478.87 600.847 1479.74C601.351 1481.45 601.872 1483.17 602.387 1484.89ZM599.666 1488.29C600.312 1487.47 600.956 1486.65 601.614 1485.84C601.107 1484.16 600.597 1482.48 600.102 1480.8C599.515 1481.65 598.927 1482.49 598.352 1483.34C598.784 1484.99 599.216 1486.64 599.666 1488.29ZM597.041 1491.68C597.653 1490.88 598.259 1490.07 598.882 1489.28C598.444 1487.67 598.021 1486.07 597.597 1484.47C597.034 1485.31 596.466 1486.15 595.915 1486.99C596.281 1488.55 596.662 1490.12 597.041 1491.68ZM594.47 1495.11C595.053 1494.32 595.646 1493.53 596.24 1492.74C595.872 1491.22 595.498 1489.71 595.141 1488.2C594.612 1489.03 594.09 1489.85 593.572 1490.68C593.867 1492.16 594.158 1493.63 594.47 1495.11ZM592.011 1498.53C592.55 1497.77 593.108 1497.01 593.658 1496.24C593.352 1494.81 593.06 1493.38 592.772 1491.95C592.266 1492.77 591.781 1493.6 591.287 1494.43C591.517 1495.79 591.769 1497.16 592.011 1498.53ZM589.621 1502.02C590.133 1501.26 590.644 1500.51 591.166 1499.75C590.929 1498.43 590.694 1497.12 590.466 1495.8C590.006 1496.58 589.552 1497.37 589.102 1498.16C589.271 1499.44 589.438 1500.73 589.621 1502.02ZM587.342 1505.48C587.81 1504.76 588.27 1504.03 588.748 1503.31C588.573 1502.1 588.402 1500.89 588.239 1499.69C587.821 1500.44 587.391 1501.18 586.982 1501.94C587.095 1503.12 587.219 1504.3 587.342 1505.48ZM585.146 1508.95C585.563 1508.28 585.989 1507.6 586.415 1506.93C586.295 1505.83 586.191 1504.74 586.082 1503.65C585.706 1504.36 585.328 1505.07 584.96 1505.78C585.015 1506.84 585.079 1507.89 585.146 1508.95ZM583.065 1512.41C583.428 1511.79 583.806 1511.18 584.176 1510.56C584.111 1509.62 584.034 1508.67 583.976 1507.72C583.653 1508.37 583.341 1509.01 583.025 1509.66C583.038 1510.58 583.045 1511.49 583.065 1512.41ZM581.111 1515.85C581.407 1515.32 581.702 1514.79 582.004 1514.26C581.981 1513.45 581.97 1512.65 581.957 1511.85C581.682 1512.43 581.427 1513.03 581.158 1513.61C581.133 1514.35 581.129 1515.1 581.111 1515.85ZM579.274 1519.22C579.501 1518.79 579.715 1518.35 579.946 1517.93C579.955 1517.35 579.971 1516.78 579.982 1516.21C579.794 1516.63 579.609 1517.07 579.422 1517.5C579.377 1518.07 579.317 1518.64 579.274 1519.22ZM577.655 1522.32C577.757 1522.12 577.867 1521.92 577.97 1521.72C577.989 1521.43 578.001 1521.15 578.02 1520.86C577.936 1521.07 577.845 1521.28 577.762 1521.48L577.655 1522.32ZM304.333 411.233C305.18 413.17 306.036 415.106 306.874 417.044C312.006 421.403 317.006 425.695 322.052 430.01C321.139 428.059 320.23 426.107 319.303 424.155C314.325 419.853 309.388 415.574 304.333 411.233ZM300.8 403.207C301.654 405.13 302.502 407.056 303.348 408.981C308.344 413.269 313.241 417.505 318.168 421.757C317.23 419.793 316.271 417.829 315.323 415.864C310.505 411.657 305.688 407.45 300.8 403.207ZM297.179 395.131C298.047 397.05 298.904 398.971 299.761 400.893C304.588 405.08 309.377 409.247 314.131 413.398C313.185 411.445 312.239 409.495 311.28 407.542C306.631 403.431 301.904 399.28 297.179 395.131ZM293.468 387C294.354 388.928 295.249 390.856 296.126 392.785C300.767 396.859 305.446 400.95 310.013 404.987C309.052 403.039 308.089 401.093 307.115 399.145C302.636 395.131 298.026 391.052 293.468 387ZM289.691 378.827C290.586 380.743 291.471 382.662 292.356 384.579C296.871 388.592 301.41 392.614 305.845 396.588C304.871 394.65 303.87 392.711 302.886 390.774C298.524 386.809 294.135 382.832 289.691 378.827ZM285.861 370.687C286.749 372.559 287.627 374.436 288.507 376.311C292.9 380.266 297.205 384.178 301.52 388.097C300.533 386.165 299.553 384.231 298.553 382.3C294.399 378.466 290.095 374.561 285.861 370.687ZM281.897 362.421C282.816 364.323 283.743 366.225 284.652 368.129C288.769 371.892 293.009 375.712 297.055 379.439C296.072 377.553 295.084 375.668 294.09 373.782C290.079 370.019 285.984 366.22 281.897 362.421ZM277.871 354.134C278.795 356.014 279.71 357.898 280.624 359.782C284.606 363.477 288.652 367.202 292.56 370.863C291.563 368.981 290.542 367.099 289.533 365.217C285.678 361.536 281.8 357.847 277.871 354.134ZM273.748 345.794C274.679 347.658 275.597 349.526 276.517 351.392C280.327 354.989 284.144 358.589 287.885 362.153C286.89 360.312 285.911 358.471 284.907 356.629C281.198 353.023 277.527 349.432 273.748 345.794ZM269.506 337.386C270.45 339.246 271.399 341.102 272.333 342.963C275.964 346.455 279.55 349.926 283.114 353.389C282.108 351.555 281.092 349.723 280.074 347.889C276.544 344.385 273.099 340.918 269.506 337.386ZM265.253 329.07C266.179 330.864 267.104 332.659 268.021 334.455C271.476 337.845 274.839 341.194 278.232 344.557C277.215 342.741 276.174 340.924 275.148 339.108C271.85 335.763 268.603 332.437 265.253 329.07ZM260.932 320.75C261.829 322.456 262.707 324.167 263.594 325.875C266.832 329.125 269.939 332.318 273.123 335.544C272.129 333.8 271.15 332.055 270.146 330.31C267.092 327.13 264.035 323.95 260.932 320.75ZM256.465 312.34C257.358 314.011 258.25 315.682 259.133 317.356C262.095 320.401 264.963 323.408 267.887 326.44C266.895 324.729 265.898 323.019 264.894 321.31C262.116 318.331 259.289 315.336 256.465 312.34ZM251.946 303.955C252.821 305.563 253.703 307.169 254.57 308.779C257.243 311.605 259.869 314.413 262.509 317.226C261.527 315.565 260.516 313.904 259.524 312.243C257.039 309.494 254.473 306.718 251.946 303.955ZM247.398 295.628C248.219 297.113 249.022 298.6 249.836 300.085C252.175 302.635 254.506 305.181 256.815 307.72C255.916 306.227 255.021 304.734 254.114 303.242C251.906 300.713 249.639 298.165 247.398 295.628ZM242.708 287.24C243.475 288.603 244.236 289.97 244.998 291.335C246.952 293.54 248.928 295.752 250.861 297.949C250.082 296.684 249.308 295.418 248.525 294.152C246.591 291.849 244.666 289.55 242.708 287.24ZM238.12 279.157C238.764 280.283 239.415 281.406 240.055 282.533C241.55 284.287 243.083 286.052 244.563 287.801C243.969 286.852 243.365 285.903 242.767 284.955C241.216 283.021 239.688 281.094 238.12 279.157ZM233.896 271.795C234.244 272.391 234.583 272.99 234.927 273.586C235.859 274.729 236.816 275.879 237.74 277.018C237.456 276.576 237.163 276.134 236.879 275.69L233.896 271.795ZM617.284 1458.59C618.236 1460.76 619.192 1462.93 620.156 1465.09C645.612 1438.99 676.801 1414.96 708.595 1390.47C770.456 1342.83 834.576 1293.45 862.796 1223.69C904.167 1121.43 868.358 975.141 635.407 725.906C853.016 967.248 881.986 1111.03 839.793 1214.19C812.621 1280.63 755.955 1330.15 701.153 1378.04C670.843 1404.53 641.113 1430.52 617.284 1458.59ZM613.891 1450.85C614.823 1452.99 615.769 1455.14 616.711 1457.28C640.549 1429.29 670.208 1403.36 700.445 1376.94C755.165 1329.12 811.75 1279.67 838.835 1213.45C882.25 1107.3 849.817 957.822 612.496 702.396C834.943 950.751 860.045 1098.13 815.553 1205.65C789.763 1267.98 740.598 1316.85 692.931 1364.23C664.216 1392.77 636.05 1420.77 613.891 1450.85ZM610.576 1443.12C611.482 1445.24 612.39 1447.37 613.308 1449.49C635.473 1419.53 663.556 1391.61 692.18 1363.16C739.785 1315.84 788.884 1267.04 814.597 1204.9C860.383 1094.26 832.005 941.099 589.096 678.197C817.774 935.123 838.1 1086.7 790.907 1199.33C766.807 1256.84 725.115 1304.15 684.577 1350.14C657.522 1380.84 630.995 1410.95 610.576 1443.12ZM607.304 1435.42C608.191 1437.52 609.08 1439.62 609.977 1441.73C630.404 1409.7 656.837 1379.7 683.79 1349.12C724.279 1303.18 765.922 1255.93 789.955 1198.57C838.269 1083.27 815.481 926.921 569.11 657.527L567.924 656.352C802.056 922.036 815.876 1077.77 765.642 1196.05C743.671 1247.78 709.456 1292.31 676.08 1335.75C650.753 1368.71 625.918 1401.05 607.304 1435.42ZM604.086 1427.76C604.95 1429.83 605.826 1431.9 606.697 1433.97C625.32 1399.78 650.043 1367.59 675.255 1334.77C708.594 1291.38 742.77 1246.9 764.692 1195.29C815.501 1075.65 800.427 917.466 556.48 645.01C555.305 643.852 554.18 642.72 552.994 641.555C788.394 914.15 792.839 1073.1 739.342 1197.23C720.149 1241.77 693.509 1281.81 667.422 1321.01C643.891 1356.37 620.816 1391.06 604.086 1427.76ZM600.938 1420.11C601.774 1422.15 602.608 1424.19 603.454 1426.23C620.2 1389.76 643.157 1355.25 666.56 1320.08C692.624 1280.91 719.238 1240.92 738.394 1196.47C792.311 1071.36 787.143 910.723 544.296 633.076C542.551 631.372 540.783 629.659 539.037 627.954C841.223 986.092 746.524 1151.96 658.583 1305.88C636.93 1343.78 615.701 1380.95 600.938 1420.11ZM597.827 1412.48C598.64 1414.49 599.457 1416.5 600.277 1418.5C615.065 1379.62 636.167 1342.67 657.686 1305.01C746.088 1150.29 841.293 983.438 530.977 620.117C529.066 618.271 527.091 616.392 525.139 614.526C809.642 960.3 726.693 1131.23 649.532 1290.3C629.841 1330.89 610.531 1370.71 597.827 1412.48ZM594.777 1404.9C595.562 1406.86 596.351 1408.82 597.142 1410.78C609.883 1369.34 629.055 1329.8 648.606 1289.49C726.108 1129.72 809.351 957.9 518.25 607.931C515.711 605.504 513.225 603.105 510.661 600.664C778.055 934.347 706.795 1110.16 640.246 1274.21C622.608 1317.69 605.317 1360.34 594.777 1404.9ZM591.776 1397.31C592.527 1399.23 593.278 1401.14 594.038 1403.06C604.634 1358.9 621.795 1316.59 639.289 1273.47C706.068 1108.85 777.654 932.377 505.178 595.487C502.301 592.763 499.371 590.013 496.454 587.268C746.561 908.599 686.756 1088.84 630.688 1257.53C615.213 1304.09 600.037 1349.77 591.776 1397.31ZM585.916 1382.25C586.599 1384.02 587.282 1385.79 587.968 1387.57C593.929 1337.38 606.746 1288.93 619.804 1239.56C665.721 1065.99 714.526 881.092 477.606 569.656C474.272 566.557 470.93 563.455 467.567 560.342C684.105 857.152 646.259 1044.96 610.564 1221.99C599.778 1275.49 589.197 1328 585.916 1382.25ZM583.058 1374.74C583.699 1376.44 584.336 1378.13 584.986 1379.83C588.422 1326.26 598.879 1274.34 609.541 1221.47C645.344 1043.89 683.295 855.461 463.485 556.566C459.938 553.301 456.293 549.984 452.665 546.677C653.003 831.315 625.745 1022.22 599.884 1202.87C591.662 1260.3 583.597 1316.69 583.058 1374.74ZM580.242 1367.27C580.827 1368.84 581.425 1370.4 582.015 1371.97C582.768 1314.74 590.734 1259.08 598.845 1202.42C624.779 1021.26 652.156 829.802 449.117 543.436C445.29 539.945 441.481 536.463 437.597 532.943C622.11 805.413 604.994 998.796 588.686 1182.61C583.207 1244.36 577.827 1305.03 580.242 1367.27ZM577.476 1359.79C578.011 1361.24 578.541 1362.68 579.078 1364.12C576.948 1302.86 582.242 1243.07 587.64 1182.23C603.993 997.915 621.148 803.959 434.323 529.993C430.376 526.424 426.378 522.829 422.371 519.228C591.351 779.43 583.946 974.574 576.865 1160.98C574.338 1227.51 571.862 1292.93 577.476 1359.79ZM574.748 1352.35C575.208 1353.61 575.666 1354.88 576.13 1356.15C570.892 1290.44 573.333 1226.1 575.818 1160.68C582.919 973.759 590.358 778.05 419.395 516.547C415.231 512.811 411.002 509.043 406.755 505.266C560.662 753.157 562.531 949.301 564.291 1137.66C564.963 1209.54 565.631 1280.29 574.748 1352.35ZM572.061 1344.93C572.426 1345.95 572.799 1346.97 573.165 1347.98C564.556 1277.35 563.901 1207.93 563.242 1137.43C561.479 948.559 559.605 751.854 404.034 502.849C399.698 498.992 395.379 495.144 390.989 491.259C530.171 726.632 540.651 922.754 550.788 1112.25C554.957 1190.18 559.069 1266.98 572.061 1344.93ZM569.403 1337.47L570.151 1339.58C557.844 1263.4 553.817 1188.28 549.741 1112.08C539.576 922.061 529.035 725.356 388.439 489.006C383.987 485.078 379.416 481.09 374.868 477.111C499.686 699.656 518.168 894.575 536.115 1084.17C544.145 1169 552.075 1252.77 569.403 1337.47ZM566.801 1330.11L567.001 1330.68C550.62 1248.25 542.891 1166.67 535.071 1084.07C517.073 893.943 498.536 698.456 372.547 475.077C367.9 471.008 363.24 466.934 358.52 462.829C469.324 672.075 494.897 864.262 519.946 1052.65C532.297 1145.53 544.525 1237.49 566.801 1330.11ZM456.579 922.638C484.441 1043.39 512.51 1165.03 551.894 1285.97C521.862 1182.16 500.952 1078.2 480.033 974.18C443.722 793.642 407.358 612.894 323.154 432.355C318.061 427.995 313.007 423.655 307.82 419.246C378.046 582.289 417.111 751.578 456.579 922.638ZM573.726 1352.47L573.008 1350.49L573.137 1351.26C573.374 1351.97 573.606 1352.69 573.845 1353.41L573.726 1352.47ZM576.441 1359.89C576.074 1358.89 575.698 1357.89 575.331 1356.89C575.399 1357.41 575.462 1357.93 575.531 1358.45L576.582 1361.56L576.441 1359.89ZM579.189 1367.32C578.718 1366.06 578.256 1364.8 577.79 1363.54C577.854 1364.28 577.928 1365.03 577.998 1365.77C578.42 1367.01 578.855 1368.26 579.281 1369.5C579.25 1368.77 579.216 1368.04 579.189 1367.32ZM581.992 1374.75L580.378 1370.48L580.492 1373.01C580.985 1374.44 581.474 1375.87 581.974 1377.31C581.98 1376.46 581.983 1375.6 581.992 1374.75ZM584.834 1382.23C584.232 1380.66 583.634 1379.09 583.039 1377.53C583.034 1378.44 583.023 1379.36 583.024 1380.28C583.573 1381.84 584.121 1383.4 584.674 1384.95C584.724 1384.05 584.78 1383.14 584.834 1382.23ZM587.723 1389.72C587.068 1388.03 586.42 1386.35 585.77 1384.66C585.715 1385.65 585.669 1386.64 585.618 1387.63C586.209 1389.28 586.808 1390.93 587.404 1392.58C587.51 1391.63 587.614 1390.67 587.723 1389.72ZM590.658 1397.22C589.966 1395.46 589.265 1393.7 588.577 1391.94C588.468 1392.93 588.35 1393.92 588.245 1394.92C588.878 1396.67 589.511 1398.43 590.155 1400.18C590.319 1399.19 590.487 1398.21 590.658 1397.22ZM593.639 1404.77C592.901 1402.92 592.173 1401.06 591.444 1399.21C591.27 1400.24 591.107 1401.27 590.94 1402.3C591.607 1404.11 592.275 1405.92 592.948 1407.73C593.175 1406.74 593.407 1405.75 593.639 1404.77ZM596.67 1412.3C595.904 1410.4 595.139 1408.5 594.378 1406.6C594.139 1407.63 593.898 1408.65 593.668 1409.67C594.368 1411.54 595.08 1413.41 595.786 1415.28C596.078 1414.29 596.369 1413.29 596.67 1412.3ZM599.759 1419.88C598.957 1417.93 598.157 1415.97 597.362 1414.02C597.057 1415.03 596.762 1416.05 596.465 1417.07C597.191 1418.99 597.917 1420.91 598.655 1422.83C599.016 1421.85 599.389 1420.87 599.759 1419.88ZM602.885 1427.48C602.055 1425.49 601.237 1423.49 600.418 1421.49C600.044 1422.49 599.672 1423.5 599.307 1424.51C600.064 1426.47 600.822 1428.42 601.588 1430.38C602.019 1429.42 602.448 1428.45 602.885 1427.48ZM606.08 1435.1C605.226 1433.07 604.371 1431.04 603.523 1429.01C603.08 1429.99 602.637 1430.98 602.2 1431.96C602.984 1433.95 603.777 1435.95 604.568 1437.94C605.068 1436.99 605.57 1436.05 606.08 1435.1ZM609.325 1442.76C608.441 1440.69 607.562 1438.62 606.689 1436.55C606.172 1437.51 605.668 1438.47 605.165 1439.44C605.968 1441.46 606.772 1443.49 607.588 1445.51C608.16 1444.59 608.745 1443.67 609.325 1442.76ZM612.619 1450.43C611.714 1448.34 610.818 1446.24 609.924 1444.15C609.337 1445.08 608.751 1446.01 608.175 1446.95C609.006 1449 609.84 1451.05 610.682 1453.1C611.324 1452.21 611.967 1451.32 612.619 1450.43ZM615.984 1458.13C615.057 1456.02 614.124 1453.9 613.204 1451.79C612.548 1452.69 611.894 1453.59 611.246 1454.49C612.1 1456.56 612.967 1458.64 613.831 1460.71C614.543 1459.85 615.259 1458.99 615.984 1458.13ZM619.402 1465.87C618.448 1463.73 617.501 1461.58 616.558 1459.44C615.826 1460.3 615.109 1461.18 614.39 1462.05C615.264 1464.15 616.141 1466.24 617.028 1468.33C617.813 1467.51 618.607 1466.69 619.402 1465.87ZM741.623 1688.08C692.813 1615.25 653.155 1541.49 619.977 1467.15C619.175 1467.98 618.378 1468.81 617.588 1469.65C648.797 1543.11 687.305 1616.47 736.389 1689.7L735.631 1690.4C686.563 1617.19 648.052 1543.87 616.837 1470.45C616.055 1471.27 615.273 1472.1 614.505 1472.93C643.712 1545.47 681.04 1618.39 730.394 1692.02L729.636 1692.72C680.305 1619.12 642.976 1546.25 613.756 1473.76C612.995 1474.59 612.241 1475.43 611.493 1476.26C638.66 1547.85 674.777 1620.31 724.402 1694.34L723.644 1695.05C674.046 1621.05 637.92 1548.64 610.733 1477.1C609.991 1477.94 609.266 1478.79 608.536 1479.63C633.621 1550.24 668.513 1622.23 718.41 1696.67L717.652 1697.37C667.791 1622.98 632.886 1551.06 607.773 1480.5C607.062 1481.33 606.359 1482.16 605.66 1483C628.619 1552.63 662.238 1624.13 712.416 1698.99L711.659 1699.69C661.525 1624.9 627.895 1553.47 604.896 1483.91C604.207 1484.74 603.516 1485.56 602.84 1486.4C623.634 1555.02 655.956 1626.02 706.422 1701.31L705.664 1702.02C655.259 1626.82 622.914 1555.9 602.07 1487.36C601.409 1488.19 600.747 1489.01 600.098 1489.84C618.683 1557.43 649.677 1627.92 700.429 1703.64L699.672 1704.34C648.989 1628.73 617.967 1558.33 599.318 1490.84C598.681 1491.66 598.061 1492.49 597.437 1493.32C613.764 1559.85 643.394 1629.81 694.438 1705.96L693.68 1706.66C642.724 1630.64 613.052 1560.8 596.637 1494.37C596.03 1495.18 595.438 1496.01 594.845 1496.83C608.869 1562.28 637.103 1631.69 688.443 1708.29L687.685 1708.99C636.456 1632.56 608.17 1563.28 594.033 1497.95C593.462 1498.75 592.89 1499.55 592.333 1500.35C604.006 1564.72 630.808 1633.56 682.451 1710.61L681.693 1711.31C630.194 1634.48 603.311 1565.79 591.49 1501.59C590.961 1502.36 590.423 1503.14 589.904 1503.92C599.175 1567.15 624.506 1635.42 676.458 1712.93L675.7 1713.63C623.923 1636.39 598.499 1568.31 589.038 1505.25C588.537 1506.02 588.042 1506.79 587.552 1507.56C594.379 1569.64 618.214 1637.3 670.464 1715.26L669.709 1715.96C617.665 1638.31 593.707 1570.86 586.643 1508.99C586.186 1509.72 585.751 1510.47 585.304 1511.21C589.624 1572.11 611.902 1639.15 664.471 1717.58L663.714 1718.28C611.416 1640.26 588.969 1573.48 584.335 1512.81C583.925 1513.51 583.524 1514.21 583.125 1514.91C584.894 1574.6 605.595 1641 658.479 1719.9L657.721 1720.6C605.182 1642.22 584.275 1576.14 582.098 1516.73C581.75 1517.36 581.391 1517.98 581.05 1518.61C580.2 1577.07 599.271 1642.83 652.487 1722.23L651.729 1722.93C598.98 1644.23 579.612 1578.9 579.909 1520.79C579.628 1521.33 579.344 1521.86 579.071 1522.4C575.555 1579.6 592.951 1644.67 646.492 1724.55L645.734 1725.25C592.812 1646.3 575.009 1581.76 577.777 1525.01C577.57 1525.43 577.365 1525.86 577.162 1526.28C570.947 1582.18 586.65 1646.53 640.499 1726.87L639.742 1727.58C586.709 1648.45 570.476 1584.79 575.684 1529.45C575.583 1529.68 575.487 1529.9 575.388 1530.13C566.378 1584.71 580.312 1648.34 634.507 1729.2L633.749 1729.9C581.119 1651.38 566.227 1589.04 573.392 1535.47C562.075 1588.39 574.467 1650.89 628.514 1731.52L627.757 1732.22C576.235 1655.36 562.308 1594.91 570.636 1543.53C558.136 1594.26 569.579 1654.86 622.52 1733.84L621.763 1734.55C571.39 1659.39 558.34 1600.82 567.654 1551.56C554.156 1600.16 564.733 1658.9 616.528 1736.17L615.77 1736.87C558.627 1651.62 551.254 1588.82 570.997 1537.33C571.805 1534.51 572.706 1531.72 573.657 1528.95C574.383 1526.06 575.16 1523.18 576.025 1520.34C576.658 1517.41 577.372 1514.51 578.134 1511.63C578.69 1508.55 579.301 1505.5 579.984 1502.47C580.437 1499.39 580.952 1496.32 581.522 1493.28C581.886 1490.02 582.314 1486.78 582.795 1483.56C583.052 1480.29 583.353 1477.04 583.714 1473.81C583.866 1470.37 584.085 1466.95 584.341 1463.54C584.382 1459.99 584.466 1456.45 584.605 1452.93C584.531 1449.39 584.498 1445.86 584.51 1442.35C584.31 1438.62 584.167 1434.9 584.052 1431.2C583.721 1427.31 583.432 1423.43 583.184 1419.57C582.723 1415.59 582.292 1411.63 581.907 1407.68C581.319 1403.65 580.757 1399.63 580.236 1395.62C579.503 1391.47 578.797 1387.32 578.129 1383.17C577.249 1378.89 576.397 1374.62 575.574 1370.35C574.541 1365.94 573.529 1361.53 572.55 1357.12C571.397 1352.72 570.273 1348.33 569.167 1343.94C567.81 1339.25 566.48 1334.57 565.17 1329.88C563.677 1325.15 562.207 1320.43 560.757 1315.7C516.086 1185.02 485.707 1053.37 455.57 922.76C415.973 751.134 376.785 581.292 306.102 417.793C220.336 344.955 122.9 266.089 12.469 180.54L12.8953 179.486C122.724 264.568 219.687 343.042 305.13 415.572C304.286 413.625 303.432 411.68 302.577 409.735C219.607 338.556 125.358 261.607 18.4596 178.218L18.8899 177.162C125.176 260.073 218.949 336.622 301.593 407.483C300.734 405.538 299.864 403.594 298.996 401.649C218.836 332.133 127.79 257.107 24.4513 175.892L24.8869 174.84C127.586 255.551 218.142 330.157 297.959 399.335C297.093 397.403 296.237 395.468 295.361 393.539C218.027 325.69 130.194 252.591 30.4419 173.566L30.8797 172.519C129.962 251.015 217.294 323.673 294.269 391.159C293.383 389.215 292.488 387.274 291.592 385.332C217.122 319.179 132.527 248.031 36.4323 171.24L36.8759 170.196C132.286 246.439 216.378 317.137 290.48 382.91C289.577 380.962 288.662 379.016 287.75 377.069C216.171 312.632 134.807 243.436 42.4212 168.915L42.8704 167.875C134.531 241.81 215.379 310.527 286.565 374.553C285.678 372.671 284.8 370.787 283.904 368.905C215.181 306.129 137.155 238.904 48.4124 166.59L48.8683 165.553C136.866 237.26 214.329 303.968 282.652 366.31C281.732 364.391 280.806 362.473 279.877 360.556C214.082 299.506 139.369 234.273 54.4017 164.266L54.8625 163.231C139.078 232.618 213.215 297.316 278.604 357.914C277.668 355.996 276.717 354.081 275.772 352.164C212.924 292.851 141.546 229.62 60.3902 161.938L60.8585 160.912C141.225 227.936 211.995 290.594 274.417 349.422C273.476 347.528 272.541 345.632 271.592 343.738C211.71 286.166 143.686 224.948 66.3815 159.611L66.8557 158.59C143.333 223.227 210.708 283.826 270.141 340.873C269.19 338.988 268.238 337.103 267.277 335.22C210.393 279.411 145.766 220.237 72.3702 157.284L72.8525 156.271C145.401 218.497 209.359 277.025 265.78 332.278C264.813 330.395 263.825 328.514 262.849 326.632C208.989 272.602 147.795 215.493 78.3602 154.956L78.8493 153.951C147.393 213.711 207.876 270.121 261.245 323.546C260.299 321.736 259.349 319.927 258.394 318.119C207.544 265.831 149.842 210.783 84.3464 152.631L84.8463 151.631C149.327 208.884 206.296 263.143 256.584 314.716C255.665 312.99 254.754 311.262 253.826 309.537C206.015 259.004 151.832 206.037 90.3345 150.299L90.8472 149.313C151.256 204.06 204.644 256.155 251.847 305.884C250.934 304.2 250.013 302.517 249.091 300.834C204.359 252.089 153.744 201.236 96.3225 147.972L96.8431 146.994C153.124 199.199 202.893 249.101 246.982 296.966C246.083 295.337 245.165 293.714 244.259 292.088C202.63 245.138 155.604 196.408 102.306 145.642L102.845 144.679C154.88 194.243 200.952 241.87 241.859 287.796C241.012 286.289 240.166 284.781 239.311 283.274C200.815 238.132 157.407 191.546 108.293 143.309L108.847 142.362C156.539 189.203 198.851 234.489 236.524 278.41C235.743 277.049 234.969 275.686 234.182 274.325C198.862 231.024 159.12 186.624 114.276 140.978L114.849 140.047C158.068 184.041 196.529 226.871 230.891 268.683C230.213 267.525 229.533 266.366 228.85 265.207C196.752 223.791 160.744 181.632 120.259 138.643L120.853 137.736C159.396 178.664 193.848 218.831 224.775 258.329C224.372 257.654 223.961 256.979 223.556 256.305C194.65 216.688 162.399 176.704 126.238 136.304L126.857 135.428C160.036 172.498 189.92 209.215 216.962 245.621C191.588 208.384 163.498 171.164 132.215 133.962L132.87 133.122C159.688 165.017 184.161 196.924 206.599 228.841C185.787 196.068 163.085 163.645 138.191 131.615L138.879 130.823C168.476 168.901 194.989 207.527 218.894 246.637C223.142 252.888 227.326 259.142 231.424 265.395C236.118 271.946 240.688 278.483 245.208 285.014C250.183 291.667 255.077 298.305 259.854 304.92C265.225 311.831 270.507 318.719 275.645 325.571C281.189 332.5 286.58 339.382 291.894 346.242C297.545 353.128 303.088 359.98 308.513 366.792C314.569 373.993 320.513 381.153 326.306 388.259C332.688 395.699 338.89 403.07 344.984 410.398C351.117 417.433 357.124 424.418 362.999 431.349C369.198 438.346 375.285 445.296 381.227 452.185C388.697 460.472 395.919 468.652 403.006 476.77C409.547 483.965 415.952 491.095 422.207 498.162C428.729 505.249 435.113 512.274 441.365 519.237C449 527.438 456.474 535.565 463.747 543.595C470.9 551.211 477.895 558.749 484.715 566.204C491.988 573.882 499.11 581.486 506.041 588.996C513.506 596.812 520.823 604.555 527.931 612.195C535.232 619.794 542.399 627.325 549.37 634.756C556.581 642.209 563.65 649.589 570.543 656.88C577.817 664.341 584.909 671.709 591.859 679.002C864.994 957.234 907.79 1115.58 863.752 1224.43C835.43 1294.44 771.218 1343.89 709.266 1391.6C677.413 1416.13 646.171 1440.21 620.73 1466.37C653.903 1540.74 693.561 1614.54 742.381 1687.37L741.623 1688.08Z" fill="#238C8C"/>
</svg>
