<svg xmlns="http://www.w3.org/2000/svg" xmlns:xlink="http://www.w3.org/1999/xlink" width="1080" zoomAndPan="magnify" viewBox="0 0 810 809.999993" height="1080" preserveAspectRatio="xMidYMid meet" version="1.2"><defs><clipPath id="1f0b6ecd72"><path d="M 110 339.800781 L 144 339.800781 L 144 397 L 110 397 Z M 110 339.800781 "/></clipPath><clipPath id="7e866c54a9"><path d="M 61.152344 382 L 176 382 L 176 470.300781 L 61.152344 470.300781 Z M 61.152344 382 "/></clipPath><clipPath id="d16ae1003b"><path d="M 640 395 L 748.902344 395 L 748.902344 467 L 640 467 Z M 640 395 "/></clipPath></defs><g id="806a144934"><rect x="0" width="810" y="0" height="809.999993" style="fill:#ffffff;fill-opacity:1;stroke:none;"/><rect x="0" width="810" y="0" height="809.999993" style="fill:#ffffff;fill-opacity:1;stroke:none;"/><g clip-rule="nonzero" clip-path="url(#1f0b6ecd72)"><path style=" stroke:none;fill-rule:nonzero;fill:#1b1464;fill-opacity:1;" d="M 120.953125 339.800781 L 110.4375 363.988281 L 125.339844 396.328125 C 131.386719 393.585938 137.40625 391.03125 143.164062 388.742188 Z M 120.953125 339.800781 "/></g><path style=" stroke:none;fill-rule:nonzero;fill:#1b1464;fill-opacity:1;" d="M 157.015625 465.058594 L 177.757812 465.058594 L 148.171875 399.816406 C 141.863281 402.941406 136.226562 406.015625 131.183594 409.007812 Z M 157.015625 465.058594 "/><g clip-rule="nonzero" clip-path="url(#7e866c54a9)"><path style=" stroke:none;fill-rule:nonzero;fill:#c2d500;fill-opacity:1;" d="M 175.25 382.167969 L 175.140625 382.167969 C 167.886719 384.515625 157.136719 388.191406 145.085938 392.996094 C 139.367188 395.273438 133.363281 397.796875 127.261719 400.554688 C 99.839844 413.054688 71.046875 430.246094 62.820312 450.046875 C 62.621094 450.527344 62.449219 451.019531 62.300781 451.519531 C 62.15625 452.019531 62.035156 452.523438 61.945312 453.039062 C 61.851562 453.550781 61.789062 454.066406 61.753906 454.585938 C 61.714844 455.105469 61.707031 455.625 61.726562 456.144531 C 61.746094 456.664062 61.792969 457.183594 61.871094 457.699219 C 61.945312 458.214844 62.046875 458.722656 62.175781 459.230469 C 62.304688 459.734375 62.464844 460.230469 62.644531 460.714844 C 62.828125 461.203125 63.039062 461.679688 63.273438 462.144531 C 63.507812 462.609375 63.765625 463.0625 64.046875 463.5 C 64.328125 463.9375 64.632812 464.355469 64.960938 464.761719 C 65.289062 465.167969 65.636719 465.550781 66.007812 465.917969 C 66.378906 466.285156 66.765625 466.632812 67.171875 466.957031 C 67.578125 467.28125 68 467.585938 68.4375 467.867188 C 68.878906 468.144531 69.332031 468.402344 69.796875 468.632812 C 70.261719 468.863281 70.738281 469.070312 71.226562 469.25 C 71.71875 469.429688 72.214844 469.582031 72.71875 469.710938 C 74.671875 470.125 76.644531 470.316406 78.640625 470.285156 C 89.542969 470.285156 107.652344 465.9375 123.628906 454.988281 C 123.628906 454.988281 110.957031 461.53125 99.371094 461.53125 C 96.664062 461.578125 94.03125 461.148438 91.476562 460.242188 C 90.8125 459.972656 90.179688 459.640625 89.582031 459.246094 C 88.984375 458.851562 88.429688 458.402344 87.917969 457.902344 C 87.410156 457.398438 86.953125 456.851562 86.546875 456.257812 C 86.144531 455.667969 85.800781 455.042969 85.519531 454.382812 C 85.242188 453.722656 85.027344 453.042969 84.878906 452.34375 C 84.730469 451.640625 84.652344 450.933594 84.640625 450.214844 C 84.632812 449.5 84.695312 448.789062 84.824219 448.082031 C 84.953125 447.378906 85.152344 446.691406 85.414062 446.027344 C 88.898438 437.246094 100.207031 421.933594 129.289062 404.863281 C 134.402344 401.84375 140.054688 398.773438 146.320312 395.671875 C 154.859375 391.429688 164.484375 387.136719 175.398438 382.855469 C 175.496094 382.835938 175.566406 382.78125 175.621094 382.703125 C 175.671875 382.621094 175.6875 382.53125 175.667969 382.4375 C 175.644531 382.34375 175.59375 382.269531 175.511719 382.21875 C 175.433594 382.164062 175.34375 382.148438 175.25 382.167969 Z M 175.25 382.167969 "/></g><path style=" stroke:none;fill-rule:nonzero;fill:#1b1464;fill-opacity:1;" d="M 191.058594 396.328125 L 209.816406 396.328125 L 209.816406 465.058594 L 191.058594 465.058594 Z M 191.058594 396.328125 "/><path style=" stroke:none;fill-rule:nonzero;fill:#1b1464;fill-opacity:1;" d="M 233.796875 432.59375 L 233.796875 412.257812 L 224.199219 412.257812 L 224.199219 396.34375 L 233.796875 396.34375 L 233.796875 384.871094 L 252.605469 376.640625 L 252.605469 396.300781 L 274.460938 396.300781 L 274.460938 412.21875 L 252.605469 412.21875 L 252.605469 432.59375 C 252.605469 445.917969 256.40625 451.804688 274.460938 449.773438 L 274.460938 466.8125 C 246.054688 470.066406 233.796875 459.542969 233.796875 432.59375 Z M 233.796875 432.59375 "/><path style=" stroke:none;fill-rule:nonzero;fill:#1b1464;fill-opacity:1;" d="M 279.496094 431.140625 C 279.496094 410.3125 295.261719 395.039062 317.378906 395.039062 C 341.851562 395.039062 357.988281 412.765625 355.34375 437.421875 L 298.894531 437.3125 C 299.867188 446.109375 307.929688 452.40625 317.996094 452.40625 C 325.605469 452.40625 331.542969 450.308594 337.191406 444.175781 L 351.695312 452.625 C 344.703125 461.503906 333.050781 467.472656 317.953125 467.472656 C 294.4375 467.484375 279.496094 452.023438 279.496094 431.140625 Z M 336.847656 424.277344 C 335.476562 415.113281 328.195312 409.28125 317.652344 409.28125 C 307.753906 409.269531 300.089844 415.414062 298.894531 424.363281 Z M 336.847656 424.277344 "/><path style=" stroke:none;fill-rule:nonzero;fill:#1b1464;fill-opacity:1;" d="M 365.40625 371.660156 L 383.792969 371.660156 L 384.125 466.210938 L 365.40625 466.210938 Z M 365.40625 371.660156 "/><path style=" stroke:none;fill-rule:nonzero;fill:#1b1464;fill-opacity:1;" d="M 393.914062 431.140625 C 393.914062 410.3125 409.679688 395.039062 431.796875 395.039062 C 456.269531 395.039062 472.410156 412.765625 469.75 437.421875 L 413.300781 437.3125 C 414.273438 446.109375 422.347656 452.40625 432.414062 452.40625 C 440.023438 452.40625 445.945312 450.308594 451.609375 444.175781 L 466.113281 452.625 C 459.121094 461.503906 447.46875 467.472656 432.386719 467.472656 C 408.871094 467.484375 393.914062 452.023438 393.914062 431.140625 Z M 451.253906 424.277344 C 449.882812 415.113281 442.601562 409.28125 432.058594 409.28125 C 422.199219 409.269531 414.480469 415.414062 413.328125 424.363281 Z M 451.253906 424.277344 "/><path style=" stroke:none;fill-rule:nonzero;fill:#1b1464;fill-opacity:1;" d="M 475.507812 431.222656 C 475.507812 411.394531 490.316406 395.011719 513.488281 395.011719 C 526.058594 395.011719 537.261719 398.566406 549.136719 411.875 L 535.917969 421.835938 C 528.0625 413.054688 521.671875 411.050781 514.789062 411.050781 C 502.351562 411.050781 494.632812 419.886719 494.632812 431.003906 C 494.632812 442.117188 502.351562 450.980469 514.789062 450.980469 C 521.726562 450.980469 528.117188 448.90625 536.152344 439.921875 L 549.519531 450.320312 C 537.46875 463.769531 526.074219 467.457031 513.445312 467.457031 C 490.316406 467.484375 475.507812 451.101562 475.507812 431.222656 Z M 475.507812 431.222656 "/><path style=" stroke:none;fill-rule:nonzero;fill:#1b1464;fill-opacity:1;" d="M 592.503906 467.15625 C 568.113281 467.15625 553.113281 450.882812 553.113281 431.195312 C 553.113281 411.808594 568.195312 395.203125 592.613281 395.203125 C 617.03125 395.203125 631.921875 411.808594 631.921875 431.195312 C 631.921875 450.882812 616.894531 467.15625 592.503906 467.15625 Z M 592.613281 411.148438 C 580.082031 411.148438 572.292969 420.273438 572.292969 430.960938 C 572.292969 442.007812 580.082031 451.007812 592.503906 451.007812 C 605.160156 451.007812 612.878906 442.007812 612.878906 430.960938 C 612.878906 420.726562 605.378906 411.148438 592.613281 411.148438 Z M 592.613281 411.148438 "/><g clip-rule="nonzero" clip-path="url(#d16ae1003b)"><path style=" stroke:none;fill-rule:nonzero;fill:#1b1464;fill-opacity:1;" d="M 729.546875 427.3125 C 729.546875 415.855469 725.625 411.300781 717.34375 411.300781 C 709.0625 411.300781 703.769531 416.789062 703.769531 425.515625 L 703.769531 466.210938 L 684.957031 466.210938 L 684.957031 425.625 C 684.957031 416.199219 680.84375 411.300781 672.808594 411.300781 C 664.773438 411.300781 659.425781 416.59375 659.425781 426.390625 L 659.425781 466.210938 L 640.710938 466.210938 L 640.710938 396.234375 L 659.441406 396.234375 L 659.332031 404.683594 C 663.226562 398.414062 669.285156 395.082031 677.894531 395.082031 C 687.164062 395.082031 694.046875 399.511719 697.351562 407.222656 C 701.726562 399.964844 710.007812 395.082031 720.976562 395.082031 C 737.882812 395.082031 748.289062 406.757812 748.289062 427.132812 L 748.289062 466.210938 L 729.546875 466.210938 Z M 729.546875 427.3125 "/></g><path style=" stroke:none;fill-rule:nonzero;fill:#c2d500;fill-opacity:1;" d="M 211.941406 377.449219 C 211.941406 378.207031 211.867188 378.953125 211.71875 379.695312 C 211.570312 380.4375 211.351562 381.15625 211.0625 381.855469 C 210.773438 382.554688 210.421875 383.214844 210 383.84375 C 209.582031 384.472656 209.105469 385.054688 208.570312 385.589844 C 208.035156 386.125 207.457031 386.601562 206.828125 387.019531 C 206.199219 387.441406 205.535156 387.796875 204.839844 388.085938 C 204.140625 388.375 203.421875 388.59375 202.679688 388.738281 C 201.941406 388.886719 201.191406 388.960938 200.4375 388.960938 C 199.679688 388.960938 198.933594 388.886719 198.191406 388.738281 C 197.453125 388.59375 196.730469 388.375 196.035156 388.085938 C 195.335938 387.796875 194.671875 387.441406 194.046875 387.019531 C 193.417969 386.601562 192.835938 386.125 192.300781 385.589844 C 191.769531 385.054688 191.292969 384.472656 190.871094 383.84375 C 190.453125 383.214844 190.097656 382.554688 189.808594 381.855469 C 189.519531 381.15625 189.300781 380.4375 189.152344 379.695312 C 189.007812 378.953125 188.933594 378.207031 188.933594 377.449219 C 188.933594 376.695312 189.007812 375.945312 189.152344 375.203125 C 189.300781 374.460938 189.519531 373.742188 189.808594 373.042969 C 190.097656 372.34375 190.453125 371.683594 190.871094 371.054688 C 191.292969 370.425781 191.769531 369.84375 192.300781 369.308594 C 192.835938 368.773438 193.417969 368.296875 194.046875 367.878906 C 194.671875 367.457031 195.335938 367.101562 196.035156 366.8125 C 196.730469 366.523438 197.453125 366.304688 198.191406 366.160156 C 198.933594 366.011719 199.679688 365.9375 200.4375 365.9375 C 201.191406 365.9375 201.941406 366.011719 202.679688 366.160156 C 203.421875 366.304688 204.140625 366.523438 204.839844 366.8125 C 205.535156 367.101562 206.199219 367.457031 206.828125 367.878906 C 207.457031 368.296875 208.035156 368.773438 208.570312 369.308594 C 209.105469 369.84375 209.582031 370.425781 210 371.054688 C 210.421875 371.683594 210.773438 372.34375 211.0625 373.042969 C 211.351562 373.742188 211.570312 374.460938 211.71875 375.203125 C 211.867188 375.945312 211.941406 376.695312 211.941406 377.449219 Z M 211.941406 377.449219 "/></g></svg>